<svg id="Camada_1" data-name="Camada 1" xmlns="http://www.w3.org/2000/svg" viewBox="0 0 377.06 358.26"><defs><style>.cls-1{font-size:14.45px;font-family:Lato-Light, Lato;font-weight:300;}.cls-1,.cls-11{fill:#1d1d1b;}.cls-2{letter-spacing:-0.06em;}.cls-3{letter-spacing:-0.02em;}.cls-4{letter-spacing:0em;}.cls-5{letter-spacing:-0.01em;}.cls-6{letter-spacing:0em;}.cls-7{letter-spacing:-0.01em;}.cls-8{letter-spacing:0em;}.cls-9{letter-spacing:-0.03em;}.cls-10{letter-spacing:-0.06em;}</style></defs><text class="cls-1" transform="translate(0 355.57)">INTER<tspan class="cls-2" x="41.36" y="0">F</tspan><tspan class="cls-3" x="48.8" y="0">A</tspan><tspan class="cls-4" x="57.9" y="0">CE DE APRESEN</tspan><tspan class="cls-2" x="164.3" y="0">T</tspan><tspan class="cls-5" x="171.91" y="0">A</tspan><tspan class="cls-6" x="181.01" y="0">Ç</tspan><tspan class="cls-7" x="191.18" y="0">Ã</tspan><tspan x="200.28" y="0">O REALIS</tspan><tspan class="cls-2" x="260.84" y="0">T</tspan><tspan class="cls-8" x="268.46" y="0">A </tspan><tspan class="cls-9" x="280.57" y="0">A</tspan><tspan x="289.46" y="0">U</tspan><tspan class="cls-10" x="300.06" y="0">T</tspan><tspan x="307.65" y="0">OGERA</tspan><tspan class="cls-5" x="356.97" y="0">D</tspan><tspan x="367.74" y="0">A</tspan></text><path class="cls-11" d="M21.44,334H0V242.07H21.44Z"/><path class="cls-11" d="M148.32,334H131.8a7.68,7.68,0,0,1-4.58-1.29,6.81,6.81,0,0,1-2.49-3.32l-5.42-16H84.37l-5.42,16A7.3,7.3,0,0,1,72,334H55.37l35.56-91.88h21.82Zm-59-35.13h25.1l-8.45-25.16q-.82-2.4-1.92-5.64c-.74-2.17-1.46-4.51-2.18-7-.67,2.56-1.36,4.94-2.08,7.12s-1.39,4.08-2,5.68Z"/><path class="cls-11" d="M201.42,300v34H180.1V242.07H210a61.26,61.26,0,0,1,17,2.05,31.93,31.93,0,0,1,11.47,5.7,21.62,21.62,0,0,1,6.47,8.64,30.24,30.24,0,0,1,.82,19.3,25.56,25.56,0,0,1-3.57,7.35,27.51,27.51,0,0,1-5.8,6,30.56,30.56,0,0,1-7.91,4.35,20.26,20.26,0,0,1,4,2.65,15.54,15.54,0,0,1,3.25,3.85l19.55,32H236c-3.57,0-6.14-1.35-7.69-4L213,303.24a6.42,6.42,0,0,0-2.37-2.53,7.94,7.94,0,0,0-3.81-.75Zm0-14.7H210a21.84,21.84,0,0,0,7.41-1.1,13.31,13.31,0,0,0,5-3.06,11.62,11.62,0,0,0,2.83-4.57,17.46,17.46,0,0,0,.89-5.64q0-6.06-3.95-9.46T210,258h-8.57Z"/><path class="cls-11" d="M373.82,334H357.3a7.65,7.65,0,0,1-4.57-1.29,6.69,6.69,0,0,1-2.49-3.32l-5.42-16H309.88l-5.42,16a7.3,7.3,0,0,1-6.94,4.61H280.87l35.57-91.88h21.82Zm-59-35.13h25.1l-8.45-25.16L329.52,268c-.73-2.17-1.46-4.51-2.17-7-.68,2.56-1.37,4.94-2.08,7.12s-1.39,4.08-2,5.68Z"/><path d="M271.75,135.62c-10.65,8.16-21.77,15.44-35,18.71-17.15,4.23-34.14,2.75-51.07-1.32-11.78-2.82-23.59-5.15-35.84-4.82a110,110,0,0,0-22.6,2.75A166.23,166.23,0,0,1,83,155c-4-.12-8,.07-12-.06a5.26,5.26,0,0,0-5.36,3c-3.29,5.66-10,7.88-16.25,5.89a13.8,13.8,0,0,1,.22-26.49c6.71-1.73,13.06.85,16.26,6.83,1,1.9,1.94,3.66,4.38,3.17,6-1.19,11.94.08,17.9.16,13,.19,24.91-2.75,35.24-11.1A51,51,0,0,1,141,127.39c-.47-1.42-1.61-1.29-2.46-1.51-8.22-2.09-16.39-4.29-25-3.78-2.75.17-4.49.86-6,3.34a13.49,13.49,0,0,1-16.26,5.87,13.93,13.93,0,0,1-9.55-14.48c.47-5.79,4.92-10.63,11.12-12.1,5.23-1.24,12.11,1.39,14.51,6.1,1.55,3,3.56,4.07,6.81,3.84,11.06-.78,21.35,3.28,32,5.2,21.92,3.95,43.71,4.43,64.67-4.55,20.24-8.67,34.54-23.67,44.37-43.15A18,18,0,0,0,256,69h0a198.66,198.66,0,0,1-20.35,19.22c-17.48,14.17-37.13,22.22-60,22.94-20.5.65-39.18-5-57.24-13.68a51.24,51.24,0,0,0-38.25-2.91c-13.18,4-26.47,6-40.2,5.06-3.22-.22-5.23.78-6.84,3.82-3.13,5.89-11,7.88-17.79,5C10,106,6.41,98.49,8,92.67,9.76,86,16.34,81.28,22.81,82c4.34.49,7.93,2.34,10.3,6,1.53,2.38,3.58,3.11,6.25,3.34,10,.9,18.42-2,26.11-8.64,17.28-15,38-18.9,60.17-17,12,1,23.5,4.5,35.25,6.77,22.58,4.37,44,1.58,63.69-10.74C232,57.14,239,51.92,244.89,45c-1.56-.35-2.32.59-3.21,1.08-19.35,10.83-39.74,18-62.24,17.6a86.46,86.46,0,0,1-29.55-6.08A78.13,78.13,0,0,0,112.82,53c-13.27,1.37-26.64.36-40,.22-3.87,0-6.57.55-8.75,4.5-3.6,6.55-13.48,7.73-19.86,3.08-6-4.34-7.15-13.28-2.6-19.4S55.7,34.06,61.38,38.7c1.06.86,2.35,1.76,2.83,2.93,1.69,4,4.88,4.29,8.59,4.19,6.48-.17,13-.13,19.46,0a31.85,31.85,0,0,0,18.8-5.31c12.75-8.61,26.14-9.55,40.32-4.36,3.51,1.29,7.16,2.18,10.69,3.41,11.64,4,21.53,1.22,30.06-7.43,6.66-6.74,13.38-13.36,21.29-18.76A76.56,76.56,0,0,1,252.29.23c14.61-1,28.92,1.11,42.33,7.38,12.79,6,23.1,14.33,26.07,29.2.48,2.4,2.29,4.11,3.71,6a83.07,83.07,0,0,1,15.82,35.56,32.2,32.2,0,0,1-.53,13.37c-1.24,5.25,0,9.85,2.71,14.28a114.64,114.64,0,0,0,11.31,15.34c4.67,5.39,4,9-2.22,12.49l-1,.52c-7,3.46-7,3.47-3.79,10.42a4.63,4.63,0,0,1-1.29,5.75,44.59,44.59,0,0,1-4.51,3.29c-.22,1.09.81,1,1.35,1.44,3.27,2.41,3.61,5.91.34,8.41s-3.64,5.3-3,8.91c1.75,10.46-3.74,16.78-14.34,17.09-9.63.28-18.73-2.63-28.07-4.13-2.34-.37-4.67-.83-7-1-7.94-.6-14.35,1.79-18.77,8.94a97.69,97.69,0,0,0-14,36.42c-1.29,8.16-.06,16.1,2.5,23.83-1.1.7-1.51-.18-2-.59-26-21-55.8-28.86-88.79-26.4-12,.89-24,3.09-36.12.31-7.42-1.7-13.43-4.12-18.4-8,1.12-.78,2.15-.12,3.14.08,19.22,3.83,35.73-1.32,49.82-14.81,2.33-2.23,2.13-3.5-.38-5.5-12.44-9.94-26.23-11.08-41-7-10.57,2.92-21,6.59-31.95,7.85-11.62,1.33-22.92.31-33.4-5.52-1.72-1-3.51-1.84-4.66-4.16l6,1.06c12.74,2.33,23.54-2.53,33.67-9.37,8.48-5.72,16.67-11.9,26.18-15.88,15.79-6.62,32.09-7.7,48.81-4.32,11.36,2.29,22.64,5.15,34.28,5.71,26.9,1.31,49-8.07,65.71-29.55a10.55,10.55,0,0,0,1-2l.76-.75h0ZM293.62,64.4c-3.3,9.11-7.41,17.74-13.48,25.3-9.42,11.72-20.89,20.14-36.5,20.67-7,.23-13,1.88-18.43,6.41-4.18,3.46-9.5,5.21-14.49,7.64a121.13,121.13,0,0,0,13.59,1.87c11.65.92,23.33,1,34.07-4.32C282.15,110.26,292.3,89.93,293.62,64.4ZM53.73,145.35A5.59,5.59,0,0,0,48,150.91a5.73,5.73,0,0,0,5.44,5.52,5.67,5.67,0,0,0,5.62-5.72C59.13,147.52,57,145.41,53.73,145.35Zm4.65-95.73c-.07-3.4-2.35-5.49-5.82-5.33A5.57,5.57,0,0,0,47.31,50a6.11,6.11,0,0,0,5.81,5.31A5.54,5.54,0,0,0,58.38,49.62Zm-31,46.51a5.3,5.3,0,0,0-5-5.46c-3.47-.32-5.66,1.42-5.91,4.68s1.55,5.65,4.74,6A5.68,5.68,0,0,0,27.35,96.13Zm73.7,22.59a5.15,5.15,0,0,0-5.52-5.6,5.26,5.26,0,1,0-.21,10.51C98.67,123.74,101,121.76,101.05,118.72Z"/></svg>