<svg xmlns="http://www.w3.org/2000/svg" viewBox="0 0 5503.36 1084.26"><defs><style>.cls-1{fill:#fff;}</style></defs><g id="horizontal"><path class="cls-1" d="M1453,448.28l-27.09,80.19h-73.79L1470,181.34h94.28l123,347.13h-78.91l-28.53-80.19Zm110.66-61.51c-24.65-73.27-40.35-120.07-48.74-151.26h-.5c-8.56,34.2-25.9,88.67-45.65,151.26Z"/><path class="cls-1" d="M2023.28,398.26c0-59.23,1-125.63,2.46-164.88h-2.4c-16.31,70.83-51,186.48-84.31,295.09h-63.91c-25.32-95-61.22-226.71-76.44-296h-2.33c3,40.73,4.39,112.15,4.39,171.7V528.47h-68.4V181.34H1844c27.06,90.69,57.41,204.47,67.83,256.22h.57c8.5-45.62,46.63-167.28,75.59-256.22h107.65V528.47h-72.4Z"/><path class="cls-1" d="M2243.5,448.28l-27.09,80.19h-73.79L2260.5,181.34h94.28l123,347.13h-78.91l-28.53-80.19Zm110.66-61.51c-24.65-73.27-40.35-120.07-48.74-151.26h-.5c-8.56,34.2-25.9,88.67-45.65,151.26Z"/><path class="cls-1" d="M2595.66,389.54V528.47h-73.35V181.34h152.54c75.68,0,116.43,41.69,116.43,95.29,0,46.58-25.35,71.81-50.45,82.14C2758,365.12,2784,383,2784,445.14v17.15c0,23.36.19,49.92,5,66.18h-71.14c-6.1-15.1-7.25-41.09-7.25-77.94v-5.07c0-37.95-9.59-55.92-65.53-55.92Zm0-59.75h62.93c41.1,0,56.95-15.62,56.95-44.66,0-28.24-18.45-44-55.16-44h-64.72Z"/><path class="cls-1" d="M3177.21,353.71c0,96.62-58,179.8-170.76,179.8-108.94,0-166-79.17-166-178.62,0-101,63-178.59,170.81-178.59C3112.86,176.3,3177.21,247.45,3177.21,353.71Zm-259.2-.32c0,67.78,29.74,119,91.28,119,66.75,0,90.4-55.89,90.4-117.75,0-65.68-26.91-117.28-91.61-117.28C2945.37,237.39,2918,285.8,2918,353.39Z"/><path class="cls-1" d="M3364.65,528.47V181.34h93c43.37,77.94,123.51,218.5,139.45,256.34h1c-3.93-36.23-3.85-96.5-3.85-153.46V181.34h68V528.47H3574c-37.29-67.83-126.08-229.33-143.28-269.41h-1c2.52,30.37,3.36,101.67,3.36,163.84V528.47Z"/><path class="cls-1" d="M3984.14,378.77h-166v88.17h183.11l-8.89,61.53H3745.29V181.34h246.14v61.51H3818.15v74.38h166Z"/><path class="cls-1" d="M4137.87,242.85H4032.4V181.34h285.67v61.51H4213V528.47h-75.13Z"/><path class="cls-1" d="M4459.1,242.85H4353.63V181.34h285.68v61.51H4534.23V528.47H4459.1Z"/><path class="cls-1" d="M4994.3,353.71c0,96.62-58,179.8-170.77,179.8-108.93,0-165.94-79.17-165.94-178.62,0-101,63-178.59,170.81-178.59C4930,176.3,4994.3,247.45,4994.3,353.71Zm-259.21-.32c0,67.78,29.75,119,91.29,119,66.77,0,90.39-55.89,90.39-117.75,0-65.68-26.88-117.28-91.6-117.28C4762.47,237.39,4735.09,285.8,4735.09,353.39Z"/><path class="cls-1" d="M1517.05,797.84c0,34.37-32.79,62.12-72.84,62.12H1425c-40,0-72.84-27.75-72.84-62.12v-1.26l.32-8.82h24.6l-.32,10.08c-.63,21.13,21.76,38.47,48.24,38.47h19.23c26.49,0,48.25-17.34,48.25-38.47,0-21.44-21.76-38.78-48.25-38.78h-8.82c-12.93-.63-30.28-2.21-39.73-7.88-24.91-14.51-36.89-32.16-36.89-54.55,0-34,32.79-62.12,72.83-62.12h5.68c38.78,0,70.94,25.86,72.84,59l.63,9.47h-24.6l-.63-8.52c-1.58-20.5-22.7-36.26-48.24-36.26h-5.68c-26.49,0-47.93,17.34-47.93,38.47,0,20.81,20.18,38.15,45.41,38.78h11.67v.32c10.72.31,16.08.63,16.4.94h.94C1492.46,740.77,1517.05,767.89,1517.05,797.84Z"/><path class="cls-1" d="M2049.66,746.77c0,61.8-50.14,111.93-111.63,111.93a111.94,111.94,0,0,1,0-223.87C1999.52,634.83,2049.66,685,2049.66,746.77Zm-23,0a88.61,88.61,0,1,0-177.21,0c0,48.87,39.73,88.91,88.6,88.91S2026.64,795.64,2026.64,746.77Z"/><path class="cls-1" d="M2507.85,836.63V860H2358.71V634.51h23.64V836.63Z"/><path class="cls-1" d="M2971.07,634.51h23.34V771.36a88.84,88.84,0,0,1-177.21,8.83h-.31V634.51h23.65V772.3c0,35.64,29.63,64.33,65.27,64.33,35.31,0,65.26-28.69,65.26-64V634.51Z"/><path class="cls-1" d="M3501.16,775.77h24.28A111.55,111.55,0,0,1,3423,860v4.73a21.24,21.24,0,0,1,4.73-.31,26.8,26.8,0,1,1-26.17,33.1h20.18a8.31,8.31,0,0,0,6,2.21,8.52,8.52,0,0,0,0-17,9.08,9.08,0,0,0-6.62,2.84v.32h-18V860a113.18,113.18,0,0,1-99.64-112.25c0-62.43,50.76-113.2,112.88-113.2a113.35,113.35,0,0,1,110,87.34H3502.1c-11.34-37.52-46-64-85.76-64-49.19,0-89.55,40.36-89.55,89.87,0,49.19,40.36,89.55,89.55,89.55A89.6,89.6,0,0,0,3501.16,775.77Z"/><path class="cls-1" d="M4057.42,746.77c0,61.8-50.14,111.93-111.63,111.93a111.94,111.94,0,0,1,0-223.87C4007.28,634.83,4057.42,685,4057.42,746.77Zm-23,0a88.61,88.61,0,1,0-177.21,0c0,48.87,39.73,88.91,88.6,88.91S4034.4,795.64,4034.4,746.77Zm-57.7-140.63-1.58,2.51c-4.42,6.63-9.78,10.1-16.08,10.1-5.05,0-9.46-2.21-12.93-4.1s-6.94-3.47-11.67-3.47c-1.57,0-3.47.31-5.67,4.41L3925,621.9l-7.56-12,1.26-2.2c4.1-6.94,9.45-10.41,16.39-10.41,4.42,0,9.47,1.9,13.88,3.79,7.25,3.47,9.46,3.78,10.09,3.78,2.21,0,4.1-1.26,6.3-5l3.79-5.36Z"/><path class="cls-1" d="M4371.83,634.51h148.52v23.65H4395.48v77.25h91.13v23.65h-91.13v77.25h124.87V860H4371.83Z"/><path class="cls-1" d="M4994.3,797.84c0,34.37-32.8,62.12-72.85,62.12h-19.23c-40,0-72.83-27.75-72.83-62.12v-1.26l.31-8.82h24.6l-.32,10.08c-.63,21.13,21.76,38.47,48.24,38.47h19.23c26.49,0,48.25-17.34,48.25-38.47,0-21.44-21.76-38.78-48.25-38.78h-8.82c-12.93-.63-30.27-2.21-39.73-7.88C4848,736.67,4836,719,4836,696.63c0-34,32.79-62.12,72.83-62.12h5.68c38.78,0,70.94,25.86,72.84,59l.63,9.47h-24.6l-.63-8.52c-1.58-20.5-22.7-36.26-48.24-36.26h-5.68c-26.48,0-47.93,17.34-47.93,38.47,0,20.81,20.18,38.15,45.41,38.78H4918v.32c10.72.31,16.08.63,16.4.94h.94C4969.7,740.77,4994.3,767.89,4994.3,797.84Z"/><path class="cls-1" d="M682,440.3l-30,69.38L690.34,599h-271L549,289.54a105.86,105.86,0,1,0-50-23.12L356.89,599h-1.8v4.21L333.4,654H746.15v-.13h27.59ZM567.11,125.51a59.68,59.68,0,1,1-59.68,59.68A59.68,59.68,0,0,1,567.11,125.51Z"/><path class="cls-1" d="M765.58,160.45l-59.78.12L1034,924.12H886.43L824.67,776.49H480.73L418,924.12H332.75a106,106,0,1,0-.47,55H457.57l61.85-147.62h270l57.2,147.62h210.91l59.89.14ZM230.23,1010.36a59.68,59.68,0,1,1,59.68-59.68A59.68,59.68,0,0,1,230.23,1010.36Z"/></g></svg>