<svg xmlns="http://www.w3.org/2000/svg" viewBox="0 0 929.71 1080.29"><defs><style>.cls-1{fill:#fff;}</style></defs><g id="Camada_6" data-name="Camada 6"><path class="cls-1" d="M525.11,430.35l-25.72,59.46,32.91,76.57H300.05L411.17,301.15a90.73,90.73,0,1,0-42.81-19.81l-121.84,285H245V570l-18.59,43.5H580.12v-.11h23.65ZM426.68,160.57a51.15,51.15,0,1,1-51.14,51.15A51.15,51.15,0,0,1,426.68,160.57Z"/><path class="cls-1" d="M596.78,190.52l-51.23.1L826.77,845H700.35L647.42,718.47H352.66L298.9,845H225.84a90.83,90.83,0,1,0-.41,47.11H332.8l53-126.52H617.25l49,126.52H847l51.32.12ZM138,918.91a51.15,51.15,0,1,1,51.14-51.15A51.15,51.15,0,0,1,138,918.91Z"/><path class="cls-1" d="M85.67,1014.29c0,8-7.67,14.51-17,14.51H64.15c-9.36,0-17-6.48-17-14.51v-.3l.08-2.06H53l-.08,2.36c-.15,4.93,5.09,9,11.28,9h4.49c6.19,0,11.28-4.06,11.28-9s-5.09-9.07-11.28-9.07H66.58c-3-.15-7.08-.52-9.29-1.84-5.82-3.39-8.62-7.52-8.62-12.75,0-8,7.67-14.52,17-14.52H67c9.07,0,16.58,6,17,13.78l.15,2.21H78.44l-.14-2c-.37-4.79-5.31-8.47-11.28-8.47H65.69c-6.19,0-11.2,4.05-11.2,9s4.72,8.92,10.62,9.06h2.72v.08a25.35,25.35,0,0,1,3.83.22h.22C79.92,1001,85.67,1007.28,85.67,1014.29Z"/><path class="cls-1" d="M210.14,1002.35a26.13,26.13,0,1,1-26.09-26.16A26.15,26.15,0,0,1,210.14,1002.35Zm-5.38,0a20.71,20.71,0,1,0-20.71,20.78A20.72,20.72,0,0,0,204.76,1002.35Z"/><path class="cls-1" d="M317.23,1023.35v5.45H282.37V976.11h5.53v47.24Z"/><path class="cls-1" d="M425.49,976.11h5.45v32a20.76,20.76,0,0,1-41.41,2.07h-.08v-34H395v32.2a15.26,15.26,0,0,0,30.51.08V976.11Z"/><path class="cls-1" d="M549.38,1009.13h5.67a26.07,26.07,0,0,1-23.95,19.67v1.11a4.57,4.57,0,0,1,1.11-.08,6.27,6.27,0,0,1,0,12.53,6.24,6.24,0,0,1-6.12-4.79h4.72a1.94,1.94,0,0,0,1.4.52,2,2,0,0,0,0-4,2.13,2.13,0,0,0-1.55.66v.08h-4.2v-6a26.43,26.43,0,1,1,28.81-32.28H549.6a21,21,0,1,0-.22,12.61Z"/><path class="cls-1" d="M679.38,1002.35a26.13,26.13,0,1,1-26.09-26.16A26.15,26.15,0,0,1,679.38,1002.35Zm-5.38,0a20.71,20.71,0,1,0-20.71,20.78A20.72,20.72,0,0,0,674,1002.35Zm-13.48-32.87-.37.59a4.54,4.54,0,0,1-3.76,2.36,6.38,6.38,0,0,1-3-1,5.42,5.42,0,0,0-2.73-.81c-.37,0-.81.07-1.32,1l-.89,1.47-1.77-2.8.3-.51a4.27,4.27,0,0,1,3.83-2.43,8.92,8.92,0,0,1,3.24.88,7.2,7.2,0,0,0,2.36.88c.52,0,1-.29,1.47-1.18l.89-1.25Z"/><path class="cls-1" d="M752.86,976.11h34.71v5.53H758.39v18.05h21.3v5.53h-21.3v18.06h29.18v5.52H752.86Z"/><path class="cls-1" d="M898.34,1014.29c0,8-7.66,14.51-17,14.51h-4.5c-9.35,0-17-6.48-17-14.51v-.3l.07-2.06h5.75l-.07,2.36c-.15,4.93,5.08,9,11.27,9h4.5c6.19,0,11.28-4.06,11.28-9s-5.09-9.07-11.28-9.07h-2.06c-3-.15-7.08-.52-9.29-1.84-5.82-3.39-8.62-7.52-8.62-12.75,0-8,7.66-14.52,17-14.52h1.33c9.06,0,16.58,6,17,13.78l.15,2.21h-5.75l-.15-2c-.36-4.79-5.3-8.47-11.27-8.47h-1.33c-6.19,0-11.2,4.05-11.2,9s4.72,8.92,10.61,9.06h2.73v.08a25.35,25.35,0,0,1,3.83.22h.22C892.6,1001,898.34,1007.28,898.34,1014.29Z"/></g></svg>