<svg xmlns="http://www.w3.org/2000/svg" viewBox="0 0 929.71 1080"><defs><style>.cls-1{fill:#fff;}</style></defs><g id="Logo"><path class="cls-1" d="M518.85,339.56,493.13,399,526,475.58H293.78L404.91,210.36a90.73,90.73,0,1,0-42.82-19.82l-121.83,285h-1.54v3.62l-18.59,43.49H573.86v-.1h23.65ZM420.42,69.78a51.15,51.15,0,1,1-51.15,51.14A51.15,51.15,0,0,1,420.42,69.78Z"/><path class="cls-1" d="M590.51,99.72l-51.23.11L820.51,754.2H694.08L641.16,627.68H346.39L292.63,754.2H219.57a90.81,90.81,0,1,0-.4,47.11H326.54l53-126.52H611l49,126.52H840.75l51.33.12ZM131.71,828.11A51.15,51.15,0,1,1,182.86,777,51.13,51.13,0,0,1,131.71,828.11Z"/><path class="cls-1" d="M49.55,962.21,43,981.69H25l28.64-84.33h22.9l29.87,84.33H87.29l-6.94-19.48Zm26.88-15c-6-17.8-9.8-29.17-11.84-36.74h-.12c-2.08,8.31-6.29,21.54-11.09,36.74Z"/><path class="cls-1" d="M188.08,950.05c0-14.39.23-30.52.6-40h-.58c-4,17.21-12.4,45.3-20.48,71.69H152.09c-6.15-23.07-14.87-55.08-18.57-71.92H133c.72,9.9,1.07,27.25,1.07,41.71v30.21H117.4V897.36h27.14c6.57,22,14,49.67,16.48,62.24h.14c2.06-11.08,11.33-40.64,18.36-62.24h26.15v84.33H188.08Z"/><path class="cls-1" d="M241.58,962.21,235,981.69H217.08l28.63-84.33h22.9l29.88,84.33H279.32l-6.93-19.48Zm26.88-15c-6-17.8-9.8-29.17-11.84-36.74h-.12c-2.08,8.31-6.29,21.54-11.09,36.74Z"/><path class="cls-1" d="M327.13,947.94v33.75H309.31V897.36h37.06c18.39,0,28.28,10.12,28.28,23.15,0,11.31-6.15,17.44-12.25,20,4.18,1.54,10.48,5.89,10.48,21v4.17c0,5.67.05,12.13,1.21,16.08H356.81c-1.49-3.67-1.77-10-1.77-18.94v-1.23c0-9.22-2.32-13.58-15.91-13.58Zm0-14.52h15.29c10,0,13.83-3.79,13.83-10.85,0-6.86-4.48-10.7-13.39-10.7H327.13Z"/><path class="cls-1" d="M468.41,939.23c0,23.47-14.1,43.68-41.48,43.68-26.47,0-40.32-19.23-40.32-43.39,0-24.54,15.3-43.39,41.49-43.39C452.78,896.13,468.41,913.42,468.41,939.23Zm-63-.08c0,16.47,7.23,28.92,22.18,28.92,16.21,0,22-13.58,22-28.61,0-16-6.54-28.49-22.26-28.49C412.09,911,405.44,922.73,405.44,939.15Z"/><path class="cls-1" d="M514,981.69V897.36h22.59c10.54,18.93,30,53.08,33.88,62.27h.23c-.95-8.8-.93-23.44-.93-37.28v-25h16.52v84.33H564.81C555.75,965.21,534.18,926,530,916.24h-.24c.62,7.38.82,24.7.82,39.8v25.65Z"/><path class="cls-1" d="M664.44,945.32H624.11v21.42H668.6l-2.16,15h-60V897.36h59.79V912.3h-42.1v18.07h40.33Z"/><path class="cls-1" d="M701.79,912.3H676.16V897.36h69.4V912.3H720v69.39H701.79Z"/><path class="cls-1" d="M779.82,912.3H754.2V897.36h69.4V912.3H798.07v69.39H779.82Z"/><path class="cls-1" d="M909.84,939.23c0,23.47-14.09,43.68-41.48,43.68-26.47,0-40.32-19.23-40.32-43.39,0-24.54,15.3-43.39,41.5-43.39C894.21,896.13,909.84,913.42,909.84,939.23Zm-63-.08c0,16.47,7.23,28.92,22.18,28.92,16.22,0,22-13.58,22-28.61,0-16-6.54-28.49-22.26-28.49C853.52,911,846.87,922.73,846.87,939.15Z"/><path class="cls-1" d="M62.52,1043.14c0,8.35-8,15.09-17.69,15.09H40.15c-9.73,0-17.69-6.74-17.69-15.09v-.31l.07-2.14h6l-.08,2.45c-.15,5.13,5.29,9.34,11.72,9.34h4.68c6.43,0,11.72-4.21,11.72-9.34s-5.29-9.42-11.72-9.42H42.68c-3.14-.16-7.35-.54-9.65-1.92-6.05-3.52-9-7.81-9-13.25,0-8.27,8-15.09,17.69-15.09h1.38c9.42,0,17.24,6.28,17.7,14.32l.15,2.3H55l-.16-2.07c-.38-5-5.51-8.81-11.72-8.81H41.76c-6.43,0-11.64,4.22-11.64,9.35s4.9,9.27,11,9.42H44v.08a28.4,28.4,0,0,1,4,.23h.23C56.55,1029.28,62.52,1035.86,62.52,1043.14Z"/><path class="cls-1" d="M191.91,1030.73a27.16,27.16,0,1,1-27.12-27.19A27.18,27.18,0,0,1,191.91,1030.73Zm-5.59,0a21.53,21.53,0,1,0-21.53,21.6A21.55,21.55,0,0,0,186.32,1030.73Z"/><path class="cls-1" d="M303.22,1052.56v5.67H267v-54.77h5.75v49.1Z"/><path class="cls-1" d="M415.75,1003.46h5.67v33.24a21.58,21.58,0,0,1-43.05,2.15h-.08v-35.39H384v33.47a15.86,15.86,0,0,0,31.71.08v-33.55Z"/><path class="cls-1" d="M544.52,1037.78h5.9a27.1,27.1,0,0,1-24.89,20.45v1.15a4.88,4.88,0,0,1,1.15-.08,6.51,6.51,0,1,1,0,13,6.48,6.48,0,0,1-6.36-5h4.9a2,2,0,0,0,1.46.53,2.07,2.07,0,1,0,0-4.13,2.22,2.22,0,0,0-1.61.68v.08H520.7v-6.28a27.48,27.48,0,1,1,29.95-33.55h-5.89a21.86,21.86,0,1,0-.24,13.1Z"/><path class="cls-1" d="M679.66,1030.73a27.16,27.16,0,1,1-27.12-27.19A27.18,27.18,0,0,1,679.66,1030.73Zm-5.6,0a21.53,21.53,0,1,0-21.52,21.6A21.55,21.55,0,0,0,674.06,1030.73Zm-14-34.16-.39.61a4.68,4.68,0,0,1-3.9,2.45,6.59,6.59,0,0,1-3.14-1,5.65,5.65,0,0,0-2.84-.84c-.38,0-.84.08-1.38,1.07l-.92,1.54-1.83-2.92.3-.53a4.47,4.47,0,0,1,4-2.53,9.29,9.29,0,0,1,3.38.92,7.57,7.57,0,0,0,2.45.92c.53,0,1-.31,1.53-1.23l.92-1.3Z"/><path class="cls-1" d="M756,1003.46h36.08v5.74H761.78V1028h22.14v5.75H761.78v18.76h30.34v5.75H756Z"/><path class="cls-1" d="M907.26,1043.14c0,8.35-8,15.09-17.7,15.09h-4.67c-9.73,0-17.7-6.74-17.7-15.09v-.31l.08-2.14h6l-.07,2.45c-.16,5.13,5.28,9.34,11.72,9.34h4.67c6.43,0,11.72-4.21,11.72-9.34s-5.29-9.42-11.72-9.42h-2.14c-3.14-.16-7.36-.54-9.66-1.92-6-3.52-9-7.81-9-13.25,0-8.27,8-15.09,17.7-15.09h1.37c9.43,0,17.24,6.28,17.7,14.32l.15,2.3h-6l-.16-2.07c-.38-5-5.51-8.81-11.72-8.81H886.5c-6.44,0-11.65,4.22-11.65,9.35s4.91,9.27,11,9.42h2.84v.08a28.32,28.32,0,0,1,4,.23h.23C901.28,1029.28,907.26,1035.86,907.26,1043.14Z"/></g></svg>