<svg id="Camada_1" data-name="Camada 1" xmlns="http://www.w3.org/2000/svg" viewBox="0 0 500 500"><defs><style>.cls-1{fill:#0071bc;}</style></defs><path class="cls-1" d="M243.93,74.58c3.7-8.81,1.1-19.78-5.8-24.5s-15.52-1.4-19.22,7.41L183.52,141.7h32.2Z"/><path class="cls-1" d="M311.4,141.7h32.2L308.21,57.49c-3.7-8.81-12.3-12.13-19.21-7.41s-9.51,15.69-5.81,24.5Z"/><circle class="cls-1" cx="252.37" cy="217.89" r="12.43"/><circle class="cls-1" cx="182.21" cy="377.31" r="12.43" transform="translate(-211.21 521.46) rotate(-84.35)"/><path class="cls-1" d="M432.14,169.93l-9.47-7a37.21,37.21,0,0,0-18-4.78H122.47c-30.3,0-52.2,36.94-43.93,74.11L118,409.73c5.57,25,23.51,42.34,43.93,42.34H365.19c20.42,0,38.36-17.29,43.93-42.34l39.47-177.5C454,207.91,446.45,183.77,432.14,169.93ZM208.22,305v-.88h.37l29.61-69.26A22.07,22.07,0,1,1,252.37,240a22.3,22.3,0,0,1-3.77-.35l-27,64.45H278l-8-18.6L276.29,271l19.11,44.47h-5.74v0h-86Zm146.29,78.27H310.59l-11.91-30.74H242.44l-12.88,30.74H203.47a22.1,22.1,0,1,1,.09-11.44h17.76L234.38,341H306l12.86,30.75h30.72l-68.33-159,12.44,0L367,383.25Z"/></svg>