<svg id="Camada_1" data-name="Camada 1" xmlns="http://www.w3.org/2000/svg" viewBox="0 0 500 500"><defs><style>.cls-1{fill:#0071bc;}.cls-2{fill:#444;}.cls-3{fill:#424242;}</style></defs><path class="cls-1" d="M240.77,60.48c2.88-6.84.86-15.36-4.51-19s-12-1.09-14.92,5.75l-27.5,65.43h25Z"/><path class="cls-1" d="M293.19,112.63h25L290.71,47.2c-2.87-6.84-9.55-9.42-14.93-5.75s-7.38,12.19-4.51,19Z"/><circle class="cls-1" cx="247.33" cy="171.81" r="9.66"/><circle class="cls-1" cx="192.83" cy="295.66" r="9.66" transform="translate(-120.39 458.42) rotate(-84.35)"/><path class="cls-1" d="M387,134.56l-7.35-5.47a29,29,0,0,0-14-3.71H146.41c-23.53,0-40.54,28.7-34.12,57.57L143,320.85c4.33,19.46,18.26,32.89,34.13,32.89H335c15.86,0,29.8-13.43,34.12-32.89L399.77,183C404,164.06,398.1,145.31,387,134.56ZM213,239.45v-.69h.29l23-53.81a17.14,17.14,0,1,1,11,4,17.73,17.73,0,0,1-2.93-.26l-21,50.06h43.85l-6.21-14.45,4.85-11.22,14.85,34.55H276.3v0H209.52Zm113.65,60.8H292.56l-9.25-23.88H239.62l-10,23.88H209.34a17.15,17.15,0,1,1,.08-8.89h13.79l10.15-23.88H289l10,23.88h23.87L269.77,167.83l9.67,0,56.93,132.47Z"/><path class="cls-2" d="M102.85,440.59l-6.5,17.5H95.27l6.86-18.28H103Zm4.54,11.23v.94H98v-.94Zm1.61,6.27-6.49-17.5-.12-.78h.82l6.88,18.28Z"/><path class="cls-2" d="M118.61,447.38v10.71h-1V444.5h1Zm-.16,2.87-.5-.57a6.56,6.56,0,0,1,.51-2.06,5.83,5.83,0,0,1,1.09-1.73,5,5,0,0,1,1.62-1.2,4.89,4.89,0,0,1,2.09-.44,5.71,5.71,0,0,1,1.82.27,3.47,3.47,0,0,1,1.38.84,3.88,3.88,0,0,1,.86,1.49,7.11,7.11,0,0,1,.31,2.2v9h-1v-9a5.09,5.09,0,0,0-.45-2.37,2.59,2.59,0,0,0-1.26-1.19,4.79,4.79,0,0,0-1.84-.34,4,4,0,0,0-2.1.53,4.67,4.67,0,0,0-1.41,1.35,6.43,6.43,0,0,0-.81,1.67A6.21,6.21,0,0,0,118.45,450.25Zm9.16-1.11-.67-.24a4.92,4.92,0,0,1,.52-1.75,5.18,5.18,0,0,1,1.11-1.48,5,5,0,0,1,1.62-1,5.39,5.39,0,0,1,2.08-.39,5.63,5.63,0,0,1,1.86.29,3.24,3.24,0,0,1,1.39.89,4.2,4.2,0,0,1,.86,1.55,7.71,7.71,0,0,1,.3,2.29v8.82h-1v-8.83a5.67,5.67,0,0,0-.45-2.5,2.59,2.59,0,0,0-1.26-1.25,4.46,4.46,0,0,0-1.85-.34,4.67,4.67,0,0,0-2,.41,4.51,4.51,0,0,0-1.38,1,4.6,4.6,0,0,0-.84,1.29A4,4,0,0,0,127.61,449.14Z"/><path class="cls-2" d="M154.56,450.38l0,.87h-3.31a10.18,10.18,0,0,0-2.25.23,5.62,5.62,0,0,0-1.68.68,3.26,3.26,0,0,0-1.05,1,2.66,2.66,0,0,0,.05,2.79,2.87,2.87,0,0,0,1.16,1,3.92,3.92,0,0,0,1.75.38,5.87,5.87,0,0,0,2.4-.47,5.23,5.23,0,0,0,1.77-1.28,5.17,5.17,0,0,0,1-1.88l.44.73a5.56,5.56,0,0,1-1.83,2.58,6,6,0,0,1-1.69.9,6.45,6.45,0,0,1-2.19.35,4.86,4.86,0,0,1-2.26-.49,3.55,3.55,0,0,1-1.48-1.33,3.5,3.5,0,0,1-.53-1.93,3.43,3.43,0,0,1,.43-1.72,3.82,3.82,0,0,1,1.23-1.34,6.25,6.25,0,0,1,2-.86,11.06,11.06,0,0,1,2.62-.29Zm-.33,5.21v-7a3.55,3.55,0,0,0-.45-1.83,2.91,2.91,0,0,0-1.32-1.17,4.8,4.8,0,0,0-2.12-.41,5,5,0,0,0-2.09.41,3.56,3.56,0,0,0-1.45,1.11,2.54,2.54,0,0,0-.53,1.57l-1,0a3.16,3.16,0,0,1,.37-1.49,4.08,4.08,0,0,1,1.05-1.27,5.28,5.28,0,0,1,1.62-.89,6.18,6.18,0,0,1,2.06-.33,6.31,6.31,0,0,1,2.53.49,3.74,3.74,0,0,1,1.71,1.45,4.4,4.4,0,0,1,.61,2.41v6.7a10.39,10.39,0,0,0,.11,1.47,4.9,4.9,0,0,0,.27,1.19v.13h-1.09a7.31,7.31,0,0,1-.21-1.17C154.26,456.46,154.23,456,154.23,455.59Z"/><path class="cls-2" d="M165.59,446.81v11.28h-1V444.5h1Zm5.17-2.41-.06.91a3.47,3.47,0,0,0-.45-.06,3.64,3.64,0,0,0-.48,0,3.93,3.93,0,0,0-1.89.43,4,4,0,0,0-1.36,1.16,5.59,5.59,0,0,0-.82,1.72,8.38,8.38,0,0,0-.29,2.1l-.49.1a10.36,10.36,0,0,1,.3-2.57,6.14,6.14,0,0,1,.9-2.06,4.1,4.1,0,0,1,1.51-1.36,4.65,4.65,0,0,1,2.16-.49,3.24,3.24,0,0,1,.56.05A2.74,2.74,0,0,1,170.76,444.4Z"/><path class="cls-2" d="M177.16,451.53v-.47a8.25,8.25,0,0,1,.43-2.74,6.55,6.55,0,0,1,1.22-2.15,5.45,5.45,0,0,1,1.89-1.41,6.12,6.12,0,0,1,4.89,0,5.53,5.53,0,0,1,1.91,1.41,6.38,6.38,0,0,1,1.22,2.15,8.51,8.51,0,0,1,.43,2.74v.47a8.51,8.51,0,0,1-.43,2.74,6.38,6.38,0,0,1-1.22,2.15,5.61,5.61,0,0,1-1.89,1.42,6.23,6.23,0,0,1-4.89,0,5.55,5.55,0,0,1-1.9-1.42,6.4,6.4,0,0,1-1.23-2.15A8.25,8.25,0,0,1,177.16,451.53Zm1-.47v.47a7.45,7.45,0,0,0,.33,2.24,6.06,6.06,0,0,0,1,1.89A4.46,4.46,0,0,0,181,457a4.7,4.7,0,0,0,2.13.47,4.65,4.65,0,0,0,2.11-.47,4.43,4.43,0,0,0,1.56-1.29,6,6,0,0,0,1-1.89,7.45,7.45,0,0,0,.33-2.24v-.47a7.34,7.34,0,0,0-.33-2.21,6,6,0,0,0-1-1.88,4.76,4.76,0,0,0-1.57-1.32,4.92,4.92,0,0,0-4.24,0,4.86,4.86,0,0,0-1.57,1.32,5.79,5.79,0,0,0-1,1.88A7.34,7.34,0,0,0,178.16,451.06Z"/><path class="cls-2" d="M222.54,439.81v18.28h-1l-11.29-16.54v16.54h-1V439.81h1l11.29,16.51V439.81Z"/><path class="cls-2" d="M237.23,458.34a5.69,5.69,0,0,1-2.37-.5,5.8,5.8,0,0,1-1.91-1.39,6.66,6.66,0,0,1-1.27-2.13,7.58,7.58,0,0,1-.46-2.7v-.55a7.93,7.93,0,0,1,.46-2.77,7,7,0,0,1,1.25-2.16,5.63,5.63,0,0,1,1.83-1.4,5.37,5.37,0,0,1,4.37-.05,5.06,5.06,0,0,1,1.66,1.23,5.43,5.43,0,0,1,1.05,1.89,7.62,7.62,0,0,1,.37,2.41v.84H231.85v-.92h9.36V450a5.49,5.49,0,0,0-.52-2.37,4.42,4.42,0,0,0-1.45-1.77,3.76,3.76,0,0,0-2.27-.67,4.17,4.17,0,0,0-1.94.45,4.6,4.6,0,0,0-1.5,1.25,5.92,5.92,0,0,0-1,1.87,7.9,7.9,0,0,0-.33,2.33v.55a6.66,6.66,0,0,0,.37,2.26,5.81,5.81,0,0,0,1.06,1.85,4.93,4.93,0,0,0,1.59,1.25,4.49,4.49,0,0,0,2,.45,5.4,5.4,0,0,0,2.16-.41,4.47,4.47,0,0,0,1.78-1.46l.65.49a5.25,5.25,0,0,1-1.09,1.17,5,5,0,0,1-1.51.82A6.18,6.18,0,0,1,237.23,458.34Z"/><path class="cls-2" d="M255.26,444.5v.91h-6.51v-.91Zm-4-3.59h1v13.9a3.91,3.91,0,0,0,.27,1.65,1.51,1.51,0,0,0,.71.76,2.38,2.38,0,0,0,1,.19,4.55,4.55,0,0,0,.67,0q.31,0,.63-.09l.08.88a3.49,3.49,0,0,1-.71.13,7.78,7.78,0,0,1-.78,0,3.31,3.31,0,0,1-1.49-.32,2.07,2.07,0,0,1-1-1.08,5.14,5.14,0,0,1-.36-2.13Z"/><path class="cls-2" d="M268.58,444.5v.91h-6.5v-.91Zm-4-3.59h1v13.9a3.91,3.91,0,0,0,.27,1.65,1.49,1.49,0,0,0,.72.76,2.38,2.38,0,0,0,1,.19,4.64,4.64,0,0,0,.67,0c.21,0,.41-.05.62-.09l.09.88a3.49,3.49,0,0,1-.71.13c-.3,0-.56,0-.78,0a3.38,3.38,0,0,1-1.5-.32,2.15,2.15,0,0,1-1-1.08,5.33,5.33,0,0,1-.35-2.13Z"/><path class="cls-2" d="M275.88,451.53v-.47a8.24,8.24,0,0,1,.44-2.74,6.38,6.38,0,0,1,1.22-2.15,5.45,5.45,0,0,1,1.89-1.41,6.12,6.12,0,0,1,4.89,0,5.4,5.4,0,0,1,1.9,1.41,6.4,6.4,0,0,1,1.23,2.15,8.51,8.51,0,0,1,.42,2.74v.47a8.51,8.51,0,0,1-.42,2.74,6.55,6.55,0,0,1-1.22,2.15,5.61,5.61,0,0,1-1.89,1.42,6.25,6.25,0,0,1-4.9,0,5.61,5.61,0,0,1-1.89-1.42,6.4,6.4,0,0,1-1.23-2.15A8.24,8.24,0,0,1,275.88,451.53Zm1-.47v.47a7.45,7.45,0,0,0,.33,2.24,6,6,0,0,0,1,1.89,4.55,4.55,0,0,0,1.57,1.29,5,5,0,0,0,4.25,0,4.52,4.52,0,0,0,1.56-1.29,6.26,6.26,0,0,0,1-1.89,7.45,7.45,0,0,0,.33-2.24v-.47a7.34,7.34,0,0,0-.33-2.21,6,6,0,0,0-1-1.88,4.66,4.66,0,0,0-1.57-1.32,4.9,4.9,0,0,0-4.23,0,4.76,4.76,0,0,0-1.57,1.32,5.81,5.81,0,0,0-1,1.88A7.67,7.67,0,0,0,276.89,451.06Z"/><path class="cls-2" d="M318.63,453.66a3.6,3.6,0,0,0-.28-1.47,2.89,2.89,0,0,0-.91-1.15,6.86,6.86,0,0,0-1.66-1,19.73,19.73,0,0,0-2.54-.85,24.26,24.26,0,0,1-2.49-.82,8.39,8.39,0,0,1-1.89-1,3.81,3.81,0,0,1-1.2-1.37,4,4,0,0,1-.42-1.89,3.87,3.87,0,0,1,.46-1.9A4.12,4.12,0,0,1,309,440.8a6.06,6.06,0,0,1,1.93-.92,8.87,8.87,0,0,1,2.43-.32,7,7,0,0,1,3.23.7,5.3,5.3,0,0,1,2.16,1.92,5.08,5.08,0,0,1,.78,2.8h-1a4.23,4.23,0,0,0-.64-2.31,4.33,4.33,0,0,0-1.78-1.6,5.91,5.91,0,0,0-2.73-.58,6.93,6.93,0,0,0-2.77.5,4.12,4.12,0,0,0-1.72,1.32,3.1,3.1,0,0,0-.58,1.79,3.35,3.35,0,0,0,.26,1.3,2.9,2.9,0,0,0,.85,1.1,6.66,6.66,0,0,0,1.62.95,18.51,18.51,0,0,0,2.56.86,20.93,20.93,0,0,1,2.53.82A8.51,8.51,0,0,1,318,450.2a4.16,4.16,0,0,1,1.23,1.46,4.24,4.24,0,0,1,.43,2,4,4,0,0,1-.48,2,4.44,4.44,0,0,1-1.32,1.48,6,6,0,0,1-2,.92,9.05,9.05,0,0,1-2.44.32,10.34,10.34,0,0,1-2.39-.29,6.9,6.9,0,0,1-2.19-.93,4.77,4.77,0,0,1-2.2-4.22h1a4.14,4.14,0,0,0,.53,2.16,4,4,0,0,0,1.38,1.38,6,6,0,0,0,1.86.74,9.21,9.21,0,0,0,2,.23,7.33,7.33,0,0,0,2.71-.47,4.29,4.29,0,0,0,1.83-1.32A3.09,3.09,0,0,0,318.63,453.66Z"/><path class="cls-2" d="M327,451.53v-.47a8.24,8.24,0,0,1,.44-2.74,6.21,6.21,0,0,1,1.22-2.15,5.45,5.45,0,0,1,1.89-1.41,5.7,5.7,0,0,1,2.44-.51,5.78,5.78,0,0,1,2.45.51,5.49,5.49,0,0,1,1.9,1.41,6.21,6.21,0,0,1,1.22,2.15,8.25,8.25,0,0,1,.43,2.74v.47a8.25,8.25,0,0,1-.43,2.74,6.36,6.36,0,0,1-1.21,2.15,5.61,5.61,0,0,1-1.89,1.42,6.25,6.25,0,0,1-4.9,0,5.61,5.61,0,0,1-1.89-1.42,6.08,6.08,0,0,1-1.23-2.15A8.24,8.24,0,0,1,327,451.53Zm1-.47v.47a7.45,7.45,0,0,0,.33,2.24,6,6,0,0,0,1,1.89,4.55,4.55,0,0,0,1.57,1.29,4.71,4.71,0,0,0,2.14.47,4.63,4.63,0,0,0,2.1-.47,4.55,4.55,0,0,0,1.57-1.29,6,6,0,0,0,1-1.89,7.15,7.15,0,0,0,.34-2.24v-.47a7,7,0,0,0-.34-2.21,5.79,5.79,0,0,0-1-1.88,4.76,4.76,0,0,0-1.57-1.32,4.92,4.92,0,0,0-4.24,0,4.82,4.82,0,0,0-1.56,1.32,5.62,5.62,0,0,0-1,1.88A7.67,7.67,0,0,0,328,451.06Z"/><path class="cls-2" d="M348.48,438.81v19.28h-1V438.81Z"/><path class="cls-2" d="M367.07,452.64l.65,0a8.29,8.29,0,0,1-.3,2.29,5.07,5.07,0,0,1-1,1.81,4.16,4.16,0,0,1-1.66,1.2,6.19,6.19,0,0,1-2.44.43,5.77,5.77,0,0,1-1.81-.28,3.59,3.59,0,0,1-1.42-.9,4.13,4.13,0,0,1-.92-1.61,8,8,0,0,1-.32-2.4V444.5h1v8.68a6.45,6.45,0,0,0,.27,2,3.35,3.35,0,0,0,.75,1.3,2.82,2.82,0,0,0,1.12.71,4.18,4.18,0,0,0,1.39.22,5,5,0,0,0,2.78-.68,3.62,3.62,0,0,0,1.45-1.77A6.21,6.21,0,0,0,367.07,452.64Zm-.18,2.31V444.5h1v13.59h-1Z"/><path class="cls-2" d="M382,457.42a5,5,0,0,0,1.93-.37,3.84,3.84,0,0,0,1.52-1.15,3.5,3.5,0,0,0,.68-2h1a4.15,4.15,0,0,1-.78,2.34,4.74,4.74,0,0,1-1.84,1.53,5.71,5.71,0,0,1-2.49.54,5.61,5.61,0,0,1-2.41-.5,4.94,4.94,0,0,1-1.78-1.42,6.46,6.46,0,0,1-1.09-2.16,9.58,9.58,0,0,1-.37-2.7V451a9.58,9.58,0,0,1,.37-2.7,6.56,6.56,0,0,1,1.09-2.16,4.91,4.91,0,0,1,1.76-1.41,5.44,5.44,0,0,1,2.41-.51,5.67,5.67,0,0,1,2.51.56,4.59,4.59,0,0,1,1.85,1.62,5,5,0,0,1,.77,2.59h-1a4,4,0,0,0-.64-2.1,3.63,3.63,0,0,0-1.5-1.3,4.55,4.55,0,0,0-2-.45,4.42,4.42,0,0,0-2.09.46,4.12,4.12,0,0,0-1.44,1.28,5.59,5.59,0,0,0-.83,1.87,9.63,9.63,0,0,0-.26,2.25v.53a9.74,9.74,0,0,0,.26,2.27,5.62,5.62,0,0,0,.83,1.86,4.13,4.13,0,0,0,1.45,1.27A4.46,4.46,0,0,0,382,457.42Zm-.41.79h.85l-.14.91a3.16,3.16,0,0,1,1.49.54,1.75,1.75,0,0,1,.67,1.58,2.08,2.08,0,0,1-.24,1,2.26,2.26,0,0,1-.72.76,3.55,3.55,0,0,1-1.13.5,6.36,6.36,0,0,1-1.52.17l-.09-.75a4.85,4.85,0,0,0,1.3-.18,2.64,2.64,0,0,0,1.07-.54,1.19,1.19,0,0,0,.43-.95,1.22,1.22,0,0,0-.26-.82,1.56,1.56,0,0,0-.77-.45,6.43,6.43,0,0,0-1.28-.21Z"/><path class="cls-2" d="M394.49,451.53v-.47a8.25,8.25,0,0,1,.43-2.74,6.4,6.4,0,0,1,1.23-2.15,5.33,5.33,0,0,1,1.88-1.41,6.12,6.12,0,0,1,4.89,0,5.53,5.53,0,0,1,1.91,1.41,6.38,6.38,0,0,1,1.22,2.15,8.51,8.51,0,0,1,.43,2.74v.47a8.51,8.51,0,0,1-.43,2.74,6.38,6.38,0,0,1-1.22,2.15,5.61,5.61,0,0,1-1.89,1.42,6.23,6.23,0,0,1-4.89,0,5.55,5.55,0,0,1-1.9-1.42,6.4,6.4,0,0,1-1.23-2.15A8.25,8.25,0,0,1,394.49,451.53Zm1-.47v.47a7.15,7.15,0,0,0,.34,2.24,5.84,5.84,0,0,0,1,1.89,4.46,4.46,0,0,0,1.57,1.29,4.7,4.7,0,0,0,2.13.47,4.65,4.65,0,0,0,2.11-.47,4.43,4.43,0,0,0,1.56-1.29,5.84,5.84,0,0,0,1-1.89,7.45,7.45,0,0,0,.33-2.24v-.47a7.34,7.34,0,0,0-.33-2.21,6,6,0,0,0-1-1.88,4.76,4.76,0,0,0-1.57-1.32,4.92,4.92,0,0,0-4.24,0,4.86,4.86,0,0,0-1.57,1.32,5.79,5.79,0,0,0-1,1.88A7.34,7.34,0,0,0,395.49,451.06Zm8.33-11.68.86,0a2.6,2.6,0,0,1-.31,1.3,2.15,2.15,0,0,1-.83.86,2.23,2.23,0,0,1-1.17.31,2.4,2.4,0,0,1-1.1-.22,4.7,4.7,0,0,1-.79-.52,6.17,6.17,0,0,0-.74-.52,1.77,1.77,0,0,0-.92-.23,1.41,1.41,0,0,0-1.47,1.54l-.87,0a2.57,2.57,0,0,1,.31-1.27,2.26,2.26,0,0,1,.84-.84,2.31,2.31,0,0,1,1.16-.3,2.39,2.39,0,0,1,1.08.22,5.1,5.1,0,0,1,.81.52,6,6,0,0,0,.76.52,1.78,1.78,0,0,0,.91.23,1.4,1.4,0,0,0,1-.43A1.59,1.59,0,0,0,403.82,439.38Z"/><path class="cls-2" d="M419.87,458.34a5.7,5.7,0,0,1-2.38-.5,5.8,5.8,0,0,1-1.91-1.39,6.66,6.66,0,0,1-1.27-2.13,7.58,7.58,0,0,1-.46-2.7v-.55a7.93,7.93,0,0,1,.46-2.77,7,7,0,0,1,1.25-2.16,5.74,5.74,0,0,1,1.83-1.4,5.37,5.37,0,0,1,4.37-.05,5,5,0,0,1,1.66,1.23,5.43,5.43,0,0,1,1.05,1.89,7.62,7.62,0,0,1,.37,2.41v.84H414.48v-.92h9.36V450a5.49,5.49,0,0,0-.52-2.37,4.34,4.34,0,0,0-1.45-1.77,3.76,3.76,0,0,0-2.27-.67,4.17,4.17,0,0,0-1.94.45,4.6,4.6,0,0,0-1.5,1.25,5.71,5.71,0,0,0-1,1.87,7.59,7.59,0,0,0-.34,2.33v.55a6.66,6.66,0,0,0,.37,2.26,5.81,5.81,0,0,0,1.06,1.85,4.93,4.93,0,0,0,1.59,1.25,4.49,4.49,0,0,0,2,.45,5.4,5.4,0,0,0,2.16-.41,4.47,4.47,0,0,0,1.78-1.46l.66.49a5.54,5.54,0,0,1-1.1,1.17,5,5,0,0,1-1.51.82A6.16,6.16,0,0,1,419.87,458.34Z"/><path class="cls-2" d="M441.35,454.71a2.39,2.39,0,0,0-.32-1.19,3.07,3.07,0,0,0-1.17-1.11,8.16,8.16,0,0,0-2.45-.86,17.41,17.41,0,0,1-2-.56,5.53,5.53,0,0,1-1.46-.73,2.73,2.73,0,0,1-.88-1,3.19,3.19,0,0,1-.3-1.44,3.1,3.1,0,0,1,.32-1.37,3.25,3.25,0,0,1,.92-1.12,4.49,4.49,0,0,1,1.46-.76,6.42,6.42,0,0,1,1.93-.28,6.3,6.3,0,0,1,2.65.51,4.05,4.05,0,0,1,1.69,1.4,3.63,3.63,0,0,1,.59,2h-1a2.65,2.65,0,0,0-.45-1.48,3.25,3.25,0,0,0-1.33-1.13,4.75,4.75,0,0,0-2.14-.43,4.79,4.79,0,0,0-2.08.39,2.7,2.7,0,0,0-1.17,1,2.28,2.28,0,0,0-.37,1.22,2.71,2.71,0,0,0,.14.91,1.81,1.81,0,0,0,.56.77,4.57,4.57,0,0,0,1.19.67,13.65,13.65,0,0,0,2,.6,11.16,11.16,0,0,1,2.66.88,3.76,3.76,0,0,1,1.52,1.27,3.24,3.24,0,0,1,.49,1.82,3.19,3.19,0,0,1-.34,1.48,3.26,3.26,0,0,1-1,1.16,4.34,4.34,0,0,1-1.54.75,7,7,0,0,1-2,.27,6.72,6.72,0,0,1-2.84-.54,4,4,0,0,1-1.75-1.41,3.26,3.26,0,0,1-.6-1.89h1a2.66,2.66,0,0,0,.74,1.75,3.62,3.62,0,0,0,1.58.91,7.09,7.09,0,0,0,1.87.26,5.11,5.11,0,0,0,2.12-.39,3.19,3.19,0,0,0,1.3-1A2.17,2.17,0,0,0,441.35,454.71Z"/><path class="cls-3" d="M95.08,395.48,84.37,428.11H75.75l14.62-39.36h5.49Zm8.4,18v6.35H82.7v-6.35Zm.49,14.65L93.24,395.48l-.87-6.73h5.54l14.71,39.36Z"/><path class="cls-3" d="M122.67,404.92v23.19h-7.81V398.86h7.33Zm-1.1,7.54h-2.14a20.52,20.52,0,0,1,.74-5.64,13.67,13.67,0,0,1,2.19-4.48,10,10,0,0,1,3.59-3,10.92,10.92,0,0,1,4.94-1.06,10.69,10.69,0,0,1,3.57.58,7.24,7.24,0,0,1,2.8,1.81,8.38,8.38,0,0,1,1.82,3.19,15.09,15.09,0,0,1,.65,4.69v19.52H132V409.46a7.06,7.06,0,0,0-.54-3.08,3.14,3.14,0,0,0-1.53-1.52,6,6,0,0,0-2.37-.43,5.35,5.35,0,0,0-2.63.62,5.25,5.25,0,0,0-1.85,1.72,8,8,0,0,0-1.1,2.55A13.13,13.13,0,0,0,121.57,412.46Zm17.43-.89-2.78.35a19.29,19.29,0,0,1,.71-5.33,13,13,0,0,1,2.14-4.32,9.78,9.78,0,0,1,3.53-2.91,10.86,10.86,0,0,1,4.86-1,11.37,11.37,0,0,1,3.84.61,7.44,7.44,0,0,1,3,1.92,8.66,8.66,0,0,1,1.89,3.42,17.45,17.45,0,0,1,.66,5.16v18.68H149V409.43a7.2,7.2,0,0,0-.52-3.09,3,3,0,0,0-1.52-1.49,6,6,0,0,0-2.34-.42,5.37,5.37,0,0,0-2.46.55,5,5,0,0,0-1.75,1.53,7,7,0,0,0-1.06,2.26A10.79,10.79,0,0,0,139,411.57Z"/><path class="cls-3" d="M179.65,410.3l.06,4.4h-4.35a9.27,9.27,0,0,0-2.68.35,5.13,5.13,0,0,0-1.86,1,3.79,3.79,0,0,0-1.07,1.47,4.78,4.78,0,0,0-.34,1.84,3.5,3.5,0,0,0,.46,1.8,3.16,3.16,0,0,0,1.32,1.24,4.37,4.37,0,0,0,2,.45,6.46,6.46,0,0,0,3.06-.7,5.83,5.83,0,0,0,2-1.73,3.58,3.58,0,0,0,.74-2l2.06,3.3a13.52,13.52,0,0,1-1.18,2.29,10.56,10.56,0,0,1-1.88,2.24,9.1,9.1,0,0,1-2.73,1.7,9.83,9.83,0,0,1-3.78.66,11.11,11.11,0,0,1-5-1.12,9,9,0,0,1-3.57-3.11,8,8,0,0,1-1.31-4.53,9.33,9.33,0,0,1,.86-4.08,8,8,0,0,1,2.56-3,12.13,12.13,0,0,1,4.23-1.87,24.62,24.62,0,0,1,5.89-.63Zm-1,11.21v-13a5.9,5.9,0,0,0-.46-2.42,3.48,3.48,0,0,0-1.42-1.59,4.91,4.91,0,0,0-2.47-.56,5.34,5.34,0,0,0-2.25.44,3.36,3.36,0,0,0-1.46,1.27,3.62,3.62,0,0,0-.51,1.94h-7.79a7.54,7.54,0,0,1,.87-3.54,8.89,8.89,0,0,1,2.51-3,12.52,12.52,0,0,1,3.94-2,17,17,0,0,1,5.12-.73,15.15,15.15,0,0,1,6,1.14,9.3,9.3,0,0,1,4.18,3.4,10,10,0,0,1,1.53,5.68v12.51a22.13,22.13,0,0,0,.29,3.94,10.38,10.38,0,0,0,.87,2.66v.46h-7.87a10.9,10.9,0,0,1-.85-3A23,23,0,0,1,178.63,421.51Z"/><path class="cls-3" d="M200.25,405.24v22.87h-7.78V398.86h7.32Zm8.81-6.57-.13,7.22-1.37-.15c-.53,0-1-.07-1.44-.07a8.65,8.65,0,0,0-2.85.42,5.15,5.15,0,0,0-2,1.22,4.85,4.85,0,0,0-1.19,2,9.37,9.37,0,0,0-.45,2.67l-1.57-.49a22.53,22.53,0,0,1,.57-5.23,14.21,14.21,0,0,1,1.66-4.18A8.06,8.06,0,0,1,203,399.3a6.88,6.88,0,0,1,3.65-1,8.69,8.69,0,0,1,1.33.1A5.49,5.49,0,0,1,209.06,398.67Z"/><path class="cls-3" d="M210.66,413.78v-.56a18.5,18.5,0,0,1,.92-5.94,13.63,13.63,0,0,1,2.67-4.71,12.21,12.21,0,0,1,4.33-3.13,14.73,14.73,0,0,1,5.89-1.12,14.92,14.92,0,0,1,5.92,1.12,12.19,12.19,0,0,1,4.37,3.13,13.67,13.67,0,0,1,2.69,4.71,18.5,18.5,0,0,1,.92,5.94v.56a18.4,18.4,0,0,1-.92,5.91,13.85,13.85,0,0,1-2.69,4.73,12.1,12.1,0,0,1-4.34,3.12,16.24,16.24,0,0,1-11.8,0,12.05,12.05,0,0,1-4.35-3.12,13.69,13.69,0,0,1-2.69-4.73A18.4,18.4,0,0,1,210.66,413.78Zm7.78-.56v.56a17,17,0,0,0,.33,3.44,8.65,8.65,0,0,0,1,2.79,5.14,5.14,0,0,0,1.88,1.88,5.55,5.55,0,0,0,2.84.68,5.45,5.45,0,0,0,2.78-.68,5,5,0,0,0,1.86-1.88,9.41,9.41,0,0,0,1.05-2.79,17,17,0,0,0,.33-3.44v-.56a16.46,16.46,0,0,0-.33-3.37,9.59,9.59,0,0,0-1.06-2.81,5.14,5.14,0,0,0-4.69-2.64,5.27,5.27,0,0,0-2.8.71,5.47,5.47,0,0,0-1.86,1.93,9,9,0,0,0-1,2.81A16.46,16.46,0,0,0,218.44,413.22Z"/><path class="cls-1" d="M264.12,417.81a5.41,5.41,0,0,0-.31-1.9,3.79,3.79,0,0,0-1.14-1.57,10.44,10.44,0,0,0-2.36-1.42,31.87,31.87,0,0,0-3.92-1.46,49.29,49.29,0,0,1-5.06-1.95,20.14,20.14,0,0,1-4.22-2.52,11.05,11.05,0,0,1-2.87-3.37,9.93,9.93,0,0,1,0-8.93,10.41,10.41,0,0,1,3-3.46,14.43,14.43,0,0,1,4.61-2.23,20.44,20.44,0,0,1,5.85-.79,17.36,17.36,0,0,1,7.6,1.57,12.32,12.32,0,0,1,5,4.3,11.08,11.08,0,0,1,1.8,6.24h-8.06a6.35,6.35,0,0,0-.71-3,5.14,5.14,0,0,0-2.17-2.08,7.68,7.68,0,0,0-3.63-.77,8.45,8.45,0,0,0-3.52.65,4.79,4.79,0,0,0-2.1,1.72,4.22,4.22,0,0,0-.71,2.39,3.42,3.42,0,0,0,.5,1.81,5.5,5.5,0,0,0,1.5,1.51,13.94,13.94,0,0,0,2.46,1.33,35.72,35.72,0,0,0,3.38,1.21,36.41,36.41,0,0,1,5.66,2.19,17.41,17.41,0,0,1,4.1,2.73,10.26,10.26,0,0,1,2.49,3.43,11,11,0,0,1,.83,4.36,10.19,10.19,0,0,1-1,4.59,9.44,9.44,0,0,1-2.89,3.44,13.75,13.75,0,0,1-4.51,2.13,21.78,21.78,0,0,1-5.87.73,22.13,22.13,0,0,1-5.76-.77,16.82,16.82,0,0,1-5.14-2.34,11.59,11.59,0,0,1-3.69-4,11.47,11.47,0,0,1-1.38-5.76h8.13a7.55,7.55,0,0,0,.57,3.11A5.24,5.24,0,0,0,252.3,421a7,7,0,0,0,2.49,1.15,13.08,13.08,0,0,0,3.17.36,8.51,8.51,0,0,0,3.48-.61,4.44,4.44,0,0,0,2-1.66A4.39,4.39,0,0,0,264.12,417.81Z"/><path class="cls-1" d="M276,413.78v-.56a18.5,18.5,0,0,1,.92-5.94,13.65,13.65,0,0,1,2.68-4.71,12.09,12.09,0,0,1,4.32-3.13,14.73,14.73,0,0,1,5.89-1.12,14.92,14.92,0,0,1,5.92,1.12,12.19,12.19,0,0,1,4.37,3.13,13.51,13.51,0,0,1,2.69,4.71,18.5,18.5,0,0,1,.92,5.94v.56a18.4,18.4,0,0,1-.92,5.91,13.69,13.69,0,0,1-2.69,4.73,12.1,12.1,0,0,1-4.34,3.12,16.24,16.24,0,0,1-11.8,0,12.05,12.05,0,0,1-4.35-3.12,13.69,13.69,0,0,1-2.69-4.73A18.4,18.4,0,0,1,276,413.78Zm7.79-.56v.56a17,17,0,0,0,.32,3.44,8.89,8.89,0,0,0,1,2.79,5.21,5.21,0,0,0,1.88,1.88,5.55,5.55,0,0,0,2.84.68,5.43,5.43,0,0,0,2.78-.68,5,5,0,0,0,1.87-1.88,9.41,9.41,0,0,0,1-2.79,17,17,0,0,0,.34-3.44v-.56a16.45,16.45,0,0,0-.34-3.37,9.59,9.59,0,0,0-1.06-2.81,5.11,5.11,0,0,0-4.69-2.64,5.21,5.21,0,0,0-2.79.71,5.41,5.41,0,0,0-1.87,1.93,9.3,9.3,0,0,0-1,2.81A16.48,16.48,0,0,0,283.78,413.22Z"/><path class="cls-1" d="M324.24,398.86v5.52h-18v-5.52Zm-5.84,29.25h-7.84V396.27a11,11,0,0,1,1.32-5.61,8.43,8.43,0,0,1,3.7-3.46,12.81,12.81,0,0,1,5.69-1.18,14,14,0,0,1,2.08.15c.67.1,1.31.22,1.95.37l-.09,5.86a7.14,7.14,0,0,0-1.08-.19c-.38,0-.82,0-1.32,0a5.53,5.53,0,0,0-2.39.47,3.32,3.32,0,0,0-1.5,1.39,4.51,4.51,0,0,0-.52,2.25Z"/><path class="cls-1" d="M342.62,398.86v5.52h-17v-5.52Zm-12.81-7.21h7.78V419.3a4.53,4.53,0,0,0,.34,1.94,1.87,1.87,0,0,0,1,.94,4.84,4.84,0,0,0,1.7.25,12.84,12.84,0,0,0,1.31-.06l1-.15,0,5.73a14.26,14.26,0,0,1-2.16.51,15.56,15.56,0,0,1-2.57.19,10.84,10.84,0,0,1-4.47-.85,6.06,6.06,0,0,1-2.93-2.75,10.31,10.31,0,0,1-1-5Z"/><path class="cls-1" d="M352.3,398.86l4.35,21.65.41,7.6h-4.87l-7.4-29.25Zm3.08,21.68,6.08-21.68h5l-1.6,8.52-6.08,20.73H354.6Zm11.7-21.68,6.06,21.52.84,7.73h-4.16l-6.09-20.71-1.54-8.54Zm4.9,21.3,4.24-21.3h7.54l-7.4,29.25h-4.84Z"/><path class="cls-1" d="M404.5,410.3l.05,4.4H400.2a9.27,9.27,0,0,0-2.68.35,5.13,5.13,0,0,0-1.86,1,3.79,3.79,0,0,0-1.07,1.47,4.78,4.78,0,0,0-.34,1.84,3.5,3.5,0,0,0,.46,1.8,3.16,3.16,0,0,0,1.32,1.24,4.37,4.37,0,0,0,2,.45,6.46,6.46,0,0,0,3.06-.7,5.83,5.83,0,0,0,2-1.73,3.66,3.66,0,0,0,.74-2l2.06,3.3a13.52,13.52,0,0,1-1.18,2.29,10.56,10.56,0,0,1-1.88,2.24,9.1,9.1,0,0,1-2.73,1.7,9.83,9.83,0,0,1-3.78.66,11.11,11.11,0,0,1-5-1.12,9,9,0,0,1-3.57-3.11,8,8,0,0,1-1.31-4.53,9.33,9.33,0,0,1,.86-4.08,8,8,0,0,1,2.56-3,12.13,12.13,0,0,1,4.23-1.87,24.62,24.62,0,0,1,5.89-.63Zm-1,11.21v-13a5.9,5.9,0,0,0-.46-2.42,3.48,3.48,0,0,0-1.42-1.59,4.91,4.91,0,0,0-2.47-.56,5.34,5.34,0,0,0-2.25.44,3.36,3.36,0,0,0-1.46,1.27,3.62,3.62,0,0,0-.51,1.94h-7.79A7.54,7.54,0,0,1,388,404a8.89,8.89,0,0,1,2.51-3,12.52,12.52,0,0,1,3.94-2,17,17,0,0,1,5.12-.73,15.15,15.15,0,0,1,6.05,1.14,9.3,9.3,0,0,1,4.18,3.4,10,10,0,0,1,1.53,5.68v12.51a22.13,22.13,0,0,0,.29,3.94,10.38,10.38,0,0,0,.87,2.66v.46H404.6a10.9,10.9,0,0,1-.85-3A23,23,0,0,1,403.47,421.51Z"/><path class="cls-1" d="M425.09,405.24v22.87h-7.78V398.86h7.32Zm8.81-6.57-.13,7.22-1.37-.15c-.53,0-1-.07-1.44-.07a8.65,8.65,0,0,0-2.85.42,5.15,5.15,0,0,0-2,1.22,4.85,4.85,0,0,0-1.19,2,9.73,9.73,0,0,0-.45,2.67l-1.57-.49a22.53,22.53,0,0,1,.57-5.23,14.21,14.21,0,0,1,1.66-4.18,8.06,8.06,0,0,1,2.69-2.75,6.88,6.88,0,0,1,3.65-1,8.69,8.69,0,0,1,1.33.1A5.49,5.49,0,0,1,433.9,398.67Z"/><path class="cls-1" d="M450.53,428.65a16.15,16.15,0,0,1-6.11-1.09A13.15,13.15,0,0,1,437,420a15,15,0,0,1-1-5.5V413.4a18.69,18.69,0,0,1,.94-6.08,14.29,14.29,0,0,1,2.72-4.78,11.93,11.93,0,0,1,4.31-3.12,14.39,14.39,0,0,1,5.73-1.1,13.9,13.9,0,0,1,5.52,1,10.92,10.92,0,0,1,4,2.92,12.72,12.72,0,0,1,2.47,4.53,19.13,19.13,0,0,1,.84,5.85v3.24H439.28V410.7h15.6v-.59a7,7,0,0,0-.58-2.91,4.75,4.75,0,0,0-1.75-2,5.36,5.36,0,0,0-3-.76,5,5,0,0,0-2.65.68,5.12,5.12,0,0,0-1.8,1.89,9.86,9.86,0,0,0-1,2.85,17.41,17.41,0,0,0-.34,3.58v1.09a10.19,10.19,0,0,0,.5,3.24,7.56,7.56,0,0,0,1.43,2.57A6.3,6.3,0,0,0,448,422a7.4,7.4,0,0,0,3,.6,9.47,9.47,0,0,0,3.94-.83,8.47,8.47,0,0,0,3.15-2.5l3.78,4.11a11.49,11.49,0,0,1-2.5,2.54,13.25,13.25,0,0,1-3.8,2A15.44,15.44,0,0,1,450.53,428.65Z"/></svg>