<svg id="Camada_1" data-name="Camada 1" xmlns="http://www.w3.org/2000/svg" viewBox="0 0 500 500"><defs><style>.cls-1{fill:#424242;}.cls-2{fill:#0071bc;}.cls-3{fill:#444;}</style></defs><path class="cls-1" d="M72.94,424.2a26.32,26.32,0,0,1-11.23,2.11c-12,0-21-7.92-21-22.49,0-13.91,9-23.34,22.2-23.34,5.3,0,8.64,1.19,10.09,2l-1.32,4.68a19.33,19.33,0,0,0-8.58-1.85c-10,0-16.59,6.67-16.59,18.33,0,10.88,6,17.87,16.34,17.87a21.12,21.12,0,0,0,8.95-1.84Z"/><path class="cls-1" d="M82.91,410.75c.12,7.84,4.92,11.07,10.47,11.07a19.22,19.22,0,0,0,8.45-1.65l1,4.16a23.88,23.88,0,0,1-10.16,2c-9.4,0-15-6.47-15-16.09S83,393,91.93,393c10,0,12.61,9.16,12.61,15a21.59,21.59,0,0,1-.19,2.71Zm16.27-4.16c.06-3.69-1.45-9.43-7.7-9.43-5.61,0-8.07,5.41-8.51,9.43Z"/><path class="cls-1" d="M112.3,402.37c0-3.29-.06-6-.25-8.64H117l.31,5.28h.13a11.15,11.15,0,0,1,10.09-6c4.23,0,10.79,2.64,10.79,13.58v19.06h-5.55v-18.4c0-5.14-1.83-9.43-7.07-9.43a8,8,0,0,0-7.44,5.94,8.71,8.71,0,0,0-.38,2.7v19.19H112.3Z"/><path class="cls-1" d="M154.62,384.57v9.16h7.95v4.42h-7.95v17.21c0,4,1.08,6.2,4.17,6.2a11.64,11.64,0,0,0,3.21-.4l.26,4.35a12.91,12.91,0,0,1-4.92.8,7.55,7.55,0,0,1-6-2.44c-1.57-1.72-2.14-4.55-2.14-8.31V398.15h-4.73v-4.42h4.73v-7.64Z"/><path class="cls-1" d="M169.7,403.69c0-3.76-.06-7-.25-10h4.85l.19,6.27h.26c1.38-4.29,4.73-7,8.45-7a5.75,5.75,0,0,1,1.57.2v5.47a8,8,0,0,0-1.89-.2c-3.91,0-6.68,3.1-7.44,7.45a16.68,16.68,0,0,0-.25,2.71v17H169.7Z"/><path class="cls-1" d="M207.8,425.65l-.44-4h-.19a11.23,11.23,0,0,1-9.34,4.75,8.88,8.88,0,0,1-9.33-9.16c0-7.72,6.56-11.94,18.35-11.87v-.66c0-2.64-.69-7.39-6.94-7.39a14.7,14.7,0,0,0-7.94,2.38l-1.27-3.83a18.41,18.41,0,0,1,10-2.83c9.34,0,11.61,6.66,11.61,13.05V418a48,48,0,0,0,.5,7.65ZM207,409.36c-6.06-.13-12.93,1-12.93,7.19,0,3.76,2.39,5.54,5.23,5.54a7.63,7.63,0,0,0,7.38-5.34,6.37,6.37,0,0,0,.32-1.85Z"/><path class="cls-1" d="M222.18,378.83h5.55v46.82h-5.55Z"/><path class="cls-2" d="M237.38,418.66a18.86,18.86,0,0,0,9.84,2.9c5.61,0,8.89-3.1,8.89-7.58,0-4.16-2.27-6.53-8-8.84-6.94-2.57-11.23-6.33-11.23-12.59,0-6.93,5.49-12.07,13.76-12.07a18.68,18.68,0,0,1,9.4,2.18l-1.52,4.68a16.36,16.36,0,0,0-8.07-2.11c-5.81,0-8,3.63-8,6.66,0,4.15,2.58,6.2,8.45,8.57,7.19,2.9,10.85,6.53,10.85,13.05,0,6.86-4.86,12.8-14.89,12.8-4.1,0-8.58-1.26-10.85-2.84Z"/><path class="cls-2" d="M297.93,409.43c0,11.8-7.82,16.94-15.2,16.94-8.26,0-14.63-6.33-14.63-16.42,0-10.68,6.68-16.94,15.14-16.94C292,393,297.93,399.67,297.93,409.43Zm-24.22.33c0,7,3.85,12.26,9.27,12.26s9.28-5.21,9.28-12.4c0-5.4-2.59-12.26-9.15-12.26S273.71,403.69,273.71,409.76Z"/><path class="cls-2" d="M306.39,425.65v-27.5H302.1v-4.42h4.29v-1.51c0-4.48.94-8.57,3.53-11.14a10.37,10.37,0,0,1,7.44-3,12.39,12.39,0,0,1,4.73.92l-.75,4.49a7.94,7.94,0,0,0-3.54-.73c-4.73,0-5.93,4.35-5.93,9.23v1.71h7.38v4.42h-7.38v27.5Z"/><path class="cls-2" d="M332.5,384.57v9.16h7.95v4.42H332.5v17.21c0,4,1.07,6.2,4.16,6.2a11.73,11.73,0,0,0,3.22-.4l.25,4.35a12.83,12.83,0,0,1-4.92.8,7.51,7.51,0,0,1-6-2.44c-1.58-1.72-2.15-4.55-2.15-8.31V398.15h-4.73v-4.42h4.73v-7.64Z"/><path class="cls-2" d="M350.35,393.73l4,16.22c.88,3.56,1.7,6.86,2.27,10.16h.19c.69-3.23,1.7-6.66,2.71-10.09l5-16.29h4.67l4.73,16c1.14,3.82,2,7.19,2.71,10.42h.19a100.5,100.5,0,0,1,2.34-10.35l4.35-16H389l-9.84,31.92h-5.05l-4.67-15.23c-1.07-3.56-1.95-6.73-2.71-10.49h-.13a96.51,96.51,0,0,1-2.77,10.55l-4.92,15.17h-5.05l-9.21-31.92Z"/><path class="cls-2" d="M412.1,425.65l-.44-4h-.19a11.2,11.2,0,0,1-9.33,4.75,8.89,8.89,0,0,1-9.34-9.16c0-7.72,6.56-11.94,18.36-11.87v-.66c0-2.64-.7-7.39-6.94-7.39a14.73,14.73,0,0,0-8,2.38L395,395.84A18.36,18.36,0,0,1,405,393c9.33,0,11.6,6.66,11.6,13.05V418a46.77,46.77,0,0,0,.51,7.65Zm-.82-16.29c-6-.13-12.93,1-12.93,7.19,0,3.76,2.4,5.54,5.24,5.54a7.64,7.64,0,0,0,7.38-5.34,6.35,6.35,0,0,0,.31-1.85Z"/><path class="cls-2" d="M426.48,403.69c0-3.76-.06-7-.25-10h4.86l.19,6.27h.25c1.39-4.29,4.73-7,8.45-7a5.88,5.88,0,0,1,1.58.2v5.47a8.12,8.12,0,0,0-1.89-.2c-3.92,0-6.69,3.1-7.45,7.45a17.89,17.89,0,0,0-.25,2.71v17h-5.49Z"/><path class="cls-2" d="M450.45,410.75c.13,7.84,4.92,11.07,10.47,11.07a19.26,19.26,0,0,0,8.46-1.65l.94,4.16a23.82,23.82,0,0,1-10.15,2c-9.4,0-15-6.47-15-16.09S450.58,393,459.47,393c10,0,12.62,9.16,12.62,15a23.72,23.72,0,0,1-.19,2.71Zm16.28-4.16c.06-3.69-1.45-9.43-7.7-9.43-5.61,0-8.07,5.41-8.52,9.43Z"/><path class="cls-3" d="M93.85,439.22l-6.5,17.5H86.27l6.87-18.28H94Zm4.55,11.23v.95H89v-.95Zm1.61,6.27-6.49-17.5-.13-.78h.83l6.88,18.28Z"/><path class="cls-3" d="M109.62,446v10.71h-1V443.13h1Zm-.17,2.87-.5-.57a7.16,7.16,0,0,1,.51-2.06,6,6,0,0,1,1.09-1.73,5.18,5.18,0,0,1,1.62-1.2,4.89,4.89,0,0,1,2.09-.44,5.77,5.77,0,0,1,1.83.27,3.28,3.28,0,0,1,1.37.85,3.66,3.66,0,0,1,.87,1.48,7.13,7.13,0,0,1,.3,2.2v9h-1v-9a5.11,5.11,0,0,0-.45-2.38,2.55,2.55,0,0,0-1.25-1.18,4.66,4.66,0,0,0-1.85-.35,3.93,3.93,0,0,0-2.09.53,4.7,4.7,0,0,0-1.42,1.35,6.59,6.59,0,0,0-.81,1.67A7.31,7.31,0,0,0,109.45,448.88Zm9.17-1.11-.68-.24a5.13,5.13,0,0,1,.52-1.75,5.22,5.22,0,0,1,2.74-2.51,5.3,5.3,0,0,1,2.07-.39,5.69,5.69,0,0,1,1.87.29,3.14,3.14,0,0,1,1.38.89,4.06,4.06,0,0,1,.86,1.55,7.73,7.73,0,0,1,.3,2.3v8.81h-1v-8.83a5.52,5.52,0,0,0-.46-2.5,2.55,2.55,0,0,0-1.25-1.24,4.38,4.38,0,0,0-1.86-.35,4.66,4.66,0,0,0-1.94.41,4.44,4.44,0,0,0-1.39,1,5.09,5.09,0,0,0-.84,1.29A3.72,3.72,0,0,0,118.62,447.77Z"/><path class="cls-3" d="M145.56,449l0,.87h-3.32a9.56,9.56,0,0,0-2.24.24,5.36,5.36,0,0,0-1.68.67,3.2,3.2,0,0,0-1.06,1,2.63,2.63,0,0,0-.36,1.36,2.56,2.56,0,0,0,.41,1.43,3,3,0,0,0,1.17,1,3.84,3.84,0,0,0,1.74.38,5.89,5.89,0,0,0,2.41-.47,5.19,5.19,0,0,0,1.76-1.28,4.89,4.89,0,0,0,1-1.88l.44.73a5.36,5.36,0,0,1-.66,1.34,5.06,5.06,0,0,1-1.17,1.24,6.12,6.12,0,0,1-1.68.9,6.55,6.55,0,0,1-2.2.35,5,5,0,0,1-2.25-.48,3.71,3.71,0,0,1-1.49-1.33,3.64,3.64,0,0,1-.53-1.94,3.43,3.43,0,0,1,.43-1.72,3.85,3.85,0,0,1,1.24-1.34,6.15,6.15,0,0,1,2-.86,10.91,10.91,0,0,1,2.61-.29Zm-.32,5.21v-7a3.55,3.55,0,0,0-.45-1.83,3,3,0,0,0-1.32-1.17,4.86,4.86,0,0,0-2.12-.41,5,5,0,0,0-2.09.41,3.5,3.5,0,0,0-1.45,1.11,2.5,2.5,0,0,0-.53,1.57l-1,0a3.28,3.28,0,0,1,.37-1.49,4,4,0,0,1,1.06-1.27,5.06,5.06,0,0,1,1.62-.89,6.12,6.12,0,0,1,2.05-.33,6.27,6.27,0,0,1,2.53.49,3.74,3.74,0,0,1,1.71,1.45,4.4,4.4,0,0,1,.62,2.41v6.7a10.37,10.37,0,0,0,.1,1.47,5.36,5.36,0,0,0,.28,1.19v.13h-1.1a6.42,6.42,0,0,1-.2-1.17A12.23,12.23,0,0,1,145.24,454.22Z"/><path class="cls-3" d="M156.59,445.45v11.27h-1V443.13h1Zm5.17-2.41-.06.9-.45-.06a3.64,3.64,0,0,0-.48,0,3.93,3.93,0,0,0-1.89.43,3.8,3.8,0,0,0-1.35,1.17,5,5,0,0,0-.82,1.72,7.82,7.82,0,0,0-.29,2.09l-.49.1a10.93,10.93,0,0,1,.29-2.57,6.44,6.44,0,0,1,.9-2.06,4.13,4.13,0,0,1,1.52-1.36,4.59,4.59,0,0,1,2.16-.49,3.12,3.12,0,0,1,.55.05A1.59,1.59,0,0,1,161.76,443Z"/><path class="cls-3" d="M168.16,450.17v-.48a8.51,8.51,0,0,1,.43-2.74,6.5,6.5,0,0,1,1.23-2.15,5.45,5.45,0,0,1,1.89-1.41,5.7,5.7,0,0,1,2.44-.51,5.81,5.81,0,0,1,2.45.51,5.49,5.49,0,0,1,1.9,1.41,6.31,6.31,0,0,1,1.22,2.15,8.25,8.25,0,0,1,.43,2.74v.48a8.23,8.23,0,0,1-.43,2.73,6.36,6.36,0,0,1-1.21,2.15,5.61,5.61,0,0,1-1.89,1.42,6.25,6.25,0,0,1-4.9,0,5.74,5.74,0,0,1-1.9-1.42,6.4,6.4,0,0,1-1.23-2.15A8.49,8.49,0,0,1,168.16,450.17Zm1-.48v.48a7.54,7.54,0,0,0,.33,2.24,5.89,5.89,0,0,0,1,1.88,4.69,4.69,0,0,0,7.38,0,6.07,6.07,0,0,0,1-1.88,7.55,7.55,0,0,0,.34-2.24v-.48a7.35,7.35,0,0,0-.34-2.21,5.89,5.89,0,0,0-1-1.88,4.76,4.76,0,0,0-1.57-1.32,4.92,4.92,0,0,0-4.24,0,5,5,0,0,0-1.57,1.32,5.89,5.89,0,0,0-1,1.88A7.34,7.34,0,0,0,169.17,449.69Z"/><path class="cls-3" d="M213.54,438.44v18.28h-1l-11.3-16.53v16.53h-1V438.44h1L212.53,455V438.44Z"/><path class="cls-3" d="M228.24,457a5.72,5.72,0,0,1-4.28-1.89,6.51,6.51,0,0,1-1.28-2.13,7.8,7.8,0,0,1-.45-2.7v-.55a8.17,8.17,0,0,1,.45-2.77,7.16,7.16,0,0,1,1.25-2.16,5.74,5.74,0,0,1,1.83-1.4,5.22,5.22,0,0,1,2.22-.49,5.16,5.16,0,0,1,2.15.44,5,5,0,0,1,1.66,1.23,5.62,5.62,0,0,1,1.06,1.89,7.67,7.67,0,0,1,.36,2.41v.84H222.85v-.92h9.37v-.16a5.63,5.63,0,0,0-.52-2.37,4.42,4.42,0,0,0-1.45-1.77,3.81,3.81,0,0,0-2.27-.67,4.14,4.14,0,0,0-1.94.45,4.41,4.41,0,0,0-1.5,1.25,5.73,5.73,0,0,0-1,1.87,7.59,7.59,0,0,0-.34,2.33v.55a6.66,6.66,0,0,0,.38,2.26,5.79,5.79,0,0,0,1,1.85,4.73,4.73,0,0,0,1.6,1.25,4.49,4.49,0,0,0,2,.46,5.4,5.4,0,0,0,2.16-.42,4.41,4.41,0,0,0,1.79-1.46l.65.49a5.49,5.49,0,0,1-1.09,1.17,4.93,4.93,0,0,1-1.52.82A6.16,6.16,0,0,1,228.24,457Z"/><path class="cls-3" d="M246.26,443.13V444h-6.5v-.91Zm-4-3.59h1v13.9a3.91,3.91,0,0,0,.27,1.65,1.49,1.49,0,0,0,.72.76,2.32,2.32,0,0,0,1,.19,4.73,4.73,0,0,0,.67,0l.62-.09.09.88a3,3,0,0,1-.72.13,7.78,7.78,0,0,1-.78.05,3.51,3.51,0,0,1-1.49-.31,2.13,2.13,0,0,1-1-1.09,5.16,5.16,0,0,1-.35-2.13Z"/><path class="cls-3" d="M259.59,443.13V444h-6.51v-.91Zm-4-3.59h1v13.9a3.91,3.91,0,0,0,.27,1.65,1.51,1.51,0,0,0,.71.76,2.38,2.38,0,0,0,1,.19,4.79,4.79,0,0,0,.68,0l.62-.09.08.88a2.91,2.91,0,0,1-.71.13,7.78,7.78,0,0,1-.78.05,3.44,3.44,0,0,1-1.49-.31,2.13,2.13,0,0,1-1-1.09,5.14,5.14,0,0,1-.36-2.13Z"/><path class="cls-3" d="M266.89,450.17v-.48a8.25,8.25,0,0,1,.43-2.74,6.65,6.65,0,0,1,1.22-2.15,5.45,5.45,0,0,1,1.89-1.41,6.12,6.12,0,0,1,4.89,0,5.53,5.53,0,0,1,1.91,1.41,6.48,6.48,0,0,1,1.22,2.15,8.51,8.51,0,0,1,.43,2.74v.48a8.49,8.49,0,0,1-.43,2.73,6.38,6.38,0,0,1-1.22,2.15,5.61,5.61,0,0,1-1.89,1.42,6.23,6.23,0,0,1-4.89,0,5.55,5.55,0,0,1-1.9-1.42,6.4,6.4,0,0,1-1.23-2.15A8.23,8.23,0,0,1,266.89,450.17Zm1-.48v.48a7.54,7.54,0,0,0,.33,2.24,6.12,6.12,0,0,0,1,1.88,4.46,4.46,0,0,0,1.57,1.29,4.57,4.57,0,0,0,2.13.47,4.52,4.52,0,0,0,2.11-.47,4.43,4.43,0,0,0,1.56-1.29,5.89,5.89,0,0,0,1-1.88,7.54,7.54,0,0,0,.33-2.24v-.48a7.34,7.34,0,0,0-.33-2.21,6.1,6.1,0,0,0-1-1.88,4.76,4.76,0,0,0-1.57-1.32,4.92,4.92,0,0,0-4.24,0,4.86,4.86,0,0,0-1.57,1.32,5.89,5.89,0,0,0-1,1.88A7.34,7.34,0,0,0,267.89,449.69Z"/><path class="cls-3" d="M309.63,452.29a3.78,3.78,0,0,0-.27-1.47,3.08,3.08,0,0,0-.91-1.15,7.14,7.14,0,0,0-1.67-.95,19.53,19.53,0,0,0-2.53-.85,24.26,24.26,0,0,1-2.49-.82,8.47,8.47,0,0,1-1.9-1,4,4,0,0,1-1.2-1.37,4.12,4.12,0,0,1-.41-1.89,4,4,0,0,1,.45-1.9,4.22,4.22,0,0,1,1.27-1.43,6.11,6.11,0,0,1,1.94-.92,8.87,8.87,0,0,1,2.43-.32,7,7,0,0,1,3.22.7,5.3,5.3,0,0,1,2.16,1.92,5.08,5.08,0,0,1,.78,2.8h-1a4.31,4.31,0,0,0-.63-2.31,4.39,4.39,0,0,0-1.78-1.6,6,6,0,0,0-2.73-.58,6.93,6.93,0,0,0-2.77.5,4.14,4.14,0,0,0-1.72,1.32,3,3,0,0,0-.59,1.79,3.35,3.35,0,0,0,.26,1.3,2.93,2.93,0,0,0,.86,1.1,6.29,6.29,0,0,0,1.62.95,18.8,18.8,0,0,0,2.55.86,20.36,20.36,0,0,1,2.53.82,8.59,8.59,0,0,1,1.93,1.07,4,4,0,0,1,1.65,3.43,4.15,4.15,0,0,1-.47,2,4.37,4.37,0,0,1-1.33,1.48,6,6,0,0,1-2,.93,9.53,9.53,0,0,1-2.44.31,10.36,10.36,0,0,1-2.4-.29,7.1,7.1,0,0,1-2.19-.93,4.92,4.92,0,0,1-1.59-1.68,5,5,0,0,1-.6-2.54h1a4.14,4.14,0,0,0,.53,2.16,4,4,0,0,0,1.38,1.38,6,6,0,0,0,1.87.74,9.07,9.07,0,0,0,2,.23,7.27,7.27,0,0,0,2.7-.47,4.23,4.23,0,0,0,1.83-1.32A3.09,3.09,0,0,0,309.63,452.29Z"/><path class="cls-3" d="M318,450.17v-.48a8.25,8.25,0,0,1,.43-2.74,6.65,6.65,0,0,1,1.22-2.15,5.45,5.45,0,0,1,1.89-1.41,6.12,6.12,0,0,1,4.89,0,5.4,5.4,0,0,1,1.9,1.41,6.33,6.33,0,0,1,1.23,2.15,8.51,8.51,0,0,1,.42,2.74v.48a8.5,8.5,0,0,1-.42,2.73,6.38,6.38,0,0,1-1.22,2.15,5.61,5.61,0,0,1-1.89,1.42,6.23,6.23,0,0,1-4.89,0,5.55,5.55,0,0,1-1.9-1.42,6.4,6.4,0,0,1-1.23-2.15A8.23,8.23,0,0,1,318,450.17Zm1-.48v.48a7.54,7.54,0,0,0,.33,2.24,6.12,6.12,0,0,0,1,1.88,4.46,4.46,0,0,0,1.57,1.29,5,5,0,0,0,4.24,0,4.43,4.43,0,0,0,1.56-1.29,6.1,6.1,0,0,0,1-1.88,7.54,7.54,0,0,0,.33-2.24v-.48a7.34,7.34,0,0,0-.33-2.21,6.1,6.1,0,0,0-1-1.88,4.76,4.76,0,0,0-1.57-1.32,4.58,4.58,0,0,0-2.13-.48,4.5,4.5,0,0,0-2.11.48,4.76,4.76,0,0,0-1.57,1.32,5.69,5.69,0,0,0-1,1.88A7.34,7.34,0,0,0,319,449.69Z"/><path class="cls-3" d="M339.49,437.44v19.28h-1V437.44Z"/><path class="cls-3" d="M358.07,451.27l.66,0a8.29,8.29,0,0,1-.31,2.29,4.92,4.92,0,0,1-1,1.81,4.16,4.16,0,0,1-1.66,1.2,6.17,6.17,0,0,1-2.43.43,5.56,5.56,0,0,1-1.82-.28,3.59,3.59,0,0,1-1.42-.9,4.12,4.12,0,0,1-.91-1.61,7.66,7.66,0,0,1-.32-2.4v-8.65h1v8.68a6.45,6.45,0,0,0,.27,2,3.35,3.35,0,0,0,.75,1.3,2.78,2.78,0,0,0,1.11.71,4.2,4.2,0,0,0,1.4.22,5,5,0,0,0,2.78-.68,3.73,3.73,0,0,0,1.45-1.77A6.41,6.41,0,0,0,358.07,451.27Zm-.17,2.31V443.13h1v13.59h-1Z"/><path class="cls-3" d="M373,456.05a5,5,0,0,0,1.92-.37,3.77,3.77,0,0,0,1.52-1.15,3.43,3.43,0,0,0,.69-2h1a4.3,4.3,0,0,1-.78,2.34,4.77,4.77,0,0,1-1.85,1.53,6,6,0,0,1-4.9,0,4.94,4.94,0,0,1-1.78-1.42,6.49,6.49,0,0,1-1.08-2.15,9.35,9.35,0,0,1-.37-2.71v-.53a9.23,9.23,0,0,1,.37-2.7,6.54,6.54,0,0,1,1.08-2.16,4.86,4.86,0,0,1,1.77-1.41,5.43,5.43,0,0,1,2.4-.51,5.67,5.67,0,0,1,2.51.56,4.75,4.75,0,0,1,1.85,1.62,5,5,0,0,1,.78,2.59h-1a4.14,4.14,0,0,0-.64-2.1,3.72,3.72,0,0,0-1.51-1.3,4.55,4.55,0,0,0-2-.45,4.5,4.5,0,0,0-2.08.46,4.16,4.16,0,0,0-1.45,1.28,5.57,5.57,0,0,0-.82,1.87,9.13,9.13,0,0,0-.27,2.25v.53a9.23,9.23,0,0,0,.27,2.27,5.61,5.61,0,0,0,.82,1.86,4,4,0,0,0,1.45,1.27A4.47,4.47,0,0,0,373,456.05Zm-.42.79h.86l-.14.91a3.31,3.31,0,0,1,1.49.54,1.78,1.78,0,0,1,.67,1.58,2.09,2.09,0,0,1-.25,1,2.22,2.22,0,0,1-.71.76,3.72,3.72,0,0,1-1.14.5,5.84,5.84,0,0,1-1.52.17l-.09-.75a5.21,5.21,0,0,0,1.3-.17,2.76,2.76,0,0,0,1.08-.55,1.36,1.36,0,0,0,.17-1.77,1.6,1.6,0,0,0-.78-.45,6.43,6.43,0,0,0-1.28-.21Z"/><path class="cls-3" d="M385.49,450.17v-.48a8.51,8.51,0,0,1,.43-2.74,6.5,6.5,0,0,1,1.23-2.15,5.45,5.45,0,0,1,1.89-1.41,5.7,5.7,0,0,1,2.44-.51,5.78,5.78,0,0,1,2.45.51,5.49,5.49,0,0,1,1.9,1.41,6.31,6.31,0,0,1,1.22,2.15,8.25,8.25,0,0,1,.43,2.74v.48a8.23,8.23,0,0,1-.43,2.73,6.36,6.36,0,0,1-1.21,2.15,5.61,5.61,0,0,1-1.89,1.42,6.25,6.25,0,0,1-4.9,0,5.61,5.61,0,0,1-1.89-1.42,6.25,6.25,0,0,1-1.24-2.15A8.49,8.49,0,0,1,385.49,450.17Zm1-.48v.48a7.54,7.54,0,0,0,.33,2.24,6.1,6.1,0,0,0,1,1.88,4.69,4.69,0,0,0,7.38,0,6.07,6.07,0,0,0,1-1.88,7.24,7.24,0,0,0,.34-2.24v-.48a7,7,0,0,0-.34-2.21,5.89,5.89,0,0,0-1-1.88,4.76,4.76,0,0,0-1.57-1.32,4.92,4.92,0,0,0-4.24,0,4.82,4.82,0,0,0-1.56,1.32,5.72,5.72,0,0,0-1,1.88A7.67,7.67,0,0,0,386.5,449.69ZM394.82,438l.87,0a2.71,2.71,0,0,1-.31,1.3,2.24,2.24,0,0,1-.84.86,2.22,2.22,0,0,1-1.16.31,2.41,2.41,0,0,1-1.11-.22,5.14,5.14,0,0,1-.79-.52,7.44,7.44,0,0,0-.73-.52,1.83,1.83,0,0,0-.93-.23,1.49,1.49,0,0,0-1,.39,1.52,1.52,0,0,0-.43,1.15l-.86,0a2.47,2.47,0,0,1,.31-1.27,2.16,2.16,0,0,1,.83-.84,2.32,2.32,0,0,1,1.17-.3,2.35,2.35,0,0,1,1.07.22,5.2,5.2,0,0,1,.82.52,5.39,5.39,0,0,0,.76.52,1.77,1.77,0,0,0,.9.23,1.39,1.39,0,0,0,1-.43A1.56,1.56,0,0,0,394.82,438Z"/><path class="cls-3" d="M410.87,457a5.72,5.72,0,0,1-4.28-1.89,6.51,6.51,0,0,1-1.28-2.13,7.8,7.8,0,0,1-.45-2.7v-.55a8.17,8.17,0,0,1,.45-2.77,7.16,7.16,0,0,1,1.25-2.16,5.74,5.74,0,0,1,1.83-1.4,5.22,5.22,0,0,1,2.22-.49,5.16,5.16,0,0,1,2.15.44,5,5,0,0,1,1.66,1.23,5.62,5.62,0,0,1,1.06,1.89,7.67,7.67,0,0,1,.36,2.41v.84H405.48v-.92h9.37v-.16a5.63,5.63,0,0,0-.52-2.37,4.42,4.42,0,0,0-1.45-1.77,3.81,3.81,0,0,0-2.27-.67,4.14,4.14,0,0,0-1.94.45,4.41,4.41,0,0,0-1.5,1.25,5.92,5.92,0,0,0-1,1.87,7.59,7.59,0,0,0-.34,2.33v.55a6.66,6.66,0,0,0,.38,2.26,5.79,5.79,0,0,0,1.05,1.85,4.83,4.83,0,0,0,1.6,1.25,4.49,4.49,0,0,0,2,.46,5.4,5.4,0,0,0,2.16-.42,4.41,4.41,0,0,0,1.79-1.46l.65.49a5.49,5.49,0,0,1-1.09,1.17,4.82,4.82,0,0,1-1.52.82A6.16,6.16,0,0,1,410.87,457Z"/><path class="cls-3" d="M432.36,453.34a2.5,2.5,0,0,0-.32-1.19,3.23,3.23,0,0,0-1.17-1.11,8.34,8.34,0,0,0-2.46-.86,16.67,16.67,0,0,1-2-.56,5.38,5.38,0,0,1-1.46-.73,2.81,2.81,0,0,1-.89-1,3.26,3.26,0,0,1-.29-1.45,3.09,3.09,0,0,1,.31-1.37,3.37,3.37,0,0,1,.92-1.12,4.65,4.65,0,0,1,1.47-.76,6.33,6.33,0,0,1,1.93-.28,6.22,6.22,0,0,1,2.64.51,4,4,0,0,1,1.69,1.4,3.63,3.63,0,0,1,.59,2h-1a2.65,2.65,0,0,0-.45-1.48,3.29,3.29,0,0,0-1.32-1.13,4.91,4.91,0,0,0-2.14-.43,4.84,4.84,0,0,0-2.09.39,2.82,2.82,0,0,0-1.17,1,2.28,2.28,0,0,0-.37,1.22,2.71,2.71,0,0,0,.15.91,1.78,1.78,0,0,0,.55.77,4.65,4.65,0,0,0,1.2.67,13.29,13.29,0,0,0,2,.6,11.48,11.48,0,0,1,2.66.88,3.9,3.9,0,0,1,1.52,1.27,3.52,3.52,0,0,1,.15,3.3,3.37,3.37,0,0,1-1,1.16,4.72,4.72,0,0,1-1.54.76,7.41,7.41,0,0,1-2,.26,6.84,6.84,0,0,1-2.83-.53A4.15,4.15,0,0,1,423.9,455a3.26,3.26,0,0,1-.6-1.89h1a2.66,2.66,0,0,0,.73,1.75,3.62,3.62,0,0,0,1.58.91,7.14,7.14,0,0,0,1.87.26,5.2,5.2,0,0,0,2.13-.39,3.33,3.33,0,0,0,1.3-1A2.24,2.24,0,0,0,432.36,453.34Z"/><path class="cls-2" d="M248.31,41.72c2.88-6.84.86-15.36-4.51-19s-12.05-1.09-14.93,5.75L201.38,93.87h25Z"/><path class="cls-2" d="M300.72,93.87h25L298.25,28.44c-2.88-6.84-9.56-9.42-14.93-5.75s-7.39,12.19-4.51,19Z"/><circle class="cls-2" cx="254.87" cy="153.05" r="9.66"/><circle class="cls-2" cx="200.37" cy="276.9" r="9.66" transform="translate(-94.93 449) rotate(-84.35)"/><path class="cls-2" d="M394.52,115.79l-7.36-5.46a28.85,28.85,0,0,0-14-3.71H154c-23.54,0-40.55,28.7-34.13,57.57l30.67,137.89c4.32,19.47,18.26,32.9,34.12,32.9h157.9c15.87,0,29.8-13.43,34.13-32.9L407.3,164.19C411.5,145.3,405.64,126.55,394.52,115.79ZM220.57,220.68V220h.29l23-53.81a17.14,17.14,0,1,1,11,4,16.63,16.63,0,0,1-2.93-.27L231,220h43.85l-6.22-14.45,4.86-11.23,14.85,34.56h-4.47v0H217.06Zm113.65,60.81H300.1l-9.26-23.88H247.15l-10,23.88H216.88a17.16,17.16,0,1,1,.07-8.89h13.79l10.15-23.89h55.65l10,23.89H330.4L277.31,149.07l9.67,0,56.93,132.46Z"/></svg>