<svg id="Camada_1" data-name="Camada 1" xmlns="http://www.w3.org/2000/svg" viewBox="0 0 1387.5 495.26"><defs><style>.cls-1{fill:#0071bc;}.cls-2{fill:#444;}.cls-3{fill:#424242;}</style></defs><path class="cls-1" d="M181.76,114.83c2.87-6.84.85-15.35-4.51-19s-12.05-1.09-14.92,5.75L134.85,167h25Z"/><path class="cls-1" d="M234.14,167h25l-27.48-65.39c-2.87-6.84-9.55-9.41-14.92-5.75s-7.38,12.18-4.51,19Z"/><circle class="cls-1" cx="188.31" cy="226.11" r="9.65"/><circle class="cls-1" cx="133.83" cy="349.9" r="9.65" transform="translate(-227.55 448.6) rotate(-84.35)"/><path class="cls-1" d="M327.89,188.87l-7.35-5.46a29,29,0,0,0-14-3.71H87.44c-23.52,0-40.53,28.68-34.11,57.54L84,375.07C88.3,394.52,102.23,408,118.09,408H275.91c15.86,0,29.79-13.43,34.11-32.88l30.65-137.83C344.87,218.37,339,199.62,327.89,188.87ZM154,293.71V293h.3l23-53.78a17.14,17.14,0,1,1,11,4,17.73,17.73,0,0,1-2.93-.26l-21,50h43.82L202,278.58l4.85-11.22,14.84,34.54h-4.46v0H150.52Zm113.6,60.78h-34.1l-9.25-23.87H180.6l-10,23.87H150.34a17.16,17.16,0,1,1,.07-8.89H164.2l10.14-23.87H230l10,23.87H263.8L210.74,222.13l9.66,0,56.91,132.4Z"/><rect class="cls-2" x="388.38" y="296.92" width="974.47" height="3.67"/><path class="cls-3" d="M446.94,201.77l-29,84.17H400.39l36.55-97.11h11.2Zm22.88,48.15V263.2H417V249.92Zm1.4,36-29.08-84.17-1.27-12.94h11.28l36.68,97.11Z"/><path class="cls-3" d="M513,228.45v57.49H496.9V213.77H512Zm-2.6,18.74-5.47-.07a48.42,48.42,0,0,1,1.87-13.8,33.38,33.38,0,0,1,5.47-11,24.32,24.32,0,0,1,9-7.27,28.56,28.56,0,0,1,12.44-2.57,27.42,27.42,0,0,1,9,1.43,18.48,18.48,0,0,1,7.13,4.51,20.09,20.09,0,0,1,4.67,7.87,36.19,36.19,0,0,1,1.64,11.6v48.09H540.05V239.25a18,18,0,0,0-1.57-8.27,9.2,9.2,0,0,0-4.46-4.3,16.77,16.77,0,0,0-6.91-1.3,15.9,15.9,0,0,0-7.7,1.73,14.52,14.52,0,0,0-5.17,4.74,21.19,21.19,0,0,0-2.93,6.94A35.85,35.85,0,0,0,510.37,247.19Zm44.75-4.27-7.53,1.67a41.09,41.09,0,0,1,1.83-12.37,31.27,31.27,0,0,1,5.41-10.28,25.31,25.31,0,0,1,8.83-7,27.66,27.66,0,0,1,12.07-2.53,30.43,30.43,0,0,1,9.91,1.5,18.51,18.51,0,0,1,7.44,4.7,20.8,20.8,0,0,1,4.66,8.31,41.28,41.28,0,0,1,1.61,12.3v46.69H583.2V239.19c0-3.65-.52-6.47-1.56-8.48a8.58,8.58,0,0,0-4.44-4.16,18.15,18.15,0,0,0-6.87-1.17,15,15,0,0,0-6.57,1.37,13.52,13.52,0,0,0-4.77,3.8,16.89,16.89,0,0,0-2.9,5.57A23.14,23.14,0,0,0,555.12,242.92Z"/><path class="cls-3" d="M658.91,242.05,659,252H647.5a33,33,0,0,0-7.87.84,16.41,16.41,0,0,0-5.67,2.43,10.51,10.51,0,0,0-3.4,3.87,11.25,11.25,0,0,0-1.13,5.13,10.47,10.47,0,0,0,1.33,5.24,9.24,9.24,0,0,0,3.9,3.7,13.38,13.38,0,0,0,6.24,1.33,17.63,17.63,0,0,0,8.64-2,17.32,17.32,0,0,0,5.83-5,10.77,10.77,0,0,0,2.27-5.64l5.2,7.14a24.68,24.68,0,0,1-2.73,5.87,28.17,28.17,0,0,1-5,6,24.93,24.93,0,0,1-17.31,6.43,27.24,27.24,0,0,1-12.6-2.83,22.1,22.1,0,0,1-8.67-7.67,19.72,19.72,0,0,1-3.14-11,22.77,22.77,0,0,1,2.17-10.17,19.51,19.51,0,0,1,6.4-7.44,31.26,31.26,0,0,1,10.37-4.57,57,57,0,0,1,14-1.57Zm-2.34,29.42V237.05a14.82,14.82,0,0,0-1.4-6.67,9.8,9.8,0,0,0-4.24-4.33,14.69,14.69,0,0,0-7.1-1.54,16,16,0,0,0-6.8,1.34,11.05,11.05,0,0,0-4.47,3.6,8.65,8.65,0,0,0-1.6,5.13H615a17.81,17.81,0,0,1,2.07-8.27,22.23,22.23,0,0,1,6-7.13,30,30,0,0,1,9.41-4.94,39.07,39.07,0,0,1,12.27-1.8,36,36,0,0,1,14.44,2.73,22.3,22.3,0,0,1,9.94,8.24q3.63,5.51,3.63,13.77v32.09a50.91,50.91,0,0,0,.7,8.83,27.74,27.74,0,0,0,2,6.77v1.07H659a27.71,27.71,0,0,1-1.76-6.64A49.57,49.57,0,0,1,656.57,271.47Z"/><path class="cls-3" d="M705.66,227.51v58.43H689.58V213.77h15.34Zm22.08-14.2-.14,14.94a31.11,31.11,0,0,0-3.17-.4c-1.13-.09-2.25-.14-3.36-.14a20.72,20.72,0,0,0-7.27,1.17,13.92,13.92,0,0,0-5.24,3.34,14.66,14.66,0,0,0-3.23,5.23,23.41,23.41,0,0,0-1.34,6.87l-3.67.27A56.2,56.2,0,0,1,701.66,232a33.82,33.82,0,0,1,4-10.2,20,20,0,0,1,6.81-6.87,18,18,0,0,1,9.5-2.47,20.35,20.35,0,0,1,3.17.27A13.87,13.87,0,0,1,727.74,213.31Z"/><path class="cls-3" d="M733,250.66v-1.54a45,45,0,0,1,2.27-14.5A34.4,34.4,0,0,1,741.84,223a29.5,29.5,0,0,1,10.54-7.74,37.48,37.48,0,0,1,28.28,0A29.79,29.79,0,0,1,791.23,223a34.13,34.13,0,0,1,6.6,11.67,45,45,0,0,1,2.27,14.5v1.54a44.74,44.74,0,0,1-2.27,14.47,34.18,34.18,0,0,1-6.6,11.64,30.1,30.1,0,0,1-10.54,7.74,34.23,34.23,0,0,1-14.07,2.76,34.65,34.65,0,0,1-14.17-2.76,29.94,29.94,0,0,1-10.57-7.74,34,34,0,0,1-6.61-11.64A44.74,44.74,0,0,1,733,250.66Zm16.08-1.54v1.54a40.67,40.67,0,0,0,1,9.2,23.57,23.57,0,0,0,3.13,7.61,15.61,15.61,0,0,0,5.47,5.13,16,16,0,0,0,7.94,1.87,15.46,15.46,0,0,0,7.77-1.87,15.69,15.69,0,0,0,5.44-5.13,24.06,24.06,0,0,0,3.16-7.61,39.53,39.53,0,0,0,1-9.2v-1.54a38.8,38.8,0,0,0-1-9.1,24.28,24.28,0,0,0-3.2-7.64,15.89,15.89,0,0,0-5.47-5.23,17.1,17.1,0,0,0-15.67,0,15.71,15.71,0,0,0-5.44,5.23,24.42,24.42,0,0,0-3.13,7.64A39.91,39.91,0,0,0,749.08,249.12Z"/><path class="cls-1" d="M866.27,260.93a14.58,14.58,0,0,0-.91-5.34,10.76,10.76,0,0,0-3.16-4.27,27.19,27.19,0,0,0-6.37-3.76,91.28,91.28,0,0,0-10.44-3.77A107.27,107.27,0,0,1,832.62,239a46.56,46.56,0,0,1-10.17-6.14,25.65,25.65,0,0,1-6.74-8.07,22.39,22.39,0,0,1-2.4-10.57,23.22,23.22,0,0,1,2.5-10.8A24.94,24.94,0,0,1,823,195a34.72,34.72,0,0,1,11-5.54,47.09,47.09,0,0,1,14-2q10.82,0,18.65,4a30,30,0,0,1,12.07,10.74,27.38,27.38,0,0,1,4.23,14.87h-16.6a17.36,17.36,0,0,0-2-8.51,14.36,14.36,0,0,0-6.13-5.83,22.45,22.45,0,0,0-10.38-2.13,23.79,23.79,0,0,0-9.87,1.8A13.2,13.2,0,0,0,832,207.3a12.75,12.75,0,0,0-1.93,6.94,9.83,9.83,0,0,0,1.27,5,13.44,13.44,0,0,0,3.86,4.14,33.39,33.39,0,0,0,6.54,3.56,79.63,79.63,0,0,0,9.27,3.2,95.11,95.11,0,0,1,14.08,5.31,41.08,41.08,0,0,1,10,6.57,24.1,24.1,0,0,1,6,8.3,26.16,26.16,0,0,1,2,10.51,24.21,24.21,0,0,1-2.46,11,23.75,23.75,0,0,1-7,8.34,33.34,33.34,0,0,1-10.94,5.27,51.26,51.26,0,0,1-14.17,1.83,51.84,51.84,0,0,1-13.78-1.86,40.26,40.26,0,0,1-12.3-5.71,28.66,28.66,0,0,1-8.8-9.6,27,27,0,0,1-3.27-13.51h16.74a18.17,18.17,0,0,0,1.63,8.07,14.25,14.25,0,0,0,4.57,5.44,20.39,20.39,0,0,0,6.84,3.1,33.45,33.45,0,0,0,8.37,1,25.34,25.34,0,0,0,9.84-1.67,12.91,12.91,0,0,0,6-4.66A12.21,12.21,0,0,0,866.27,260.93Z"/><path class="cls-1" d="M893.21,250.66v-1.54a45,45,0,0,1,2.27-14.5A34.4,34.4,0,0,1,902.05,223a29.5,29.5,0,0,1,10.54-7.74,37.45,37.45,0,0,1,28.27,0A29.82,29.82,0,0,1,951.44,223a34.13,34.13,0,0,1,6.6,11.67,45,45,0,0,1,2.27,14.5v1.54A44.74,44.74,0,0,1,958,265.13a34.18,34.18,0,0,1-6.6,11.64,30.19,30.19,0,0,1-10.54,7.74,34.3,34.3,0,0,1-14.07,2.76,34.7,34.7,0,0,1-14.18-2.76,30,30,0,0,1-10.57-7.74,34.18,34.18,0,0,1-6.6-11.64A44.74,44.74,0,0,1,893.21,250.66Zm16.07-1.54v1.54a40.66,40.66,0,0,0,1,9.2,23.35,23.35,0,0,0,3.13,7.61,15.44,15.44,0,0,0,5.47,5.13,15.94,15.94,0,0,0,7.94,1.87,15,15,0,0,0,13.2-7,24.07,24.07,0,0,0,3.17-7.61,39.54,39.54,0,0,0,1-9.2v-1.54a38.8,38.8,0,0,0-1-9.1,24.51,24.51,0,0,0-3.2-7.64,16,16,0,0,0-5.47-5.23,15.69,15.69,0,0,0-21.11,5.23,24.18,24.18,0,0,0-3.13,7.64A39.9,39.9,0,0,0,909.28,249.12Z"/><path class="cls-1" d="M1010.4,213.77v11.74h-42V213.77Zm-14.88,72.17H979.45v-79.1a27.85,27.85,0,0,1,3-13.58,19.92,19.92,0,0,1,8.71-8.33,29.64,29.64,0,0,1,13.4-2.84,37.12,37.12,0,0,1,4.74.3,33.45,33.45,0,0,1,4.54.9l-.4,12.41a18.83,18.83,0,0,0-2.91-.47c-1-.09-2.16-.13-3.36-.13a13.57,13.57,0,0,0-6.31,1.37,9.22,9.22,0,0,0-4,4,13.69,13.69,0,0,0-1.37,6.41Z"/><path class="cls-1" d="M1055.08,213.77v11.74H1014.4V213.77Zm-28.94-17.67h16.07V266a10.77,10.77,0,0,0,1,5.1,4.8,4.8,0,0,0,2.7,2.37,12.46,12.46,0,0,0,4.07.6,25.33,25.33,0,0,0,3.2-.2c1-.14,1.84-.27,2.47-.4l.06,12.27a41.18,41.18,0,0,1-4.63,1.07,35.1,35.1,0,0,1-6,.46,23.17,23.17,0,0,1-9.8-2,14.23,14.23,0,0,1-6.67-6.44q-2.4-4.47-2.4-11.87Z"/><path class="cls-1" d="M1077.29,213.77l13,56.43,1.07,15.74H1081.1l-19.55-72.17Zm9.81,56.16,16.67-56.16H1114l-2.8,16.81-16.8,55.36h-9.21Zm28.68-56.16,16.47,55.5,2.07,16.67h-9.2l-17-55.43-2.8-16.74Zm13.87,55.76,12.61-55.76h15.67l-19.47,72.17h-10.28Z"/><path class="cls-1" d="M1211.89,242.05,1212,252h-11.54a33,33,0,0,0-7.87.84,16.41,16.41,0,0,0-5.67,2.43,10.51,10.51,0,0,0-3.4,3.87,11.25,11.25,0,0,0-1.13,5.13,10.47,10.47,0,0,0,1.33,5.24,9.24,9.24,0,0,0,3.9,3.7,13.38,13.38,0,0,0,6.24,1.33,17.63,17.63,0,0,0,8.64-2,17.32,17.32,0,0,0,5.83-5,10.77,10.77,0,0,0,2.27-5.64l5.2,7.14a24.29,24.29,0,0,1-2.73,5.87,28.17,28.17,0,0,1-5,6,24.93,24.93,0,0,1-17.31,6.43,27.24,27.24,0,0,1-12.6-2.83,22.1,22.1,0,0,1-8.67-7.67,19.72,19.72,0,0,1-3.14-11,22.91,22.91,0,0,1,2.17-10.17,19.6,19.6,0,0,1,6.4-7.44,31.22,31.22,0,0,1,10.38-4.57,56.94,56.94,0,0,1,14-1.57Zm-2.34,29.42V237.05a14.68,14.68,0,0,0-1.4-6.67,9.78,9.78,0,0,0-4.23-4.33,14.73,14.73,0,0,0-7.11-1.54,16,16,0,0,0-6.8,1.34,11.05,11.05,0,0,0-4.47,3.6,8.65,8.65,0,0,0-1.6,5.13h-16a17.81,17.81,0,0,1,2.07-8.27,22.23,22.23,0,0,1,6-7.13,30,30,0,0,1,9.41-4.94,39.12,39.12,0,0,1,12.27-1.8,36,36,0,0,1,14.44,2.73,22.3,22.3,0,0,1,9.94,8.24q3.63,5.51,3.63,13.77v32.09a50.91,50.91,0,0,0,.7,8.83,27.74,27.74,0,0,0,2,6.77v1.07H1212a27.71,27.71,0,0,1-1.76-6.64A49.57,49.57,0,0,1,1209.55,271.47Z"/><path class="cls-1" d="M1258.64,227.51v58.43h-16.07V213.77h15.34Zm22.08-14.2-.13,14.94a31.48,31.48,0,0,0-3.17-.4c-1.14-.09-2.26-.14-3.37-.14a20.72,20.72,0,0,0-7.27,1.17,13.92,13.92,0,0,0-5.24,3.34,14.66,14.66,0,0,0-3.23,5.23,23.41,23.41,0,0,0-1.34,6.87l-3.66.27a56.21,56.21,0,0,1,1.33-12.61,33.57,33.57,0,0,1,4-10.2,20,20,0,0,1,6.8-6.87,18,18,0,0,1,9.5-2.47,20.25,20.25,0,0,1,3.17.27A13.67,13.67,0,0,1,1280.72,213.31Z"/><path class="cls-1" d="M1321.34,287.27a37.72,37.72,0,0,1-14.44-2.63,31.17,31.17,0,0,1-10.94-7.37,32.58,32.58,0,0,1-6.9-11.14,38.79,38.79,0,0,1-2.41-13.8v-2.67a45.25,45.25,0,0,1,2.47-15.34,35.27,35.27,0,0,1,6.87-11.77A29.77,29.77,0,0,1,1306.4,215a32.39,32.39,0,0,1,13-2.6,32.9,32.9,0,0,1,13.54,2.6,26,26,0,0,1,9.64,7.3,31.51,31.51,0,0,1,5.74,11.18,50.74,50.74,0,0,1,1.9,14.27v6.87h-55.76V243.12h39.88v-1.27a22.88,22.88,0,0,0-1.7-8.13,14,14,0,0,0-4.77-6.14,14.14,14.14,0,0,0-8.53-2.33,14.49,14.49,0,0,0-7.11,1.7,14.3,14.3,0,0,0-5.17,4.9,24.9,24.9,0,0,0-3.16,7.7,42.29,42.29,0,0,0-1.11,10.11v2.67a28.38,28.38,0,0,0,1.31,8.77,20.36,20.36,0,0,0,3.83,7,18,18,0,0,0,6.14,4.7,18.88,18.88,0,0,0,8.2,1.7,22.24,22.24,0,0,0,10.34-2.33,23.9,23.9,0,0,0,7.87-6.6l8.47,8.2a32.14,32.14,0,0,1-6.07,6.5,30.1,30.1,0,0,1-9.1,5A36.65,36.65,0,0,1,1321.34,287.27Z"/><path class="cls-2" d="M421.14,316.83l-17.8,47.89h-2.95l18.79-50h2.3Zm12.43,30.75v2.58H407.91v-2.58Zm4.4,17.14-17.76-47.89-.34-2.13h2.26l18.83,50Z"/><path class="cls-2" d="M464.27,335.42v29.3h-2.75V327.55h2.68Zm-.44,7.87-1.38-1.58a19.28,19.28,0,0,1,1.39-5.64,16.3,16.3,0,0,1,3-4.74,14,14,0,0,1,4.43-3.26,13.35,13.35,0,0,1,5.72-1.21,15.83,15.83,0,0,1,5,.74,9.35,9.35,0,0,1,3.76,2.31,10.15,10.15,0,0,1,2.37,4.07,19.3,19.3,0,0,1,.83,6v24.73h-2.75V340.06a13.88,13.88,0,0,0-1.24-6.5,7,7,0,0,0-3.43-3.24,12.7,12.7,0,0,0-5-.95,10.76,10.76,0,0,0-5.74,1.46,12.47,12.47,0,0,0-3.86,3.68,17,17,0,0,0-2.22,4.58A17.75,17.75,0,0,0,463.83,343.29Zm25.07-3.06-1.85-.66a14.07,14.07,0,0,1,1.42-4.79,14.35,14.35,0,0,1,7.49-6.87,14.9,14.9,0,0,1,5.69-1.05,15.52,15.52,0,0,1,5.1.78,9,9,0,0,1,3.78,2.44,11.2,11.2,0,0,1,2.35,4.26,20.84,20.84,0,0,1,.83,6.27v24.11H511V340.57a15.26,15.26,0,0,0-1.24-6.83,7,7,0,0,0-3.43-3.42,12,12,0,0,0-5.09-.95,12.07,12.07,0,0,0-9.1,3.92,12.75,12.75,0,0,0-2.3,3.52A10.42,10.42,0,0,0,488.9,340.23Z"/><path class="cls-2" d="M562.65,343.63l.07,2.37h-9.07a26.68,26.68,0,0,0-6.15.65,15.32,15.32,0,0,0-4.61,1.86,8.72,8.72,0,0,0-2.88,2.85,7.06,7.06,0,0,0-1,3.71,7.15,7.15,0,0,0,1.14,3.92,7.93,7.93,0,0,0,3.19,2.83,10.42,10.42,0,0,0,4.78,1.05,15.93,15.93,0,0,0,6.58-1.29,13.93,13.93,0,0,0,4.82-3.51,13.47,13.47,0,0,0,2.85-5.13l1.21,2a15,15,0,0,1-1.82,3.68,14.73,14.73,0,0,1-3.2,3.38,16,16,0,0,1-4.6,2.47,17.85,17.85,0,0,1-6,1,13.57,13.57,0,0,1-6.16-1.32,9.64,9.64,0,0,1-5.51-8.95,9.61,9.61,0,0,1,1.16-4.71,10.7,10.7,0,0,1,3.39-3.66,16.54,16.54,0,0,1,5.39-2.33,29.08,29.08,0,0,1,7.16-.81Zm-.89,14.26V338.68a9.72,9.72,0,0,0-1.24-5,8.11,8.11,0,0,0-3.61-3.22,13.61,13.61,0,0,0-5.8-1.11,14.07,14.07,0,0,0-5.72,1.11,9.79,9.79,0,0,0-4,3,7,7,0,0,0-1.44,4.3l-2.75,0a8.8,8.8,0,0,1,1-4.08,11.08,11.08,0,0,1,2.89-3.49,14.19,14.19,0,0,1,4.43-2.42,16.81,16.81,0,0,1,5.62-.9,17.08,17.08,0,0,1,6.92,1.33,10.37,10.37,0,0,1,4.69,4,12.06,12.06,0,0,1,1.68,6.59V357.1a30.35,30.35,0,0,0,.27,4,15,15,0,0,0,.76,3.27v.34h-3a18.65,18.65,0,0,1-.57-3.19C561.82,360.27,561.76,359.05,561.76,357.89Z"/><path class="cls-2" d="M592.83,333.87v30.85h-2.71V327.55h2.68ZM607,327.28l-.17,2.47c-.41-.07-.82-.13-1.24-.17a10.74,10.74,0,0,0-1.3-.07,10.56,10.56,0,0,0-8.88,4.36,14.28,14.28,0,0,0-2.25,4.71,22,22,0,0,0-.79,5.74l-1.34.27a28.88,28.88,0,0,1,.81-7,17.2,17.2,0,0,1,2.45-5.64,11.5,11.5,0,0,1,4.16-3.72,12.51,12.51,0,0,1,5.91-1.33,9.94,9.94,0,0,1,1.51.12A6.23,6.23,0,0,1,607,327.28Z"/><path class="cls-2" d="M624.49,346.79v-1.31a22.57,22.57,0,0,1,1.19-7.48,17.69,17.69,0,0,1,3.35-5.9,15,15,0,0,1,5.17-3.86,16.91,16.91,0,0,1,13.38,0,15.24,15.24,0,0,1,5.2,3.86,17.35,17.35,0,0,1,3.35,5.9,22.83,22.83,0,0,1,1.17,7.48v1.31a22.94,22.94,0,0,1-1.17,7.49,17.6,17.6,0,0,1-3.33,5.89,15.15,15.15,0,0,1-5.17,3.87,17.07,17.07,0,0,1-13.4,0,15.42,15.42,0,0,1-5.19-3.87,17.66,17.66,0,0,1-3.36-5.89A22.67,22.67,0,0,1,624.49,346.79Zm2.75-1.31v1.31a20.25,20.25,0,0,0,.91,6.13,16,16,0,0,0,2.66,5.15,12.49,12.49,0,0,0,4.3,3.54,13.71,13.71,0,0,0,11.61,0,12.42,12.42,0,0,0,4.28-3.54,16.4,16.4,0,0,0,2.64-5.15,20.25,20.25,0,0,0,.91-6.13v-1.31a19.86,19.86,0,0,0-.91-6,16.51,16.51,0,0,0-2.66-5.16,13,13,0,0,0-4.3-3.59,13.38,13.38,0,0,0-11.59,0,13.28,13.28,0,0,0-4.3,3.59,16.3,16.3,0,0,0-2.66,5.16A20.48,20.48,0,0,0,627.24,345.48Z"/><path class="cls-2" d="M748.69,314.7v50h-2.78L715,319.48v45.24h-2.82v-50H715l30.92,45.18V314.7Z"/><path class="cls-2" d="M788.9,365.41a15.44,15.44,0,0,1-6.49-1.36,15.77,15.77,0,0,1-5.22-3.81,17.88,17.88,0,0,1-3.49-5.82,21.19,21.19,0,0,1-1.25-7.39v-1.51a22,22,0,0,1,1.25-7.58,18.93,18.93,0,0,1,3.42-5.9,15.27,15.27,0,0,1,5-3.84,14.69,14.69,0,0,1,12-.13,13.21,13.21,0,0,1,4.53,3.36,14.86,14.86,0,0,1,2.89,5.16,20.85,20.85,0,0,1,1,6.59v2.3H774.16V343h25.63v-.45a15.6,15.6,0,0,0-1.42-6.49,12.13,12.13,0,0,0-4-4.83,10.47,10.47,0,0,0-6.22-1.84,11.45,11.45,0,0,0-5.31,1.24,12.33,12.33,0,0,0-4.1,3.42,15.83,15.83,0,0,0-2.65,5.12,21,21,0,0,0-.93,6.37V347a18.14,18.14,0,0,0,1,6.18,15.78,15.78,0,0,0,2.88,5.07,13.39,13.39,0,0,0,4.37,3.42,12.29,12.29,0,0,0,5.49,1.24,15,15,0,0,0,5.91-1.14,12.26,12.26,0,0,0,4.88-4l1.78,1.34a15.23,15.23,0,0,1-3,3.19,13.46,13.46,0,0,1-4.14,2.23A16.64,16.64,0,0,1,788.9,365.41Z"/><path class="cls-2" d="M838.22,327.55V330h-17.8v-2.47Zm-10.93-9.82H830v38a10.74,10.74,0,0,0,.74,4.51,4.06,4.06,0,0,0,2,2.07,6.57,6.57,0,0,0,2.63.53,17.46,17.46,0,0,0,1.84-.1c.56-.07,1.12-.15,1.7-.25l.24,2.41a10,10,0,0,1-2,.36q-1.2.12-2.13.12a9.23,9.23,0,0,1-4.09-.86,5.79,5.79,0,0,1-2.71-3,14.36,14.36,0,0,1-1-5.82Z"/><path class="cls-2" d="M874.69,327.55V330H856.9v-2.47Zm-10.92-9.82h2.74v38a10.74,10.74,0,0,0,.74,4.51,4.06,4.06,0,0,0,2,2.07,6.57,6.57,0,0,0,2.63.53,17.31,17.31,0,0,0,1.84-.1c.56-.07,1.13-.15,1.7-.25l.24,2.41a10,10,0,0,1-2,.36q-1.2.12-2.13.12a9.23,9.23,0,0,1-4.09-.86,5.79,5.79,0,0,1-2.71-3,14.37,14.37,0,0,1-1-5.82Z"/><path class="cls-2" d="M894.67,346.79v-1.31a22.31,22.31,0,0,1,1.19-7.48,17.84,17.84,0,0,1,3.34-5.9,15.16,15.16,0,0,1,5.18-3.86,16.91,16.91,0,0,1,13.38,0,15.34,15.34,0,0,1,5.2,3.86,17.52,17.52,0,0,1,3.35,5.9,22.83,22.83,0,0,1,1.17,7.48v1.31a22.94,22.94,0,0,1-1.17,7.49,17.6,17.6,0,0,1-3.33,5.89,15.25,15.25,0,0,1-5.17,3.87,17.07,17.07,0,0,1-13.4,0,15.33,15.33,0,0,1-5.19-3.87,17.66,17.66,0,0,1-3.36-5.89A22.41,22.41,0,0,1,894.67,346.79Zm2.75-1.31v1.31a20.25,20.25,0,0,0,.91,6.13,15.84,15.84,0,0,0,2.66,5.15,12.55,12.55,0,0,0,4.29,3.54,12.77,12.77,0,0,0,5.84,1.29,12.61,12.61,0,0,0,5.78-1.29,12.29,12.29,0,0,0,4.27-3.54,16.21,16.21,0,0,0,2.65-5.15,20.25,20.25,0,0,0,.91-6.13v-1.31a19.86,19.86,0,0,0-.91-6,16.72,16.72,0,0,0-2.66-5.16,13,13,0,0,0-4.3-3.59,13.38,13.38,0,0,0-11.59,0,13.28,13.28,0,0,0-4.3,3.59,16.1,16.1,0,0,0-2.66,5.16A20.48,20.48,0,0,0,897.42,345.48Z"/><path class="cls-2" d="M1011.65,352.6a10.2,10.2,0,0,0-.75-4,8.25,8.25,0,0,0-2.5-3.16,19.59,19.59,0,0,0-4.55-2.59,55.7,55.7,0,0,0-6.94-2.34,59.1,59.1,0,0,1-6.81-2.25,23,23,0,0,1-5.19-2.8,10.75,10.75,0,0,1-3.28-3.76,11,11,0,0,1-1.14-5.17,10.87,10.87,0,0,1,1.24-5.19,11.65,11.65,0,0,1,3.49-3.93,16.94,16.94,0,0,1,5.29-2.51,24,24,0,0,1,6.64-.87,19.37,19.37,0,0,1,8.83,1.9,14.67,14.67,0,0,1,5.91,5.26,14,14,0,0,1,2.13,7.68h-2.78a11.65,11.65,0,0,0-1.74-6.32,11.91,11.91,0,0,0-4.87-4.38,16.28,16.28,0,0,0-7.48-1.6,18.79,18.79,0,0,0-7.57,1.37,11.19,11.19,0,0,0-4.71,3.63,8.3,8.3,0,0,0-1.59,4.89A8.91,8.91,0,0,0,984,330a8.12,8.12,0,0,0,2.34,3,17.72,17.72,0,0,0,4.43,2.6,50.53,50.53,0,0,0,7,2.35,55.21,55.21,0,0,1,6.92,2.25,22.87,22.87,0,0,1,5.27,2.94,11.6,11.6,0,0,1,3.37,4,11.8,11.8,0,0,1,1.17,5.4,11.14,11.14,0,0,1-1.31,5.44,12.28,12.28,0,0,1-3.62,4.06,17,17,0,0,1-5.43,2.52,25.09,25.09,0,0,1-6.68.86,27.59,27.59,0,0,1-6.54-.79,19.32,19.32,0,0,1-6-2.54,13.38,13.38,0,0,1-4.36-4.61,13.62,13.62,0,0,1-1.65-6.93h2.78a10.62,10.62,0,0,0,5.22,9.68,17,17,0,0,0,5.1,2,25.11,25.11,0,0,0,5.45.62,19.75,19.75,0,0,0,7.4-1.29,11.68,11.68,0,0,0,5-3.61A8.49,8.49,0,0,0,1011.65,352.6Z"/><path class="cls-2" d="M1034.48,346.79v-1.31a22.57,22.57,0,0,1,1.19-7.48,17.86,17.86,0,0,1,3.35-5.9,15,15,0,0,1,5.17-3.86,16.91,16.91,0,0,1,13.38,0,15.14,15.14,0,0,1,5.2,3.86,17.35,17.35,0,0,1,3.35,5.9,22.83,22.83,0,0,1,1.17,7.48v1.31a22.94,22.94,0,0,1-1.17,7.49,17.6,17.6,0,0,1-3.33,5.89,15.15,15.15,0,0,1-5.17,3.87,17.07,17.07,0,0,1-13.4,0,15.42,15.42,0,0,1-5.19-3.87,17.66,17.66,0,0,1-3.36-5.89A22.67,22.67,0,0,1,1034.48,346.79Zm2.75-1.31v1.31a20.57,20.57,0,0,0,.91,6.13,16.23,16.23,0,0,0,2.66,5.15,12.49,12.49,0,0,0,4.3,3.54,12.71,12.71,0,0,0,5.84,1.29,12.56,12.56,0,0,0,5.77-1.29,12.42,12.42,0,0,0,4.28-3.54,16.4,16.4,0,0,0,2.64-5.15,20.25,20.25,0,0,0,.91-6.13v-1.31a19.86,19.86,0,0,0-.91-6,16.51,16.51,0,0,0-2.66-5.16,13,13,0,0,0-4.29-3.59,12.46,12.46,0,0,0-5.81-1.32,12.32,12.32,0,0,0-5.79,1.32,13.25,13.25,0,0,0-4.29,3.59,16.12,16.12,0,0,0-2.67,5.16A20.48,20.48,0,0,0,1037.23,345.48Z"/><path class="cls-2" d="M1093.35,312v52.77h-2.75V312Z"/><path class="cls-2" d="M1144.22,349.81l1.78-.06a22.07,22.07,0,0,1-.84,6.25,13.62,13.62,0,0,1-2.61,5,11.78,11.78,0,0,1-4.55,3.28,17.19,17.19,0,0,1-6.67,1.17,15.36,15.36,0,0,1-5-.77,9.82,9.82,0,0,1-3.88-2.46,11,11,0,0,1-2.51-4.4,21.61,21.61,0,0,1-.88-6.56V327.55h2.72v23.74a17.62,17.62,0,0,0,.74,5.46,9.06,9.06,0,0,0,2,3.57,7.64,7.64,0,0,0,3.06,1.95,11.71,11.71,0,0,0,3.81.6,13.6,13.6,0,0,0,7.61-1.86,10.11,10.11,0,0,0,4-4.84A17.27,17.27,0,0,0,1144.22,349.81Zm-.48,6.32V327.55h2.75v37.17h-2.72Z"/><path class="cls-2" d="M1185,362.9a13.6,13.6,0,0,0,5.27-1,10.16,10.16,0,0,0,4.16-3.14,9.44,9.44,0,0,0,1.87-5.38h2.68a11.64,11.64,0,0,1-2.13,6.41,13.09,13.09,0,0,1-5,4.17,16.52,16.52,0,0,1-13.42.11,13.35,13.35,0,0,1-4.86-3.89,17.66,17.66,0,0,1-3-5.89,25.51,25.51,0,0,1-1-7.4v-1.44a25.63,25.63,0,0,1,1-7.41,17.75,17.75,0,0,1,3-5.89,13.5,13.5,0,0,1,4.83-3.88,15,15,0,0,1,6.58-1.38,15.59,15.59,0,0,1,6.87,1.53,12.78,12.78,0,0,1,5.07,4.44,13.54,13.54,0,0,1,2.11,7.09h-2.68a11.15,11.15,0,0,0-1.75-5.77,10.31,10.31,0,0,0-4.13-3.56,12.54,12.54,0,0,0-5.49-1.22,12.18,12.18,0,0,0-5.71,1.27,11.06,11.06,0,0,0-4,3.49,15.27,15.27,0,0,0-2.26,5.12,25.57,25.57,0,0,0-.73,6.17v1.44a25.7,25.7,0,0,0,.73,6.2,15,15,0,0,0,2.26,5.1,11.08,11.08,0,0,0,4,3.47A12.21,12.21,0,0,0,1185,362.9Zm-1.14,2.17h2.34l-.38,2.47a8.79,8.79,0,0,1,4.07,1.48q1.85,1.23,1.84,4.32a5.59,5.59,0,0,1-.67,2.74,6.08,6.08,0,0,1-2,2.09,9.86,9.86,0,0,1-3.11,1.36,16.34,16.34,0,0,1-4.16.48l-.23-2.06a13.49,13.49,0,0,0,3.55-.48A7.31,7.31,0,0,0,1188,376a3.27,3.27,0,0,0,1.17-2.59,3.32,3.32,0,0,0-.71-2.25,4.28,4.28,0,0,0-2.11-1.22,18,18,0,0,0-3.51-.58Z"/><path class="cls-2" d="M1219.25,346.79v-1.31a22.57,22.57,0,0,1,1.19-7.48,17.69,17.69,0,0,1,3.35-5.9,15,15,0,0,1,5.17-3.86,16.91,16.91,0,0,1,13.38,0,15.24,15.24,0,0,1,5.2,3.86,17.35,17.35,0,0,1,3.35,5.9,22.83,22.83,0,0,1,1.17,7.48v1.31a22.94,22.94,0,0,1-1.17,7.49,17.6,17.6,0,0,1-3.33,5.89,15.15,15.15,0,0,1-5.17,3.87,17.07,17.07,0,0,1-13.4,0,15.42,15.42,0,0,1-5.19-3.87,17.66,17.66,0,0,1-3.36-5.89A22.67,22.67,0,0,1,1219.25,346.79Zm2.75-1.31v1.31a20.25,20.25,0,0,0,.91,6.13,16.23,16.23,0,0,0,2.66,5.15,12.49,12.49,0,0,0,4.3,3.54,13.71,13.71,0,0,0,11.61,0,12.42,12.42,0,0,0,4.28-3.54,16.4,16.4,0,0,0,2.64-5.15,20.25,20.25,0,0,0,.91-6.13v-1.31a19.86,19.86,0,0,0-.91-6,16.51,16.51,0,0,0-2.66-5.16,13,13,0,0,0-4.3-3.59,13.38,13.38,0,0,0-11.59,0,13.25,13.25,0,0,0-4.29,3.59,16.12,16.12,0,0,0-2.67,5.16A20.48,20.48,0,0,0,1222,345.48Zm22.78-32,2.37.07a7.29,7.29,0,0,1-.84,3.56,6.14,6.14,0,0,1-2.29,2.37,6.23,6.23,0,0,1-3.19.84,6.49,6.49,0,0,1-3-.62,12.34,12.34,0,0,1-2.16-1.4,16.33,16.33,0,0,0-2-1.43,4.82,4.82,0,0,0-2.53-.64,4,4,0,0,0-2.85,1.08,4.1,4.1,0,0,0-1.17,3.15l-2.37-.07a6.92,6.92,0,0,1,.85-3.47,6.07,6.07,0,0,1,2.28-2.3,6.33,6.33,0,0,1,3.2-.83,6.43,6.43,0,0,1,2.93.62,13.28,13.28,0,0,1,2.23,1.43,17,17,0,0,0,2.08,1.42,4.78,4.78,0,0,0,2.48.62,3.91,3.91,0,0,0,2.85-1.16A4.38,4.38,0,0,0,1244.78,313.53Z"/><path class="cls-2" d="M1288.7,365.41a15.4,15.4,0,0,1-6.49-1.36,15.66,15.66,0,0,1-5.22-3.81,17.88,17.88,0,0,1-3.49-5.82,21,21,0,0,1-1.25-7.39v-1.51a21.8,21.8,0,0,1,1.25-7.58,18.74,18.74,0,0,1,3.42-5.9,15.27,15.27,0,0,1,5-3.84,14.69,14.69,0,0,1,12-.13,13.21,13.21,0,0,1,4.53,3.36,15,15,0,0,1,2.89,5.16,20.85,20.85,0,0,1,1,6.59v2.3H1274V343h25.63v-.45a15.45,15.45,0,0,0-1.43-6.49,12.1,12.1,0,0,0-4-4.83,10.47,10.47,0,0,0-6.22-1.84,11.42,11.42,0,0,0-5.31,1.24,12.33,12.33,0,0,0-4.1,3.42,15.83,15.83,0,0,0-2.65,5.12,21,21,0,0,0-.93,6.37V347a18.38,18.38,0,0,0,1,6.18,16,16,0,0,0,2.89,5.07,13.45,13.45,0,0,0,4.36,3.42,12.33,12.33,0,0,0,5.5,1.24,15,15,0,0,0,5.91-1.14,12.26,12.26,0,0,0,4.88-4l1.78,1.34a15.23,15.23,0,0,1-3,3.19,13.46,13.46,0,0,1-4.14,2.23A16.64,16.64,0,0,1,1288.7,365.41Z"/><path class="cls-2" d="M1347.5,355.48a6.78,6.78,0,0,0-.87-3.26,8.56,8.56,0,0,0-3.2-3,23.09,23.09,0,0,0-6.71-2.37,47.67,47.67,0,0,1-5.52-1.51,15.1,15.1,0,0,1-4-2,7.66,7.66,0,0,1-2.42-2.83,8.89,8.89,0,0,1-.81-4,8.45,8.45,0,0,1,.86-3.75,8.94,8.94,0,0,1,2.52-3.07,12.58,12.58,0,0,1,4-2.08,19.12,19.12,0,0,1,12.52.64,10.82,10.82,0,0,1,4.62,3.81,9.86,9.86,0,0,1,1.61,5.62h-2.75a7.3,7.3,0,0,0-1.23-4.06,9,9,0,0,0-3.63-3.07,15.36,15.36,0,0,0-11.56-.12,7.57,7.57,0,0,0-3.21,2.69,6.29,6.29,0,0,0-1,3.32,7.73,7.73,0,0,0,.39,2.49,5,5,0,0,0,1.53,2.11,12.24,12.24,0,0,0,3.27,1.84,34.32,34.32,0,0,0,5.53,1.63,32,32,0,0,1,7.28,2.42,10.59,10.59,0,0,1,4.16,3.47,9,9,0,0,1,1.34,5,8.83,8.83,0,0,1-.93,4,9.38,9.38,0,0,1-2.66,3.18,12.63,12.63,0,0,1-4.21,2.06,19.64,19.64,0,0,1-5.5.72,18.58,18.58,0,0,1-7.75-1.46,11.41,11.41,0,0,1-4.81-3.86,9.15,9.15,0,0,1-1.63-5.19h2.75a7.31,7.31,0,0,0,2,4.81,9.77,9.77,0,0,0,4.33,2.47,18.8,18.8,0,0,0,5.1.72,13.9,13.9,0,0,0,5.82-1.08,8.65,8.65,0,0,0,3.56-2.78A6.1,6.1,0,0,0,1347.5,355.48Z"/></svg>