<svg id="Camada_5" data-name="Camada 5" xmlns="http://www.w3.org/2000/svg" viewBox="0 0 929.71 1080.57"><path d="M193.18,745l-8.92,26.4H160l38.82-114.3h31l40.49,114.3h-26l-9.4-26.4Zm36.43-20.26c-8.11-24.12-13.28-39.53-16.05-49.8h-.16c-2.82,11.26-8.53,29.19-15,49.8Z"/><path d="M380.94,728.5c0-19.51.31-41.37.81-54.29H381c-5.37,23.32-16.8,61.4-27.76,97.16h-21C323.82,740.1,312,696.72,307,673.9h-.77c1,13.41,1.45,36.93,1.45,56.53v40.94H285.15V657.07h36.77c8.91,29.87,18.91,67.33,22.34,84.37h.19c2.8-15,15.35-55.08,24.88-84.37h35.45v114.3H380.94Z"/><path d="M453.45,745l-8.92,26.4H420.24l38.81-114.3h31l40.49,114.3h-26L495.2,745Zm36.44-20.26c-8.12-24.12-13.29-39.53-16.05-49.8h-.17c-2.82,11.26-8.52,29.19-15,49.8Z"/><path d="M569.4,725.63v45.74H545.25V657.07h50.23c24.91,0,38.33,13.73,38.33,31.38,0,15.34-8.35,23.64-16.61,27,5.66,2.09,14.2,8,14.2,28.43v5.65c0,7.69.07,16.44,1.64,21.79H609.62c-2-5-2.39-13.53-2.39-25.66V744c0-12.5-3.15-18.41-21.57-18.41Zm0-19.68h20.72c13.53,0,18.75-5.14,18.75-14.7,0-9.3-6.07-14.5-18.16-14.5H569.4Z"/><path d="M760.88,713.83c0,31.81-19.1,59.2-56.22,59.2C668.79,773,650,747,650,714.22c0-33.26,20.74-58.81,56.24-58.81C739.69,655.41,760.88,678.84,760.88,713.83Zm-85.34-.11c0,22.32,9.79,39.2,30.05,39.2,22,0,29.77-18.41,29.77-38.77,0-21.63-8.86-38.62-30.17-38.62C684.55,675.53,675.54,691.47,675.54,713.72Z"/><path d="M202.1,910.5V796.2h30.63c14.28,25.67,40.67,71.95,45.92,84.41H279c-1.29-11.93-1.27-31.78-1.27-50.53V796.2h22.4V910.5H271c-12.28-22.34-41.52-75.51-47.18-88.71h-.32c.83,10,1.11,33.48,1.11,54V910.5Z"/><path d="M406.07,861.21H351.42v29h60.29l-2.93,20.26H327.43V796.2h81v20.26H351.42V841h54.65Z"/><path d="M456.69,816.46H422V796.2H516v20.26H481.43v94H456.69Z"/><path d="M562.46,816.46H527.73V796.2h94.06v20.26H587.2v94H562.46Z"/><path d="M738.68,853c0,31.81-19.1,59.2-56.23,59.2-35.86,0-54.64-26.07-54.64-58.81,0-33.27,20.74-58.81,56.24-58.81C717.49,794.54,738.68,818,738.68,853Zm-85.35-.11c0,22.32,9.8,39.2,30.06,39.2,22,0,29.76-18.41,29.76-38.78,0-21.62-8.85-38.61-30.16-38.61C662.35,814.66,653.33,830.6,653.33,852.85Z"/><path d="M191.34,990.77c0,5.68-5.42,10.25-12,10.25h-3.17c-6.61,0-12-4.57-12-10.25v-.21l0-1.45h4.06l0,1.66c-.11,3.49,3.59,6.35,8,6.35h3.17c4.38,0,8-2.86,8-6.35s-3.59-6.4-8-6.4h-1.45c-2.14-.1-5-.36-6.56-1.3-4.11-2.39-6.09-5.31-6.09-9,0-5.62,5.41-10.25,12-10.25h.94c6.4,0,11.71,4.27,12,9.73l.11,1.56h-4.06l-.11-1.4c-.26-3.39-3.75-6-8-6h-.94c-4.37,0-7.91,2.86-7.91,6.35s3.33,6.3,7.5,6.4h1.92v0a18.81,18.81,0,0,1,2.71.16h.16C187.28,981.36,191.34,985.83,191.34,990.77Z"/><path d="M279.21,982.34a18.45,18.45,0,1,1-18.42-18.47A18.47,18.47,0,0,1,279.21,982.34Zm-3.8,0A14.62,14.62,0,1,0,260.79,997,14.63,14.63,0,0,0,275.41,982.34Z"/><path d="M354.8,997.17V1001H330.19v-37.2h3.9v33.35Z"/><path d="M431.23,963.82h3.85V986.4a14.66,14.66,0,0,1-29.24,1.46h-.06v-24h3.91v22.74a10.77,10.77,0,0,0,21.54.05V963.82Z"/><path d="M518.69,987.13h4A18.41,18.41,0,0,1,505.78,1001v.78a3.65,3.65,0,0,1,.79,0,4.43,4.43,0,0,1,0,8.85,4.39,4.39,0,0,1-4.32-3.38h3.33a1.36,1.36,0,0,0,1,.36,1.41,1.41,0,0,0,0-2.81,1.51,1.51,0,0,0-1.1.47v0h-3V1001a18.66,18.66,0,1,1,20.34-22.79h-4a14.86,14.86,0,1,0-.16,8.9Z"/><path d="M610.47,982.34A18.45,18.45,0,1,1,592,963.87,18.48,18.48,0,0,1,610.47,982.34Zm-3.8,0A14.63,14.63,0,1,0,592,997,14.64,14.64,0,0,0,606.67,982.34Zm-9.53-23.2-.26.41a3.18,3.18,0,0,1-2.65,1.67,4.51,4.51,0,0,1-2.13-.68,3.87,3.87,0,0,0-1.93-.57c-.26,0-.57,0-.94.73l-.62,1-1.25-2,.21-.36a3,3,0,0,1,2.71-1.72,6.27,6.27,0,0,1,2.28.62,5.08,5.08,0,0,0,1.67.63c.36,0,.68-.21,1-.84l.63-.88Z"/><path d="M662.33,963.82h24.51v3.9H666.23v12.75h15v3.9h-15v12.75h20.61v3.9H662.33Z"/><path d="M765,990.77c0,5.68-5.42,10.25-12,10.25h-3.18c-6.61,0-12-4.57-12-10.25v-.21l0-1.45h4.06l0,1.66c-.1,3.49,3.59,6.35,8,6.35H753c4.37,0,8-2.86,8-6.35s-3.59-6.4-8-6.4h-1.46c-2.13-.1-5-.36-6.56-1.3-4.11-2.39-6.09-5.31-6.09-9,0-5.62,5.42-10.25,12-10.25h.94c6.4,0,11.71,4.27,12,9.73l.11,1.56h-4.06l-.11-1.4c-.26-3.39-3.74-6-8-6h-.94c-4.37,0-7.91,2.86-7.91,6.35s3.33,6.3,7.5,6.4h1.92v0a18.81,18.81,0,0,1,2.71.16h.16C761,981.36,765,985.83,765,990.77Z"/><path d="M493.8,253.84l-18.16,42,23.23,54.06H334.92l78.45-187.24a64.1,64.1,0,1,0-53.19-63.14,64,64,0,0,0,23,49.15l-86,201.23H296v2.55l-13.12,30.7H532.64v-.07h16.69ZM424.32,63.39a36.11,36.11,0,1,1-36.11,36.1A36.1,36.1,0,0,1,424.32,63.39Z"/><path d="M544.39,84.53l-36.16.07L706.76,546.55H617.51l-37.36-89.31H372.06l-37.95,89.31H282.53a64.12,64.12,0,1,0-.29,33.26H358l37.42-89.32H558.84l34.61,89.32h127.6l36.23.08ZM220.5,598.73a36.11,36.11,0,1,1,36.11-36.1A36.1,36.1,0,0,1,220.5,598.73Z"/></svg>