<svg id="Camada_1" data-name="Camada 1" xmlns="http://www.w3.org/2000/svg" viewBox="0 0 1387.5 495.26"><defs><style>.cls-1{fill:#0071bc;}.cls-2{fill:#424242;}.cls-3{font-size:38.17px;}.cls-10,.cls-3{fill:#444;}.cls-4{letter-spacing:-0.01em;}.cls-5{letter-spacing:-0.01em;}.cls-6{letter-spacing:-0.02em;}.cls-7{letter-spacing:-0.03em;}.cls-8{letter-spacing:-0.02em;}.cls-9{letter-spacing:-0.01em;}</style></defs><path class="cls-1" d="M198.55,155.36c2.58-6.15.77-13.8-4.05-17.09s-10.82-1-13.4,5.17l-24.68,58.73h22.46Z"/><path class="cls-1" d="M245.6,202.17h22.46l-24.68-58.73c-2.58-6.15-8.58-8.46-13.4-5.17s-6.63,10.94-4,17.09Z"/><circle class="cls-1" cx="204.44" cy="255.3" r="8.67"/><circle class="cls-1" cx="155.51" cy="366.48" r="8.67" transform="translate(-224.51 485.12) rotate(-84.35)"/><path class="cls-1" d="M329.8,221.85l-6.6-4.9a26,26,0,0,0-12.56-3.33H113.84c-21.13,0-36.4,25.76-30.63,51.68l27.52,123.79c3.89,17.47,16.4,29.52,30.64,29.52H283.12c14.24,0,26.75-12.05,30.63-29.52L341.28,265.3C345.05,248.34,339.79,231.51,329.8,221.85ZM173.64,316v-.61h.27l20.64-48.3a15.4,15.4,0,1,1,9.89,3.59,15.13,15.13,0,0,1-2.63-.24L183,315.4h39.36l-5.58-13,4.36-10.08,13.33,31h-4v0H170.49Zm102,54.59H245l-8.31-21.44H197.51l-9,21.44h-18.2a15.4,15.4,0,1,1,.07-8h12.38l9.11-21.44h50l9,21.44h21.43l-47.66-110.9h8.68l51.11,118.91Z"/><path class="cls-2" d="M451.55,222.06l-27.77,76.47H412.42l32-83.91h7.32Zm21.85,45.41v9.1H426.25v-9.1Zm1.44,31.06L447,222.06l-.17-7.44h7.32l32.1,83.91Z"/><path class="cls-2" d="M506.47,248.57v50H495.76V236.18H505.9ZM504.29,265l-5-.17A42.75,42.75,0,0,1,501,253a28.17,28.17,0,0,1,4.78-9.49,21.7,21.7,0,0,1,7.9-6.25,27.58,27.58,0,0,1,19-1,16.61,16.61,0,0,1,6.39,3.89,17.82,17.82,0,0,1,4.21,6.8,29.64,29.64,0,0,1,1.5,10v41.55H534.14v-41a16.11,16.11,0,0,0-1.64-7.84,9.89,9.89,0,0,0-4.64-4.29,17,17,0,0,0-7-1.36,16.71,16.71,0,0,0-7.9,1.68,13.33,13.33,0,0,0-5.07,4.61,20.21,20.21,0,0,0-2.74,6.71A36.71,36.71,0,0,0,504.29,265Zm40.39-5.88-7.14,2.19a30.74,30.74,0,0,1,1.7-9.85A26,26,0,0,1,544,243a22.86,22.86,0,0,1,7.75-5.85A24.61,24.61,0,0,1,562.32,235a27.62,27.62,0,0,1,8.9,1.33,16.38,16.38,0,0,1,6.57,4.06,17.67,17.67,0,0,1,4.07,7,33.17,33.17,0,0,1,1.38,10.15v41H572.52V257.44a16.79,16.79,0,0,0-1.64-8.15,9.05,9.05,0,0,0-4.61-4.1,19.25,19.25,0,0,0-7.06-1.18,15.25,15.25,0,0,0-6.23,1.21,13.16,13.16,0,0,0-4.55,3.32,14.55,14.55,0,0,0-2.8,4.81A17.4,17.4,0,0,0,544.68,259.11Z"/><path class="cls-2" d="M638,260.73l.11,7.49H627.33a41.37,41.37,0,0,0-8.13.72,19,19,0,0,0-6,2.16,10.13,10.13,0,0,0-3.69,3.6,9.73,9.73,0,0,0-1.27,5,10.9,10.9,0,0,0,1.33,5.36,9.4,9.4,0,0,0,4,3.84,14.07,14.07,0,0,0,6.6,1.41,17.49,17.49,0,0,0,8.65-2.08,18.3,18.3,0,0,0,6-5.07,11,11,0,0,0,2.39-5.82l4.55,5.13a15.56,15.56,0,0,1-2.19,5.36,25.73,25.73,0,0,1-11.78,10.06,22.82,22.82,0,0,1-9.14,1.75,23.7,23.7,0,0,1-11.09-2.47,18.65,18.65,0,0,1-7.38-6.66,17.31,17.31,0,0,1-2.62-9.36,19.1,19.1,0,0,1,2-8.85,17.32,17.32,0,0,1,5.65-6.4,27.39,27.39,0,0,1,8.87-3.89,47,47,0,0,1,11.59-1.32Zm-1.85,27.14v-32.1a13.41,13.41,0,0,0-1.47-6.43,10,10,0,0,0-4.4-4.23,15.88,15.88,0,0,0-7.27-1.5,16.88,16.88,0,0,0-7.06,1.38,12.22,12.22,0,0,0-4.72,3.63,7.91,7.91,0,0,0-1.7,4.84H598.86a14,14,0,0,1,1.73-6.62,19.56,19.56,0,0,1,5-6,25.05,25.05,0,0,1,7.84-4.26A31,31,0,0,1,623.64,235a29.38,29.38,0,0,1,12,2.31,18.25,18.25,0,0,1,8.19,6.94,21.18,21.18,0,0,1,3,11.62v29a43.69,43.69,0,0,0,.54,6.63,25.28,25.28,0,0,0,1.65,6.05v.92H637.87a20,20,0,0,1-1.26-4.93A38.51,38.51,0,0,1,636.14,287.87Z"/><path class="cls-2" d="M674.24,246v52.56H663.58V236.18H674Zm19.48-10.14-.06,9.91a18.58,18.58,0,0,0-2.51-.37c-.79-.06-1.68-.09-2.68-.09a17.27,17.27,0,0,0-6.51,1.15,13.51,13.51,0,0,0-4.78,3.23,15.17,15.17,0,0,0-3.09,4.93,23.35,23.35,0,0,0-1.47,6.25l-3,1.73a47.8,47.8,0,0,1,1.12-10.6,28.51,28.51,0,0,1,3.49-8.79,17.37,17.37,0,0,1,6-6A16.87,16.87,0,0,1,689,235a16.06,16.06,0,0,1,2.65.26A9,9,0,0,1,693.72,235.83Z"/><path class="cls-2" d="M699.59,268.05v-1.33a39,39,0,0,1,2-12.53,30,30,0,0,1,5.65-10.09,25.83,25.83,0,0,1,8.93-6.69,30.32,30.32,0,0,1,23.6,0,25.87,25.87,0,0,1,9,6.69,29.77,29.77,0,0,1,5.68,10.09,38.72,38.72,0,0,1,2,12.53v1.33a38.49,38.49,0,0,1-2,12.5,29.92,29.92,0,0,1-5.68,10.06,25.86,25.86,0,0,1-8.93,6.68,30.32,30.32,0,0,1-23.6,0,26,26,0,0,1-9-6.68,29.92,29.92,0,0,1-5.68-10.06A38.76,38.76,0,0,1,699.59,268.05Zm10.67-1.33v1.33a34,34,0,0,0,1.09,8.78,22.73,22.73,0,0,0,3.32,7.29,15.54,15.54,0,0,0,13.34,6.8,15.32,15.32,0,0,0,13.19-6.8,23.62,23.62,0,0,0,3.32-7.29,33.15,33.15,0,0,0,1.12-8.78v-1.33a33,33,0,0,0-1.12-8.73,23.81,23.81,0,0,0-3.34-7.32,16.38,16.38,0,0,0-5.54-5,17,17,0,0,0-15.44,0,16.25,16.25,0,0,0-5.53,5,23.09,23.09,0,0,0-3.32,7.32A33.9,33.9,0,0,0,710.26,266.72Z"/><path class="cls-1" d="M816.07,277.32a14.08,14.08,0,0,0-.9-5.21,10.18,10.18,0,0,0-3.11-4.12,25.21,25.21,0,0,0-6.11-3.52,87.71,87.71,0,0,0-9.82-3.4A86.65,86.65,0,0,1,784.89,257a39,39,0,0,1-8.59-5.21,20.59,20.59,0,0,1-5.47-6.75,19.14,19.14,0,0,1-1.91-8.7,20.52,20.52,0,0,1,2-9,21.54,21.54,0,0,1,5.79-7.23,28.06,28.06,0,0,1,9-4.81,37.34,37.34,0,0,1,11.7-1.73q9.45,0,16,3.6a25.71,25.71,0,0,1,10.06,9.4A23.76,23.76,0,0,1,827,238.83H816a17,17,0,0,0-2-8.39,14.08,14.08,0,0,0-6.1-5.76,22.66,22.66,0,0,0-10.38-2.11,23.42,23.42,0,0,0-9.8,1.79,12.81,12.81,0,0,0-5.73,4.84,13.07,13.07,0,0,0-1.87,7,10.27,10.27,0,0,0,1.12,4.81,12.29,12.29,0,0,0,3.52,4,26.8,26.8,0,0,0,6.11,3.4,74.68,74.68,0,0,0,8.9,3,76.78,76.78,0,0,1,12.33,4.5,34.7,34.7,0,0,1,8.56,5.56,19.76,19.76,0,0,1,5,7,22.29,22.29,0,0,1,1.65,8.79,20.52,20.52,0,0,1-2.08,9.28,20.23,20.23,0,0,1-5.93,7.09A28.62,28.62,0,0,1,810,298.1a42.46,42.46,0,0,1-12,1.58,41.11,41.11,0,0,1-11.44-1.61,33.54,33.54,0,0,1-10.2-4.84,24.9,24.9,0,0,1-7.32-8,21.79,21.79,0,0,1-2.74-11h11.07a15.42,15.42,0,0,0,1.67,7.41,14.64,14.64,0,0,0,4.58,5.1,20.62,20.62,0,0,0,6.63,3,31.34,31.34,0,0,0,7.75.95,26.53,26.53,0,0,0,9.86-1.62,13.22,13.22,0,0,0,6.13-4.61A12,12,0,0,0,816.07,277.32Z"/><path class="cls-1" d="M837,268.05v-1.33a38.72,38.72,0,0,1,2-12.53,29.86,29.86,0,0,1,5.64-10.09,25.77,25.77,0,0,1,8.94-6.69A28,28,0,0,1,865.28,235a28.47,28.47,0,0,1,11.85,2.39,26.05,26.05,0,0,1,9,6.69,29.75,29.75,0,0,1,5.67,10.09,38.72,38.72,0,0,1,2,12.53v1.33a38.49,38.49,0,0,1-2,12.5,29.9,29.9,0,0,1-5.67,10.06,26,26,0,0,1-8.94,6.68,27.83,27.83,0,0,1-11.78,2.39,28.11,28.11,0,0,1-11.82-2.39,26,26,0,0,1-9-6.68A29.73,29.73,0,0,1,839,280.55,38.49,38.49,0,0,1,837,268.05Zm10.66-1.33v1.33a34,34,0,0,0,1.09,8.78,22.73,22.73,0,0,0,3.32,7.29,15.54,15.54,0,0,0,13.34,6.8,15.32,15.32,0,0,0,13.19-6.8,23.62,23.62,0,0,0,3.32-7.29,33.15,33.15,0,0,0,1.12-8.78v-1.33a33,33,0,0,0-1.12-8.73,23.58,23.58,0,0,0-3.34-7.32,16.38,16.38,0,0,0-5.54-5,17,17,0,0,0-15.44,0,16.25,16.25,0,0,0-5.53,5,23.09,23.09,0,0,0-3.32,7.32A33.9,33.9,0,0,0,847.65,266.72Z"/><path class="cls-1" d="M936.28,236.18v8.18H902.51v-8.18ZM923,298.53H912.37V229.61a24.1,24.1,0,0,1,2.45-11.39,16.31,16.31,0,0,1,7.06-7,23.53,23.53,0,0,1,11-2.39,29.92,29.92,0,0,1,7.37.92l-.57,8.71a17.07,17.07,0,0,0-2.74-.41c-1-.07-2-.11-3-.11a12,12,0,0,0-5.85,1.35,8.77,8.77,0,0,0-3.71,4,14.43,14.43,0,0,0-1.27,6.4Z"/><path class="cls-1" d="M974.26,236.18v8.18H940.55v-8.18ZM952,221h10.66v62.07a9.37,9.37,0,0,0,1,4.78,4.63,4.63,0,0,0,2.54,2.13,10.35,10.35,0,0,0,3.34.52,15.42,15.42,0,0,0,2.79-.26c1-.17,1.72-.32,2.22-.43l.06,8.7a26.69,26.69,0,0,1-8.24,1.15,16.64,16.64,0,0,1-7.21-1.55,11.49,11.49,0,0,1-5.21-5.22Q952,289.25,952,283Z"/><path class="cls-1" d="M991.78,236.18,1005.44,288l1,10.49h-7.2l-18.1-62.35Zm10.78,51.29,16-51.29h7l-1.38,10.2-16.31,52.15h-6.86Zm24.61-51.29,15.67,50.42,1.79,11.93h-6.8l-16.77-52.27-1.39-10.08Zm13.77,51.46,13-51.46h10.61l-18.1,62.35h-7.14Z"/><path class="cls-1" d="M1114.07,260.73l.12,7.49h-10.78a41.34,41.34,0,0,0-8.12.72,19.08,19.08,0,0,0-6,2.16,10.29,10.29,0,0,0-3.69,3.6,9.82,9.82,0,0,0-1.26,5,11,11,0,0,0,1.32,5.36,9.43,9.43,0,0,0,4,3.84,14,14,0,0,0,6.6,1.41,17.48,17.48,0,0,0,8.64-2.08,18.24,18.24,0,0,0,6-5.07,11.13,11.13,0,0,0,2.39-5.82l4.55,5.13a15.56,15.56,0,0,1-2.19,5.36,25.68,25.68,0,0,1-4.75,5.62,25.42,25.42,0,0,1-7,4.44,22.8,22.8,0,0,1-9.13,1.75,23.67,23.67,0,0,1-11.09-2.47,18.65,18.65,0,0,1-7.38-6.66,17.22,17.22,0,0,1-2.62-9.36,19.1,19.1,0,0,1,2-8.85,17.2,17.2,0,0,1,5.64-6.4,27.35,27.35,0,0,1,8.88-3.89,47,47,0,0,1,11.58-1.32Zm-1.84,27.14v-32.1a13.41,13.41,0,0,0-1.47-6.43,10,10,0,0,0-4.41-4.23,15.86,15.86,0,0,0-7.26-1.5A16.88,16.88,0,0,0,1092,245a12.25,12.25,0,0,0-4.73,3.63,7.91,7.91,0,0,0-1.7,4.84h-10.66a14.13,14.13,0,0,1,1.73-6.62,19.59,19.59,0,0,1,5-6,25.11,25.11,0,0,1,7.83-4.26,31.11,31.11,0,0,1,10.23-1.59,29.42,29.42,0,0,1,12,2.31,18.22,18.22,0,0,1,8.18,6.94,21.18,21.18,0,0,1,3,11.62v29a42.51,42.51,0,0,0,.55,6.63,24.84,24.84,0,0,0,1.64,6.05v.92H1114a19.94,19.94,0,0,1-1.27-4.93A38.43,38.43,0,0,1,1112.23,287.87Z"/><path class="cls-1" d="M1150.32,246v52.56h-10.66V236.18H1150Zm19.48-10.14-.06,9.91a18.68,18.68,0,0,0-2.5-.37c-.79-.06-1.68-.09-2.68-.09a17.27,17.27,0,0,0-6.51,1.15,13.56,13.56,0,0,0-4.79,3.23,15.31,15.31,0,0,0-3.08,4.93,23.35,23.35,0,0,0-1.47,6.25l-3,1.73a47.79,47.79,0,0,1,1.13-10.6,28.75,28.75,0,0,1,3.48-8.79,17.45,17.45,0,0,1,6-6,16.89,16.89,0,0,1,8.74-2.16,16.16,16.16,0,0,1,2.65.26A8.69,8.69,0,0,1,1169.8,235.83Z"/><path class="cls-1" d="M1204.44,299.68a30.32,30.32,0,0,1-11.79-2.21,26.19,26.19,0,0,1-9.05-6.26,27.94,27.94,0,0,1-5.79-9.56,35.25,35.25,0,0,1-2-12.11v-2.42a38.28,38.28,0,0,1,2.24-13.57,30.33,30.33,0,0,1,6.11-10.11,26.2,26.2,0,0,1,8.76-6.28,25.05,25.05,0,0,1,10.14-2.14,26.76,26.76,0,0,1,11.56,2.31,21.19,21.19,0,0,1,8,6.42,27.9,27.9,0,0,1,4.61,9.69,46.43,46.43,0,0,1,1.5,12.13v4.78h-46.57v-8.7H1218v-.81a27.36,27.36,0,0,0-1.7-8.07,14.74,14.74,0,0,0-4.64-6.45c-2.11-1.69-5-2.54-8.65-2.54a14.71,14.71,0,0,0-6.68,1.53,14.54,14.54,0,0,0-5.24,4.52,22.54,22.54,0,0,0-3.41,7.32,37.39,37.39,0,0,0-1.21,10v2.42a27.46,27.46,0,0,0,1.24,8.33,20.8,20.8,0,0,0,3.63,6.83,17,17,0,0,0,5.83,4.61A17.46,17.46,0,0,0,1205,291a18.63,18.63,0,0,0,9.57-2.3,23.86,23.86,0,0,0,6.86-6.17l6.45,5.13a29.29,29.29,0,0,1-5.13,5.82,24.76,24.76,0,0,1-7.63,4.5A30,30,0,0,1,1204.44,299.68Z"/><text class="cls-3" transform="translate(533.3 351.15)"><tspan class="cls-4">A</tspan><tspan x="25.01" y="0">ma</tspan><tspan class="cls-5" x="78.68" y="0">r</tspan><tspan x="91.89" y="0">o Net</tspan><tspan class="cls-4" x="183.36" y="0">t</tspan><tspan x="195.72" y="0">o |</tspan><tspan class="cls-6" x="236.37" y="0"> </tspan><tspan class="cls-7" x="244.93" y="0">T</tspan><tspan class="cls-8" x="267.09" y="0">r</tspan><tspan x="280.17" y="0">a</tspan><tspan class="cls-9" x="300.68" y="0">z</tspan><tspan x="319.69" y="0">endo Soluções</tspan></text><rect class="cls-10" x="412.23" y="314.28" width="816.47" height="3.67"/></svg>