<svg id="Camada_1" data-name="Camada 1" xmlns="http://www.w3.org/2000/svg" viewBox="0 0 500 500"><defs><style>.cls-1{fill:#0071bc;}.cls-2{font-size:25.71px;fill:#444;}.cls-3{letter-spacing:-0.01em;}.cls-4{letter-spacing:-0.01em;}.cls-5{letter-spacing:0em;}.cls-6{letter-spacing:-0.02em;}.cls-7{letter-spacing:-0.03em;}.cls-8{letter-spacing:-0.02em;}.cls-9{letter-spacing:-0.01em;}.cls-10{letter-spacing:0em;}</style></defs><path class="cls-1" d="M240.77,60.48c2.88-6.84.86-15.36-4.51-19s-12-1.09-14.92,5.75l-27.5,65.43h25Z"/><path class="cls-1" d="M293.19,112.63h25L290.71,47.2c-2.87-6.84-9.55-9.42-14.93-5.75s-7.38,12.19-4.51,19Z"/><circle class="cls-1" cx="247.33" cy="171.81" r="9.66"/><circle class="cls-1" cx="192.83" cy="295.66" r="9.66" transform="translate(-120.39 458.42) rotate(-84.35)"/><path class="cls-1" d="M387,134.56l-7.35-5.47a29,29,0,0,0-14-3.71H146.41c-23.53,0-40.54,28.7-34.12,57.57L143,320.85c4.33,19.46,18.26,32.89,34.13,32.89H335c15.86,0,29.8-13.43,34.12-32.89L399.77,183C404,164.06,398.1,145.31,387,134.56ZM213,239.45v-.69h.29l23-53.81a17.14,17.14,0,1,1,11,4,17.73,17.73,0,0,1-2.93-.26l-21,50.06h43.85l-6.21-14.45,4.85-11.22,14.85,34.55H276.3v0H209.52Zm113.65,60.8H292.56l-9.25-23.88H239.62l-10,23.88H209.34a17.15,17.15,0,1,1,.08-8.89h13.79l10.15-23.88H289l10,23.88h23.87L269.77,167.83l9.67,0,56.93,132.47Z"/><text class="cls-2" transform="translate(76.34 458.57)"><tspan class="cls-3">A</tspan><tspan x="16.85" y="0">ma</tspan><tspan class="cls-4" x="52.99" y="0">r</tspan><tspan class="cls-5" x="61.89" y="0">o Net</tspan><tspan class="cls-3" x="123.49" y="0">t</tspan><tspan x="131.81" y="0">o |</tspan><tspan class="cls-6" x="159.19" y="0"> </tspan><tspan class="cls-7" x="164.95" y="0">T</tspan><tspan class="cls-8" x="179.87" y="0">r</tspan><tspan x="188.69" y="0">a</tspan><tspan class="cls-9" x="202.49" y="0">z</tspan><tspan class="cls-10" x="215.3" y="0">endo Soluções</tspan></text><path d="M94.7,392.24l-13,35.87H76.34l15-39.36h3.43Zm10.24,21.3v4.27H82.83v-4.27Zm.68,14.57L92.56,392.24l-.08-3.49h3.43L111,428.11Z"/><path d="M120.46,404.67v23.44h-5V398.86h4.76Zm-1,7.71-2.32-.08a20,20,0,0,1,.78-5.56,13.08,13.08,0,0,1,2.24-4.44,10.09,10.09,0,0,1,3.71-2.94,13,13,0,0,1,8.92-.46,7.84,7.84,0,0,1,3,1.83,8.43,8.43,0,0,1,2,3.19,13.85,13.85,0,0,1,.7,4.7v19.49h-5V408.86a7.44,7.44,0,0,0-.77-3.67,4.66,4.66,0,0,0-2.17-2,8,8,0,0,0-3.3-.63,7.89,7.89,0,0,0-3.7.78,6.29,6.29,0,0,0-2.38,2.16,9.42,9.42,0,0,0-1.29,3.15A17.39,17.39,0,0,0,119.43,412.38Zm18.95-2.76-3.35,1a14.28,14.28,0,0,1,.79-4.62,12.34,12.34,0,0,1,2.25-3.95,10.56,10.56,0,0,1,3.63-2.74,11.49,11.49,0,0,1,5-1,13.08,13.08,0,0,1,4.18.62,7.8,7.8,0,0,1,3.08,1.91,8.21,8.21,0,0,1,1.9,3.28,15.3,15.3,0,0,1,.65,4.76v19.22h-5V408.84a7.79,7.79,0,0,0-.78-3.83,4.21,4.21,0,0,0-2.16-1.92,8.93,8.93,0,0,0-3.31-.55,7.08,7.08,0,0,0-2.92.57,5.87,5.87,0,0,0-2.13,1.55,6.64,6.64,0,0,0-1.31,2.26A8,8,0,0,0,138.38,409.62Z"/><path d="M182.14,410.38l.06,3.51h-5.06a19.06,19.06,0,0,0-3.81.34,9.06,9.06,0,0,0-2.81,1,4.76,4.76,0,0,0-1.73,1.69,4.59,4.59,0,0,0-.6,2.37,5.08,5.08,0,0,0,.63,2.51,4.4,4.4,0,0,0,1.87,1.8,6.61,6.61,0,0,0,3.1.66,8.2,8.2,0,0,0,4.05-1,8.55,8.55,0,0,0,2.8-2.38,5.18,5.18,0,0,0,1.12-2.73l2.14,2.41a7.37,7.37,0,0,1-1,2.51,11.69,11.69,0,0,1-2.23,2.63,12,12,0,0,1-3.3,2.09,10.68,10.68,0,0,1-4.28.82,11.14,11.14,0,0,1-5.2-1.16,8.82,8.82,0,0,1-3.46-3.12,8.11,8.11,0,0,1-1.23-4.4,9.05,9.05,0,0,1,.91-4.15,8.35,8.35,0,0,1,2.65-3A12.73,12.73,0,0,1,170.9,411a22.14,22.14,0,0,1,5.43-.62Zm-.86,12.73V408.05a6.25,6.25,0,0,0-.69-3,4.69,4.69,0,0,0-2.07-2,7.42,7.42,0,0,0-3.41-.7,8,8,0,0,0-3.31.65,5.66,5.66,0,0,0-2.21,1.7,3.64,3.64,0,0,0-.8,2.27h-5a6.65,6.65,0,0,1,.81-3.11,9.1,9.1,0,0,1,2.34-2.79,11.54,11.54,0,0,1,3.67-2,14.52,14.52,0,0,1,4.8-.75,13.84,13.84,0,0,1,5.64,1.08,8.57,8.57,0,0,1,3.84,3.26,10,10,0,0,1,1.39,5.45v13.62a20.41,20.41,0,0,0,.25,3.11,12.39,12.39,0,0,0,.77,2.84v.43h-5.21a9.33,9.33,0,0,1-.6-2.31A18.85,18.85,0,0,1,181.28,423.11Z"/><path d="M199.14,403.46v24.65h-5V398.86H199Zm9.14-4.76,0,4.65a8.78,8.78,0,0,0-1.17-.18c-.37,0-.79,0-1.26,0a8,8,0,0,0-3,.54,6.26,6.26,0,0,0-2.25,1.52,7.17,7.17,0,0,0-1.44,2.31,11.12,11.12,0,0,0-.69,2.93l-1.41.81a22.54,22.54,0,0,1,.53-5,13.4,13.4,0,0,1,1.63-4.12,8.1,8.1,0,0,1,2.83-2.81,7.86,7.86,0,0,1,4.09-1,7.58,7.58,0,0,1,1.25.12A3.81,3.81,0,0,1,208.28,398.7Z"/><path d="M211,413.81v-.62a18,18,0,0,1,.92-5.88,14.09,14.09,0,0,1,2.64-4.73,12.17,12.17,0,0,1,4.19-3.14,13.28,13.28,0,0,1,5.52-1.12,13.42,13.42,0,0,1,5.55,1.12,12.19,12.19,0,0,1,4.22,3.14,14,14,0,0,1,2.66,4.73,18,18,0,0,1,.92,5.88v.62a18,18,0,0,1-.92,5.87,14,14,0,0,1-2.66,4.71,12.14,12.14,0,0,1-4.19,3.14,14.24,14.24,0,0,1-11.07,0,12.08,12.08,0,0,1-4.2-3.14,14,14,0,0,1-2.66-4.71A18,18,0,0,1,211,413.81Zm5-.62v.62a16.09,16.09,0,0,0,.51,4.12,10.5,10.5,0,0,0,1.56,3.42,7.26,7.26,0,0,0,6.25,3.19,7.19,7.19,0,0,0,6.19-3.19,10.93,10.93,0,0,0,1.56-3.42,15.66,15.66,0,0,0,.52-4.12v-.62a15.62,15.62,0,0,0-.52-4.1,11.22,11.22,0,0,0-1.57-3.43,7.53,7.53,0,0,0-2.6-2.36,8,8,0,0,0-7.24,0,7.5,7.5,0,0,0-2.59,2.36,10.75,10.75,0,0,0-1.56,3.43A16,16,0,0,0,216,413.19Z"/><path class="cls-1" d="M265.67,418.16a6.6,6.6,0,0,0-.42-2.44,4.84,4.84,0,0,0-1.46-1.94,12,12,0,0,0-2.87-1.64,38.66,38.66,0,0,0-4.61-1.6,42.09,42.09,0,0,1-5.27-1.93,18,18,0,0,1-4-2.45,9.71,9.71,0,0,1-2.56-3.16,8.94,8.94,0,0,1-.89-4.08,9.62,9.62,0,0,1,.94-4.25,10,10,0,0,1,2.72-3.39,13.15,13.15,0,0,1,4.23-2.26,17.47,17.47,0,0,1,5.48-.81,15.58,15.58,0,0,1,7.53,1.69,12.07,12.07,0,0,1,4.72,4.41,11.12,11.12,0,0,1,1.62,5.8h-5.19a8.05,8.05,0,0,0-.94-3.94,6.71,6.71,0,0,0-2.87-2.7,10.58,10.58,0,0,0-4.87-1,10.94,10.94,0,0,0-4.59.84,6,6,0,0,0-2.69,2.27,6.11,6.11,0,0,0-.88,3.27,4.86,4.86,0,0,0,.53,2.26A5.74,5.74,0,0,0,251,403a12.44,12.44,0,0,0,2.86,1.59A35.55,35.55,0,0,0,258,406a36,36,0,0,1,5.78,2.11,16.05,16.05,0,0,1,4,2.61,9.26,9.26,0,0,1,2.35,3.27,10.54,10.54,0,0,1,.77,4.12,9.72,9.72,0,0,1-1,4.35,9.47,9.47,0,0,1-2.79,3.33,13.42,13.42,0,0,1-4.34,2.12,20.09,20.09,0,0,1-5.63.74,19.19,19.19,0,0,1-5.37-.76,15.72,15.72,0,0,1-4.78-2.27,11.56,11.56,0,0,1-3.43-3.74,10.16,10.16,0,0,1-1.29-5.18h5.19a7.16,7.16,0,0,0,.79,3.48,6.81,6.81,0,0,0,2.14,2.39,9.66,9.66,0,0,0,3.11,1.39,14.58,14.58,0,0,0,3.64.45,12.55,12.55,0,0,0,4.62-.76,6.26,6.26,0,0,0,2.88-2.16A5.65,5.65,0,0,0,265.67,418.16Z"/><path class="cls-1" d="M275.48,413.81v-.62a18,18,0,0,1,.92-5.88,13.94,13.94,0,0,1,2.65-4.73,12.07,12.07,0,0,1,4.19-3.14,13.23,13.23,0,0,1,5.51-1.12,13.39,13.39,0,0,1,5.55,1.12,12.19,12.19,0,0,1,4.22,3.14,14,14,0,0,1,2.66,4.73,18,18,0,0,1,.92,5.88v.62a18,18,0,0,1-.92,5.87,14,14,0,0,1-2.66,4.71,12.14,12.14,0,0,1-4.19,3.14,14.24,14.24,0,0,1-11.07,0,12.08,12.08,0,0,1-4.2-3.14,14,14,0,0,1-2.66-4.71A18,18,0,0,1,275.48,413.81Zm5-.62v.62a16.09,16.09,0,0,0,.51,4.12,10.5,10.5,0,0,0,1.56,3.42,7.26,7.26,0,0,0,6.25,3.19,7.19,7.19,0,0,0,6.19-3.19,10.93,10.93,0,0,0,1.56-3.42,15.66,15.66,0,0,0,.53-4.12v-.62a15.61,15.61,0,0,0-.53-4.1,11.22,11.22,0,0,0-1.57-3.43,7.59,7.59,0,0,0-2.59-2.36,8,8,0,0,0-7.25,0,7.5,7.5,0,0,0-2.59,2.36,10.75,10.75,0,0,0-1.56,3.43A16,16,0,0,0,280.48,413.19Z"/><path class="cls-1" d="M322.05,398.86v3.84H306.21v-3.84Zm-6.22,29.25h-5V395.78a11.39,11.39,0,0,1,1.15-5.34,7.7,7.7,0,0,1,3.31-3.3,11.16,11.16,0,0,1,5.14-1.12,14.52,14.52,0,0,1,1.74.11,12.16,12.16,0,0,1,1.72.33l-.27,4.08a7.69,7.69,0,0,0-1.28-.19c-.48,0-.95-.06-1.42-.06a5.64,5.64,0,0,0-2.75.64,4.16,4.16,0,0,0-1.74,1.85,6.74,6.74,0,0,0-.6,3Z"/><path class="cls-1" d="M339.87,398.86v3.84H324.05v-3.84Zm-10.47-7.11h5v29.12a4.46,4.46,0,0,0,.46,2.24,2.24,2.24,0,0,0,1.19,1,5,5,0,0,0,1.57.24,7.6,7.6,0,0,0,1.31-.12l1-.2,0,4.08a11.69,11.69,0,0,1-1.55.36,12.78,12.78,0,0,1-2.32.18,7.7,7.7,0,0,1-3.37-.73,5.33,5.33,0,0,1-2.45-2.45,10,10,0,0,1-.91-4.63Z"/><path class="cls-1" d="M348.08,398.86l6.41,24.33.46,4.92h-3.38l-8.49-29.25Zm5.06,24.06,7.51-24.06H364l-.65,4.79-7.65,24.46h-3.22Zm11.54-24.06L372,422.51l.84,5.6h-3.19l-7.87-24.52-.64-4.73ZM371.14,423l6.11-24.14h5l-8.49,29.25h-3.35Z"/><path class="cls-1" d="M405.44,410.38l.06,3.51h-5.06a19.06,19.06,0,0,0-3.81.34,9.06,9.06,0,0,0-2.81,1,4.76,4.76,0,0,0-1.73,1.69,4.59,4.59,0,0,0-.6,2.37,5.08,5.08,0,0,0,.63,2.51,4.4,4.4,0,0,0,1.87,1.8,6.61,6.61,0,0,0,3.1.66,8.2,8.2,0,0,0,4.05-1,8.55,8.55,0,0,0,2.8-2.38,5.18,5.18,0,0,0,1.12-2.73l2.14,2.41a7.37,7.37,0,0,1-1,2.51,11.69,11.69,0,0,1-2.23,2.63,12,12,0,0,1-3.3,2.09,10.68,10.68,0,0,1-4.28.82,11.14,11.14,0,0,1-5.2-1.16,8.82,8.82,0,0,1-3.46-3.12,8.11,8.11,0,0,1-1.23-4.4,9.05,9.05,0,0,1,.91-4.15,8.35,8.35,0,0,1,2.65-3A12.82,12.82,0,0,1,394.2,411a22.14,22.14,0,0,1,5.43-.62Zm-.86,12.73V408.05a6.25,6.25,0,0,0-.69-3,4.69,4.69,0,0,0-2.07-2,7.45,7.45,0,0,0-3.41-.7,8,8,0,0,0-3.31.65,5.66,5.66,0,0,0-2.21,1.7,3.64,3.64,0,0,0-.8,2.27h-5a6.65,6.65,0,0,1,.81-3.11,9.1,9.1,0,0,1,2.34-2.79,11.54,11.54,0,0,1,3.67-2,14.52,14.52,0,0,1,4.8-.75,13.84,13.84,0,0,1,5.64,1.08,8.49,8.49,0,0,1,3.83,3.26,9.92,9.92,0,0,1,1.4,5.45v13.62a20.41,20.41,0,0,0,.25,3.11,11.9,11.9,0,0,0,.77,2.84v.43h-5.21a9.33,9.33,0,0,1-.6-2.31A18.85,18.85,0,0,1,404.58,423.11Z"/><path class="cls-1" d="M422.44,403.46v24.65h-5V398.86h4.87Zm9.14-4.76,0,4.65a8.78,8.78,0,0,0-1.17-.18c-.37,0-.79,0-1.26,0a8,8,0,0,0-3.05.54,6.26,6.26,0,0,0-2.25,1.52,7.17,7.17,0,0,0-1.44,2.31,10.39,10.39,0,0,0-.69,2.93l-1.41.81a22.54,22.54,0,0,1,.53-5,13.65,13.65,0,0,1,1.63-4.12,8.1,8.1,0,0,1,2.83-2.81,7.86,7.86,0,0,1,4.09-1,7.58,7.58,0,0,1,1.25.12A3.81,3.81,0,0,1,431.58,398.7Z"/><path class="cls-1" d="M447.83,428.65a14.19,14.19,0,0,1-5.53-1,12.2,12.2,0,0,1-4.25-2.93,13,13,0,0,1-2.71-4.49,16.47,16.47,0,0,1-.95-5.68v-1.13a17.84,17.84,0,0,1,1.06-6.37,14.2,14.2,0,0,1,2.86-4.74,12.34,12.34,0,0,1,4.11-2.95,11.92,11.92,0,0,1,4.76-1,12.6,12.6,0,0,1,5.42,1.08,9.91,9.91,0,0,1,3.74,3A13.18,13.18,0,0,1,458.5,407a21.73,21.73,0,0,1,.71,5.69v2.24H437.36v-4.08H454.2v-.38a12.56,12.56,0,0,0-.79-3.78,6.89,6.89,0,0,0-2.18-3,6.32,6.32,0,0,0-4.05-1.19,6.9,6.9,0,0,0-3.14.72,6.7,6.7,0,0,0-2.46,2.12A10.56,10.56,0,0,0,440,408.7a17.33,17.33,0,0,0-.57,4.68v1.13a12.75,12.75,0,0,0,.58,3.91,9.62,9.62,0,0,0,1.7,3.2,8,8,0,0,0,2.73,2.16,8.18,8.18,0,0,0,3.67.79,8.69,8.69,0,0,0,4.48-1.08,11.16,11.16,0,0,0,3.22-2.89l3,2.4a13.81,13.81,0,0,1-2.41,2.73,11.42,11.42,0,0,1-3.58,2.11A14.07,14.07,0,0,1,447.83,428.65Z"/></svg>