<svg id="Camada_1" data-name="Camada 1" xmlns="http://www.w3.org/2000/svg" viewBox="0 0 1192.79 239.29"><defs><style>.cls-1{fill:#fff;}</style></defs><path class="cls-1" d="M87.26,170.64h84.53q7.46,17.79,15,35.82h35.86C195.93,144.22,169.17,82.2,142.35,19.77h8.33c1.6,0,3.2.09,4.79,0A2.22,2.22,0,0,1,158,21.4c2.57,6.1,5.2,12.17,7.81,18.25l76.5,177.74c.34.8.66,1.61,1,2.5-.89.71-1.88.41-2.78.41q-28.17,0-56.36-.06h-5c-2.15,0-2.16,0-2.93-2l-8.06-20.73q-2.34-6-4.69-12c-.17-.44-.38-.86-.6-1.37H97c-.33.72-.67,1.43-1,2.15-4.45,10.58-8.93,21.15-13.3,31.77a3,3,0,0,1-3.33,2.23c-8.47-.09-16.95,0-25.43,0H51.24c-2.65,8-7.59,13.82-15.39,17a24.9,24.9,0,0,1-17.56.8A26,26,0,0,1,.14,210.33a25.7,25.7,0,0,1,22.07-22.87c13.45-2,25.3,6.12,29.09,19H72ZM26,198.72a14.46,14.46,0,1,0,14.54,14.33A14.35,14.35,0,0,0,26,198.72Z"/><path class="cls-1" d="M410.84,109.88H394.22c-.49-1.8-.59-82.12-.1-84.79h27.27c3.1,10,5.95,20.2,8.66,30.42s5.27,20.51,8,31.1c5.21-21,11.87-41.21,18.39-61.53H482.8V109.9H465c.13-23.89.27-47.62.4-71.36-6.14,24-13.47,47.6-20.7,71.37H428.82C422.49,86.23,416,62.6,410.06,38.75c.26,11.77.62,23.55.75,35.32S410.84,97.83,410.84,109.88Z"/><path class="cls-1" d="M95.2,127h43.18c-.27-.77-.45-1.42-.72-2q-3.85-9-7.75-18a3,3,0,0,1-.23-2.7c2.22-4.94,4.33-9.94,6.49-14.91a5.92,5.92,0,0,1,.69-.88c7.48,17.41,14.89,34.62,22.31,51.87-2.4.58-104.9.71-107.88.15,13.43-31.57,27-63,40.37-94.44-11.92-11.07-10.8-26-4.57-34.85a26.22,26.22,0,0,1,31-9.34,25.92,25.92,0,0,1,16.22,27.35A25.26,25.26,0,0,1,124,46.85c-5.87,4.37-12.55,5.69-19.81,4.79L72.6,126.92c.89,0,1.51.12,2.12.12h14c5.71-13.56,11.37-27,17.08-40.59a11.57,11.57,0,0,1-4.15-9.06,10.92,10.92,0,0,1,2.53-6.82,11.46,11.46,0,0,1,13.26-3.16,11.21,11.21,0,0,1,6.48,12.17c-1,5.69-5.16,8.84-12.62,9.42Zm13.48-86.57A14.47,14.47,0,1,0,94.11,26.13,14.41,14.41,0,0,0,108.68,40.41Zm-2,37.22A6.18,6.18,0,1,0,113,71.5,6.28,6.28,0,0,0,106.7,77.63Z"/><path class="cls-1" d="M850.16,85.46c-.13-19.85-.26-40-.4-60.36h16.58c.47,1.64.68,80.47.19,84.8-.65,0-1.35.15-2,.15-5.83,0-11.67,0-17.5,0a2.92,2.92,0,0,1-3-1.75c-11.2-20.6-22.73-41-33.16-62a1.37,1.37,0,0,0-.57-.59c-.28,7.07.32,14.14.28,21.21s0,14.21.05,21.31,0,14.34,0,21.67H793.82V25.15h23Z"/><path class="cls-1" d="M635.24,109.88a29.56,29.56,0,0,1-1.63-9.78c-.15-3.5,0-7-.15-10.53a36.09,36.09,0,0,0-.56-5.7A8.21,8.21,0,0,0,627,77.26a19.41,19.41,0,0,0-4.9-1c-5.12-.17-10.23-.15-15.35-.19a8.58,8.58,0,0,0-1.19.19V109.6c-2,.56-15.39.64-18,.16V25.18A11.88,11.88,0,0,1,589,25c12.72,0,25.43-.12,38.14.06a29,29,0,0,1,18.09,6,20.49,20.49,0,0,1,8,15.2,25.71,25.71,0,0,1-1,9.94,19.38,19.38,0,0,1-8.9,11.15l-1.66,1c.14.17.22.34.35.4,6.15,3.13,8.44,8.68,9.17,15,.39,3.32.34,6.69.42,10,.13,5.33-.13,10.67,1.14,16.12Zm-29.57-49c.31.14.45.27.59.27,6.38-.08,12.78.15,19.12-.36,5.43-.44,9.3-3.47,9.21-10.36,0-.48,0-1-.05-1.43-.3-3.65-2-6.41-5.45-7.77a19.43,19.43,0,0,0-6.23-1.39c-5.26-.2-10.53-.09-15.8-.09a10.06,10.06,0,0,0-1.39.19Z"/><path class="cls-1" d="M747.87,66.87a48.25,48.25,0,0,1-5,23c-6.26,12.2-16.35,19-29.9,20.88a47.45,47.45,0,0,1-19.7-1.18C682,106.35,674,99.34,669.46,88.64c-5.64-13.37-6-27-.52-40.53,5.37-13.32,15.48-21.09,29.63-23.66a45.57,45.57,0,0,1,22.25,1.23c13.66,4.34,21.75,14,25.42,27.54A49.42,49.42,0,0,1,747.87,66.87Zm-19,.57c-.28-2.85-.36-5.74-.89-8.55a37.18,37.18,0,0,0-2.31-7.75c-3.55-8.15-10-12.13-18.81-12.31-11.43-.22-18,6.21-20.57,15.15a47.34,47.34,0,0,0-1.63,8.67,42,42,0,0,0,2.51,20C692,94.55,702.45,98,713.31,95.18c6.93-1.79,10.91-6.88,13.23-13.38A46.53,46.53,0,0,0,728.87,67.44Z"/><path class="cls-1" d="M1192.72,67.19a45.77,45.77,0,0,1-4.12,21.17c-6.12,13-16.39,20.41-30.62,22.38a47.4,47.4,0,0,1-19.93-1.25c-11.12-3.24-19.1-10.24-23.55-20.84-5.71-13.61-6-27.53-.24-41.19,5.45-13,15.5-20.5,29.35-23a45.7,45.7,0,0,1,22.25,1.23c13.27,4.2,21.29,13.46,25.18,26.6C1192.49,57.16,1192.65,62.17,1192.72,67.19Zm-19,.24c0-1,.06-1.92,0-2.87-.36-5.28-1.26-10.44-3.81-15.18a19.07,19.07,0,0,0-12.33-9.85,24.11,24.11,0,0,0-8.32-.64c-6.7.57-12.07,3.49-15.47,9.43a30.78,30.78,0,0,0-2.63,6.13c-1.88,6.12-1.94,12.42-1.31,18.72A32.54,32.54,0,0,0,1132.77,84c4.84,10.18,13.62,13.44,23.75,11.67,7.55-1.33,12.17-6.23,14.81-13.18A41.49,41.49,0,0,0,1173.72,67.43Z"/><path class="cls-1" d="M947.56,109.9H887V25.15h60.2v15H905c-.26,6-.07,11.82-.13,17.92l10.11.05h30.32V73.31H905V94.85h44.72Z"/><path class="cls-1" d="M383,109.93H363.51l-7-19.35h-31L319,109.9H300.72c9.66-28.43,19.24-56.59,28.84-84.82h23.36ZM329.66,75.11h22.71c-3.93-12-7.81-23.91-11.73-35.89C337,51.25,333.33,63.1,329.66,75.11Z"/><path class="cls-1" d="M519.21,90.54,512.58,110H494.31q14.51-42.67,28.87-84.9h23.34c10,28.21,20,56.41,30.1,84.83-.94.08-1.55.17-2.15.17-5.12,0-10.24,0-15.35,0-2,0-2,0-2.7-1.93q-2.7-7.55-5.37-15.09c-.29-.81-.6-1.62-.93-2.49Zm15-51.31c-3.73,12.2-7.34,24-11,35.88H546C542.07,63.17,538.23,51.39,534.25,39.23Z"/><path class="cls-1" d="M1027.24,25.09V40.2h-25.6v69.34c-1.93.65-16.15.73-18.63.12V40.31c-2.93-.23-5.7-.08-8.46-.11s-5.75,0-8.63,0h-8.63c-.31-5.13-.19-10.09-.08-15.11Z"/><path class="cls-1" d="M1080.28,40.18V109.9h-18.64V40.25H1036c-.35-5.16-.18-10.12-.1-15.17h70v15.1Z"/><path class="cls-1" d="M192,182.5Q167.7,125.82,143.44,69.13A11.53,11.53,0,0,1,134,65.82,11.27,11.27,0,0,1,130.8,59,11.22,11.22,0,0,1,151,51.28c3.54,4.86,3,9.93-1.92,15.76l48.44,113.12a11.88,11.88,0,0,1,9.78,3.51,11.37,11.37,0,0,1,3,6.65c.61,5-2.51,9.53-7.5,11.53-4.69,1.89-10.31-.32-12.9-4.15S186.39,188.13,192,182.5Zm13.21,8.74a5.91,5.91,0,0,0-6.06-6,6.13,6.13,0,1,0,6.06,6ZM135.91,58a6,6,0,0,0,6.19,6.21,6.17,6.17,0,0,0,6.08-6.14,6.28,6.28,0,0,0-6.24-6.25A6.17,6.17,0,0,0,135.91,58Z"/><path class="cls-1" d="M142.29,159.1H80.92L69.36,181.58a11.47,11.47,0,0,1,3.33,10,10.66,10.66,0,0,1-3.27,6.25,11.45,11.45,0,0,1-13.53,1.6,11.2,11.2,0,0,1-5.16-12.37c1.55-5.73,5.91-8.55,13.26-8.42,1.43-2.71,2.93-5.51,4.39-8.33,2.62-5,5.32-10,7.77-15.11a3.68,3.68,0,0,1,3.91-2.3c10.71,0,21.42,0,32.13,0l28.05,0h2.06c3.07-7.25,9.21-9,14.07-7.62a11.47,11.47,0,0,1,8.14,10.93,11.13,11.13,0,0,1-9.11,10.83C150.51,167.93,145,166.14,142.29,159.1ZM67.81,189.81a6.35,6.35,0,0,0-6-6.22,6.17,6.17,0,1,0-.34,12.33A6.32,6.32,0,0,0,67.81,189.81ZM153.17,150a6.2,6.2,0,0,0-6.09,6.11,6.18,6.18,0,1,0,6.09-6.11Z"/><path class="cls-1" d="M833.16,171.51h-5.83a22.27,22.27,0,0,0-12.46-13.74,20.89,20.89,0,0,0-14.06-1,21.85,21.85,0,0,0,.88,42.45c9.18,2,20.56-2,25.5-14.44h6.09c-3.91,12.59-12.44,19.2-25.18,20.87l.12.57c.8.1,1.62.17,2.41.32a6.6,6.6,0,0,1,5.19,6.82,6.53,6.53,0,0,1-5.93,6.17,6.16,6.16,0,0,1-7-4.87,12,12,0,0,1,4.91-.07c.31,0,.66.34.9.26a4,4,0,0,0,1.95-1,2.33,2.33,0,0,0-.09-1.94,1.46,1.46,0,0,0-2.05-.69c-1.68.87-3.41.52-5.41.47v-6.11c-10-1.79-17.44-6.83-21.82-15.91a26.51,26.51,0,0,1-1.72-18.89A27.55,27.55,0,0,1,808,150.18C820.62,151.06,832.21,161.06,833.16,171.51Z"/><path class="cls-1" d="M936,205.08a27.43,27.43,0,0,1,.25-54.86,27.43,27.43,0,0,1-.25,54.86Zm0-5.74a21.73,21.73,0,0,0,21.64-21.92,21.6,21.6,0,1,0-43.19.19A21.75,21.75,0,0,0,936,199.34Z"/><path class="cls-1" d="M417.09,177.57a27.35,27.35,0,1,1,54.69.19,27.35,27.35,0,1,1-54.69-.19Zm5.69-.07a21.6,21.6,0,1,0,21.57-21.65A21.69,21.69,0,0,0,422.78,177.5Z"/><path class="cls-1" d="M339.57,167h-5.8a19.44,19.44,0,0,1-.38-2,8.33,8.33,0,0,0-4.38-6.77c-5.27-3-10.75-3.08-15.95,0-5.84,3.48-5.85,10.53-.25,14.4a14,14,0,0,0,7.69,2.25,55.87,55.87,0,0,1,8.1.61,15.47,15.47,0,0,1,10.42,7,13.59,13.59,0,0,1-1.3,16.82,17.1,17.1,0,0,1-9.35,5.48,32.67,32.67,0,0,1-15.66-.27,16.64,16.64,0,0,1-9.44-6.57,13.65,13.65,0,0,1-2.43-9.93,11.83,11.83,0,0,1,6.1-.18c0,.57,0,1.18,0,1.79a8.28,8.28,0,0,0,3.24,6.89,12.19,12.19,0,0,0,7.47,2.83c2.32.05,4.64.09,7,0a11.65,11.65,0,0,0,7.93-3.46,7.78,7.78,0,0,0,0-11.52c-2.56-2.59-5.8-3.49-9.34-3.66a73.63,73.63,0,0,1-7.87-.6c-7.52-1.19-13.39-8.4-12.92-15.77.28-4.35,2.52-7.67,5.86-10.28,7.11-5.54,19-5.35,25.92.36A14.2,14.2,0,0,1,339.57,167Z"/><path class="cls-1" d="M1152.52,187.72h5.94c0,.74.12,1.37.11,2a8.36,8.36,0,0,0,3.84,7.3,12.15,12.15,0,0,0,6.91,2.37c2.32,0,4.64.08,7,0a11.83,11.83,0,0,0,7.41-3c4-3.5,4.07-8.73.14-12.35-2.54-2.34-5.64-3.15-9-3.3a62.72,62.72,0,0,1-7.39-.57,15.88,15.88,0,0,1-12.16-9.12c-2.44-5-1.56-10,2-14.33,3.37-4.14,8-6.1,13.15-6.55,5.85-.5,11.3.68,15.87,4.64a14.5,14.5,0,0,1,5.06,12.21h-5.88c-.11-.43-.24-.8-.3-1.18-.93-5.44-3.65-8.44-9-9.42a15.56,15.56,0,0,0-8.53.42,15,15,0,0,0-4.82,3c-3.31,3.14-3.33,7.77-.25,11.17,2.52,2.78,5.82,3.74,9.46,3.9,2.63.11,5.27.22,7.87.54a15.33,15.33,0,0,1,7.34,3.3c7.29,5.44,7.61,17.1-.07,22.74a19.71,19.71,0,0,1-10.39,3.93c-4.14.31-8.32.43-12.37-.8a17.24,17.24,0,0,1-9.6-6.76A13.68,13.68,0,0,1,1152.52,187.72Z"/><path class="cls-1" d="M1046.56,199.46h30.32v5.91h-36.11c-.51-1.7-.72-50.63-.25-54.92,1.68-.47,33.08-.6,36.19-.12v5.82h-30.3v18.63h22.09v5.87h-21.73C1046.16,182.49,1046,196.05,1046.56,199.46Z"/><path class="cls-1" d="M659.47,150.2h6v2.93c0,9.74,0,19.47,0,29.21a24.41,24.41,0,0,0,.67,5.91c1.55,6,7.82,12.32,17.62,11.11a15.87,15.87,0,0,0,13.43-15.19c.09-10.3,0-20.59,0-30.89v-3h5.7a12.34,12.34,0,0,1,.2,1.59c0,10.69.09,21.39,0,32.08a21.55,21.55,0,0,1-16.59,20.87c-13.49,3.48-27-6.93-27.06-20.81q0-15.55,0-31.12Z"/><path class="cls-1" d="M547.36,205.36v-55c1.84-.55,3.71-.27,5.88-.15v49.23h30.6v5.92Z"/><path class="cls-1" d="M941.8,140.59c.12.1.3.17.36.3.5,1.05,2,1.79,1,3.33a4.52,4.52,0,0,1-4.71,2.1,11.36,11.36,0,0,1-2.24-.82c-2.87-1.33-3-1.3-4.87,1.16-.09.11-.27.14-.57.29l-1.69-2.66c1.74-3.17,3.42-3.87,6.54-2.85.23.08.44.19.66.27C939.51,143,939.51,143,941.8,140.59Z"/></svg>