<?xml version="1.0" encoding="utf-8"?>
<!-- Generator: Adobe Illustrator 26.2.1, SVG Export Plug-In . SVG Version: 6.00 Build 0)  -->
<svg version="1.1" id="Camada_1" xmlns="http://www.w3.org/2000/svg" xmlns:xlink="http://www.w3.org/1999/xlink" x="0px" y="0px"
	 viewBox="0 0 243.3 239.3" style="enable-background:new 0 0 243.3 239.3;" xml:space="preserve">
<style type="text/css">
	.st0{fill:#FFFFFF;}
</style>
<g id="Camada_2_00000077318413329056949580000011211601953525165472_">
	<g id="Camada_1-2">
		<path class="st0" d="M87.3,170.6h84.5c5,11.9,10,23.8,15,35.8h35.9c-26.7-62.2-53.5-124.3-80.3-186.7h8.3c1.6,0,3.2,0.1,4.8,0
			c1.1-0.2,2.2,0.5,2.5,1.6c2.6,6.1,5.2,12.2,7.8,18.3l76.5,177.7c0.3,0.8,0.7,1.6,1,2.5c-0.9,0.7-1.9,0.4-2.8,0.4
			c-18.8,0-37.6,0-56.4-0.1h-5c-2.1,0-2.2,0-2.9-2l-8.1-20.7c-1.6-4-3.1-8-4.7-12c-0.2-0.4-0.4-0.9-0.6-1.4H97
			c-0.3,0.7-0.7,1.4-1,2.1c-4.4,10.6-8.9,21.1-13.3,31.8c-0.4,1.5-1.8,2.4-3.3,2.2c-8.5-0.1-17,0-25.4,0h-2.7
			c-2.7,8-7.6,13.8-15.4,17c-5.6,2.4-11.8,2.7-17.6,0.8c-11.9-3.7-19.6-15.3-18.2-27.8c1.2-11.8,10.3-21.3,22.1-22.9
			c13.5-2,25.3,6.1,29.1,19H72L87.3,170.6z M26,198.7c-8,0-14.4,6.6-14.4,14.5s6.6,14.4,14.5,14.4c8,0,14.4-6.6,14.4-14.5
			c0,0,0,0,0,0c0-7.9-6.4-14.3-14.4-14.3C26.1,198.7,26.1,198.7,26,198.7z"/>
		<path class="st0" d="M95.2,127h43.2c-0.3-0.8-0.4-1.4-0.7-2c-2.6-6-5.2-12-7.8-18c-0.5-0.8-0.6-1.8-0.2-2.7
			c2.2-4.9,4.3-9.9,6.5-14.9c0.2-0.3,0.4-0.6,0.7-0.9c7.5,17.4,14.9,34.6,22.3,51.9c-2.4,0.6-104.9,0.7-107.9,0.1
			c13.4-31.6,27-63,40.4-94.4c-11.9-11.1-10.8-26-4.6-34.8c6.9-9.9,19.7-13.7,31-9.3c11,4.3,17.7,15.6,16.2,27.4
			c-0.8,7.1-4.6,13.4-10.3,17.6c-5.9,4.4-12.6,5.7-19.8,4.8l-31.6,75.3c0.9,0,1.5,0.1,2.1,0.1h14c5.7-13.6,11.4-27,17.1-40.6
			c-2.7-2.2-4.2-5.6-4.2-9.1c0-2.5,0.9-4.9,2.5-6.8c3.2-3.9,8.6-5.1,13.3-3.2c4.7,2.1,7.4,7.1,6.5,12.2c-1,5.7-5.2,8.8-12.6,9.4
			L95.2,127z M108.7,40.4c8-0.1,14.4-6.6,14.4-14.6c-0.1-8-6.6-14.4-14.6-14.4c-8,0.1-14.4,6.6-14.4,14.6c0,0,0,0,0,0.1
			C94.2,34.1,100.7,40.5,108.7,40.4C108.7,40.4,108.7,40.4,108.7,40.4L108.7,40.4z M106.7,77.7c0,3.4,2.7,6.2,6.2,6.2
			c3.4,0,6.2-2.7,6.2-6.2c0-3.4-2.7-6.1-6-6.2C109.6,71.5,106.8,74.2,106.7,77.7L106.7,77.7z"/>
		<path class="st0" d="M192,182.5c-16.2-37.8-32.4-75.6-48.6-113.4c-3.5,0.4-7-0.8-9.4-3.3c-1.8-1.8-2.9-4.2-3.2-6.8
			c-0.6-6.2,3.9-11.6,10.1-12.2c3.9-0.4,7.8,1.3,10.1,4.5c3.5,4.9,3,9.9-1.9,15.8l48.4,113.1c3.6-0.4,7.2,0.9,9.8,3.5
			c1.7,1.8,2.8,4.2,3,6.6c0.6,5-2.5,9.5-7.5,11.5c-4.7,1.9-10.3-0.3-12.9-4.1S186.4,188.1,192,182.5z M205.2,191.2
			c0.1-3.3-2.6-6-5.8-6c-0.1,0-0.2,0-0.2,0c-3.4,0-6.2,2.7-6.2,6.1c0,3.4,2.7,6.2,6.1,6.2c3.4,0,6.2-2.7,6.2-6.1
			C205.2,191.4,205.2,191.3,205.2,191.2z M135.9,58c-0.1,3.3,2.5,6.1,5.8,6.2c0.1,0,0.3,0,0.4,0c3.4,0,6.1-2.8,6.1-6.1
			c0-3.4-2.8-6.2-6.2-6.2C138.6,51.9,135.9,54.6,135.9,58z"/>
		<path class="st0" d="M142.3,159.1H80.9l-11.6,22.5c2.7,2.6,3.9,6.3,3.3,10c-0.3,2.4-1.5,4.6-3.3,6.2c-3.7,3.5-9.2,4.1-13.5,1.6
			c-4.3-2.5-6.4-7.6-5.2-12.4c1.5-5.7,5.9-8.6,13.3-8.4c1.4-2.7,2.9-5.5,4.4-8.3c2.6-5,5.3-10,7.8-15.1c0.6-1.6,2.2-2.5,3.9-2.3
			c10.7,0,21.4,0,32.1,0h28.1h2.1c3.1-7.2,9.2-9,14.1-7.6c4.8,1.5,8.1,5.9,8.1,10.9c-0.1,5.3-3.9,9.9-9.1,10.8
			C150.5,167.9,145,166.1,142.3,159.1z M67.8,189.8c-0.1-3.3-2.7-6-6-6.2c-3.4-0.2-6.3,2.4-6.5,5.8c-0.2,3.4,2.4,6.3,5.8,6.5
			c0.1,0,0.2,0,0.4,0C64.9,195.9,67.7,193.2,67.8,189.8z M153.2,150c-3.3,0.1-6,2.8-6.1,6.1c0,3.4,2.7,6.2,6.1,6.2s6.2-2.7,6.2-6.1
			s-2.7-6.2-6.1-6.2C153.3,150,153.2,150,153.2,150z"/>
	</g>
</g>
</svg>
