<svg xmlns="http://www.w3.org/2000/svg" viewBox="0 0 243.3 239.29"><g id="Camada_2" data-name="Camada 2"><g id="Camada_1-2" data-name="Camada 1"><path d="M87.26,170.64h84.53q7.46,17.79,15,35.82h35.86C195.93,144.22,169.17,82.2,142.35,19.77h8.33c1.6,0,3.2.09,4.79,0A2.22,2.22,0,0,1,158,21.4c2.57,6.1,5.2,12.17,7.81,18.25l76.5,177.74c.34.8.66,1.61,1,2.5-.89.71-1.88.41-2.78.41q-28.17,0-56.36-.06h-5c-2.15,0-2.16,0-2.93-2l-8.06-20.73q-2.34-6-4.69-12c-.17-.44-.38-.86-.6-1.37H97c-.33.72-.67,1.43-1,2.15-4.45,10.58-8.93,21.15-13.3,31.77a3,3,0,0,1-3.33,2.23c-8.47-.09-16.95,0-25.43,0H51.24c-2.65,8-7.59,13.82-15.39,17a24.9,24.9,0,0,1-17.56.8A26,26,0,0,1,.14,210.33a25.7,25.7,0,0,1,22.07-22.87c13.45-2,25.3,6.12,29.09,19H72ZM26,198.72a14.46,14.46,0,1,0,14.54,14.33A14.35,14.35,0,0,0,26,198.72Z"/><path d="M95.2,127h43.18c-.27-.77-.45-1.42-.72-2q-3.85-9-7.75-18a3,3,0,0,1-.23-2.7c2.22-4.94,4.33-9.94,6.49-14.91a5.92,5.92,0,0,1,.69-.88c7.48,17.41,14.89,34.62,22.31,51.87-2.4.58-104.9.71-107.88.15,13.43-31.57,27-63,40.37-94.44-11.92-11.07-10.8-26-4.57-34.85a26.22,26.22,0,0,1,31-9.34,25.92,25.92,0,0,1,16.22,27.35A25.26,25.26,0,0,1,124,46.85c-5.87,4.37-12.55,5.69-19.81,4.79L72.6,126.92c.89,0,1.51.12,2.12.12h14c5.71-13.56,11.37-27,17.08-40.59a11.57,11.57,0,0,1-4.15-9.06,10.92,10.92,0,0,1,2.53-6.82,11.46,11.46,0,0,1,13.26-3.16,11.21,11.21,0,0,1,6.48,12.17c-1,5.69-5.16,8.84-12.62,9.42Zm13.48-86.57A14.47,14.47,0,1,0,94.11,26.13,14.41,14.41,0,0,0,108.68,40.41Zm-2,37.22A6.18,6.18,0,1,0,113,71.5,6.28,6.28,0,0,0,106.7,77.63Z"/><path d="M192,182.5Q167.7,125.82,143.44,69.13A11.53,11.53,0,0,1,134,65.82,11.27,11.27,0,0,1,130.8,59,11.22,11.22,0,0,1,151,51.28c3.54,4.86,3,9.93-1.92,15.76l48.44,113.12a11.88,11.88,0,0,1,9.78,3.51,11.37,11.37,0,0,1,3,6.65c.61,5-2.51,9.53-7.5,11.53-4.69,1.89-10.31-.32-12.9-4.15S186.39,188.13,192,182.5Zm13.21,8.74a5.91,5.91,0,0,0-6.06-6,6.13,6.13,0,1,0,6.06,6ZM135.91,58a6,6,0,0,0,6.19,6.21,6.17,6.17,0,0,0,6.08-6.14,6.28,6.28,0,0,0-6.24-6.25A6.17,6.17,0,0,0,135.91,58Z"/><path d="M142.29,159.1H80.92L69.36,181.58a11.47,11.47,0,0,1,3.33,10,10.66,10.66,0,0,1-3.27,6.25,11.45,11.45,0,0,1-13.53,1.6,11.2,11.2,0,0,1-5.16-12.37c1.55-5.73,5.91-8.55,13.26-8.42,1.43-2.71,2.93-5.51,4.39-8.33,2.62-5,5.32-10,7.77-15.11a3.68,3.68,0,0,1,3.91-2.3c10.71,0,21.42,0,32.13,0l28.05,0h2.06c3.07-7.25,9.21-9,14.07-7.62a11.47,11.47,0,0,1,8.14,10.93,11.13,11.13,0,0,1-9.11,10.83C150.51,167.93,145,166.14,142.29,159.1ZM67.81,189.81a6.35,6.35,0,0,0-6-6.22,6.17,6.17,0,1,0-.34,12.33A6.32,6.32,0,0,0,67.81,189.81ZM153.17,150a6.2,6.2,0,0,0-6.09,6.11,6.18,6.18,0,1,0,6.09-6.11Z"/></g></g></svg>