<svg xmlns="http://www.w3.org/2000/svg" viewBox="0 0 929.71 1080"><defs><style>.cls-1{fill:#fff;}</style></defs><g id="Logo"><path class="cls-1" d="M518.85,339.56,493.13,399,526,475.58H293.78L404.91,210.36a90.73,90.73,0,1,0-42.82-19.82l-121.83,285h-1.54v3.62l-18.59,43.49H573.86v-.1h23.65ZM420.42,69.78a51.15,51.15,0,1,1-51.15,51.14A51.15,51.15,0,0,1,420.42,69.78Z"/><path class="cls-1" d="M590.51,99.72l-51.23.11L820.51,754.2H694.08L641.16,627.68H346.39L292.63,754.2H219.57a90.81,90.81,0,1,0-.4,47.11H326.54l53-126.52H611l49,126.52H840.75l51.33.12ZM131.71,828.11A51.15,51.15,0,1,1,182.86,777,51.13,51.13,0,0,1,131.71,828.11Z"/><path class="cls-1" d="M49.55,962.21,43,981.69H25l28.64-84.33h22.9l29.87,84.33H87.29l-6.94-19.48Zm26.88-15c-6-17.8-9.8-29.17-11.84-36.74h-.12c-2.08,8.31-6.29,21.54-11.09,36.74Z"/><path class="cls-1" d="M188.08,950.05c0-14.39.23-30.52.6-40h-.58c-4,17.21-12.4,45.3-20.48,71.69H152.09c-6.15-23.07-14.87-55.08-18.57-71.92H133c.72,9.9,1.07,27.25,1.07,41.71v30.21H117.4V897.36h27.14c6.57,22,14,49.67,16.48,62.24h.14c2.06-11.08,11.33-40.64,18.36-62.24h26.15v84.33H188.08Z"/><path class="cls-1" d="M241.58,962.21,235,981.69H217.08l28.63-84.33h22.9l29.88,84.33H279.32l-6.93-19.48Zm26.88-15c-6-17.8-9.8-29.17-11.84-36.74h-.12c-2.08,8.31-6.29,21.54-11.09,36.74Z"/><path class="cls-1" d="M327.13,947.94v33.75H309.31V897.36h37.06c18.39,0,28.28,10.12,28.28,23.15,0,11.31-6.15,17.44-12.25,20,4.18,1.54,10.48,5.89,10.48,21v4.17c0,5.67.05,12.13,1.21,16.08H356.81c-1.49-3.67-1.77-10-1.77-18.94v-1.23c0-9.22-2.32-13.58-15.91-13.58Zm0-14.52h15.29c10,0,13.83-3.79,13.83-10.85,0-6.86-4.48-10.7-13.39-10.7H327.13Z"/><path class="cls-1" d="M468.41,939.23c0,23.47-14.1,43.68-41.48,43.68-26.47,0-40.32-19.23-40.32-43.39,0-24.54,15.3-43.39,41.49-43.39C452.78,896.13,468.41,913.42,468.41,939.23Zm-63-.08c0,16.47,7.23,28.92,22.18,28.92,16.21,0,22-13.58,22-28.61,0-16-6.54-28.49-22.26-28.49C412.09,911,405.44,922.73,405.44,939.15Z"/><path class="cls-1" d="M514,981.69V897.36h22.59c10.54,18.93,30,53.08,33.88,62.27h.23c-.95-8.8-.93-23.44-.93-37.28v-25h16.52v84.33H564.81C555.75,965.21,534.18,926,530,916.24h-.24c.62,7.38.82,24.7.82,39.8v25.65Z"/><path class="cls-1" d="M664.44,945.32H624.11v21.42H668.6l-2.16,15h-60V897.36h59.79V912.3h-42.1v18.07h40.33Z"/><path class="cls-1" d="M701.79,912.3H676.16V897.36h69.4V912.3H720v69.39H701.79Z"/><path class="cls-1" d="M779.82,912.3H754.2V897.36h69.4V912.3H798.07v69.39H779.82Z"/><path class="cls-1" d="M909.84,939.23c0,23.47-14.09,43.68-41.48,43.68-26.47,0-40.32-19.23-40.32-43.39,0-24.54,15.3-43.39,41.5-43.39C894.21,896.13,909.84,913.42,909.84,939.23Zm-63-.08c0,16.47,7.23,28.92,22.18,28.92,16.22,0,22-13.58,22-28.61,0-16-6.54-28.49-22.26-28.49C853.52,911,846.87,922.73,846.87,939.15Z"/><path class="cls-1" d="M53.38,1007.53H70.82V1010H63.3v20.9H60.89V1010H53.38Z"/><path class="cls-1" d="M108.21,1020.43,120,1030.88h-3.62l-11.1-9.89v9.89h-2.45v-23.35h9.24a6.45,6.45,0,0,1,0,12.9Zm-2.94-2.45h6.79a4,4,0,0,0,0-8h-6.79Z"/><path class="cls-1" d="M164.11,1007.53l10.25,23.35h-2.64l-3.17-7.21H157.81l-3.17,7.21H152l10.25-23.35Zm3.36,13.72-4.27-9.76-4.31,9.76Z"/><path class="cls-1" d="M223.64,1009.33l-13.84,19.14h13.84v2.41l-17.27.1v-1.89L220.18,1010H206.37v-2.45h17.27Z"/><path class="cls-1" d="M255.64,1007.53H271V1010H258.09v8h9.44v2.45h-9.44v8H271v2.45H255.64Z"/><path class="cls-1" d="M319.61,1007.53h2.45v23.35h-2l-14.62-18.71v18.71H303v-23.35h2l14.62,18.72Z"/><path class="cls-1" d="M373.17,1019.19a11.67,11.67,0,0,1-11.66,11.69h-7.44v-23.35h7.44A11.67,11.67,0,0,1,373.17,1019.19Zm-2.42,0a9.25,9.25,0,0,0-9.24-9.24h-5v18.52h5A9.26,9.26,0,0,0,370.75,1019.19Z"/><path class="cls-1" d="M428.32,1019.16a11.58,11.58,0,1,1-11.56-11.59A11.58,11.58,0,0,1,428.32,1019.16Zm-2.38,0a9.18,9.18,0,1,0-9.18,9.21A9.19,9.19,0,0,0,425.94,1019.16Z"/><path class="cls-1" d="M518.09,1024.45c0,3.56-3.39,6.43-7.54,6.43h-2c-4.15,0-7.54-2.87-7.54-6.43v-.13l0-.92h2.55l0,1.05c-.06,2.19,2.26,4,5,4h2c2.74,0,5-1.79,5-4s-2.26-4-5-4h-.91a10.23,10.23,0,0,1-4.12-.81c-2.58-1.51-3.82-3.33-3.82-5.65,0-3.53,3.4-6.44,7.54-6.44h.59c4,0,7.35,2.68,7.55,6.11l.06,1h-2.55l-.06-.88c-.16-2.12-2.35-3.76-5-3.76h-.59c-2.74,0-5,1.8-5,4s2.09,3.95,4.7,4h1.21v0a13.12,13.12,0,0,1,1.7.09h.1A6.66,6.66,0,0,1,518.09,1024.45Z"/><path class="cls-1" d="M573.25,1019.16a11.58,11.58,0,1,1-11.56-11.59A11.58,11.58,0,0,1,573.25,1019.16Zm-2.39,0a9.18,9.18,0,1,0-9.17,9.21A9.18,9.18,0,0,0,570.86,1019.16Z"/><path class="cls-1" d="M620.7,1028.47v2.41H605.25v-23.35h2.45v20.94Z"/><path class="cls-1" d="M668.67,1007.53h2.41v14.18a9.2,9.2,0,0,1-18.35.91h0v-15.09h2.45v14.27a6.76,6.76,0,0,0,13.52,0v-14.31Z"/><path class="cls-1" d="M723.56,1022.16h2.51a11.55,11.55,0,0,1-10.61,8.72v.49a2.38,2.38,0,0,1,.49,0,2.78,2.78,0,1,1-2.71,3.43h2.09a.87.87,0,0,0,.62.23.89.89,0,0,0,0-1.77.91.91,0,0,0-.68.3v0H713.4v-2.68a11.71,11.71,0,1,1,12.77-14.3h-2.51a9.32,9.32,0,1,0-.1,5.58Z"/><path class="cls-1" d="M781.16,1019.16a11.58,11.58,0,1,1-11.56-11.59A11.58,11.58,0,0,1,781.16,1019.16Zm-2.38,0a9.18,9.18,0,1,0-9.18,9.21A9.19,9.19,0,0,0,778.78,1019.16Zm-6-14.56-.16.26a2,2,0,0,1-1.66,1,2.87,2.87,0,0,1-1.34-.42,2.36,2.36,0,0,0-1.21-.36c-.17,0-.36,0-.59.46l-.39.65-.78-1.24.13-.23a1.9,1.9,0,0,1,1.69-1.08,4.08,4.08,0,0,1,1.44.39,3.1,3.1,0,0,0,1.05.39c.22,0,.42-.13.65-.52l.39-.55Z"/><path class="cls-1" d="M813.72,1007.53H829.1V1010H816.17v8h9.44v2.45h-9.44v8H829.1v2.45H813.72Z"/><path class="cls-1" d="M878.18,1024.45c0,3.56-3.39,6.43-7.54,6.43h-2c-4.15,0-7.55-2.87-7.55-6.43v-.13l0-.92h2.54l0,1.05c-.06,2.19,2.25,4,5,4h2c2.74,0,5-1.79,5-4s-2.26-4-5-4h-.91a10.23,10.23,0,0,1-4.12-.81c-2.58-1.51-3.82-3.33-3.82-5.65,0-3.53,3.4-6.44,7.54-6.44h.59c4,0,7.35,2.68,7.54,6.11l.07,1H875l-.06-.88c-.17-2.12-2.35-3.76-5-3.76h-.59c-2.74,0-5,1.8-5,4s2.09,3.95,4.7,4h1.21v0a13.12,13.12,0,0,1,1.7.09h.1A6.66,6.66,0,0,1,878.18,1024.45Z"/></g></svg>