<svg id="Camada_5" data-name="Camada 5" xmlns="http://www.w3.org/2000/svg" viewBox="0 0 929.71 1080.57"><path d="M192.67,771l-8.88,26.29H159.6l38.64-113.79h30.9L269.45,797.3H243.59L234.24,771Zm36.27-20.16c-8.08-24-13.23-39.36-16-49.59h-.16c-2.81,11.22-8.49,29.07-15,49.59Z"/><path d="M379.6,754.62c0-19.42.32-41.19.81-54h-.78C374.28,723.78,362.9,761.7,352,797.3H331c-8.29-31.13-20.06-74.32-25-97h-.77c1,13.35,1.44,36.76,1.44,56.29V797.3H284.23V683.51h36.62c8.87,29.73,18.82,67,22.24,84h.18c2.79-15,15.29-54.84,24.78-84h35.29V797.3H379.6Z"/><path d="M451.8,771l-8.88,26.29H418.73l38.64-113.79h30.91L528.59,797.3H502.72L493.37,771Zm36.27-20.16c-8.08-24-13.23-39.36-16-49.59h-.16c-2.8,11.22-8.49,29.07-15,49.59Z"/><path d="M567.24,751.76V797.3h-24V683.51h50c24.81,0,38.17,13.66,38.17,31.23,0,15.27-8.31,23.55-16.54,26.93,5.64,2.08,14.14,8,14.14,28.31v5.63c0,7.65.07,16.36,1.63,21.69H607.28c-2-4.95-2.37-13.47-2.37-25.55v-1.66c0-12.44-3.15-18.33-21.48-18.33Zm0-19.59h20.63c13.47,0,18.67-5.12,18.67-14.64,0-9.26-6-14.44-18.08-14.44H567.24Z"/><path d="M757.88,740c0,31.68-19,58.94-56,58.94-35.71,0-54.4-26-54.4-58.55,0-33.12,20.64-58.55,56-58.55C736.79,681.85,757.88,705.18,757.88,740Zm-85-.1c0,22.22,9.75,39,29.93,39,21.88,0,29.63-18.33,29.63-38.6,0-21.54-8.82-38.45-30-38.45C681.88,701.88,672.91,717.75,672.91,739.91Z"/><path d="M201.55,935.82V822H232c14.22,25.55,40.49,71.63,45.72,84h.31c-1.28-11.88-1.26-31.64-1.26-50.31V822h22.3V935.82H270.18c-12.22-22.24-41.33-75.18-47-88.32h-.31c.82,10,1.1,33.33,1.1,53.71v34.61Z"/><path d="M404.63,886.75H350.21v28.9h60l-2.91,20.17h-81V822H407v20.16H350.21v24.38h54.42Z"/><path d="M455,842.19H420.45V822H514.1v20.16H479.65v93.63H455Z"/><path d="M560.33,842.19H525.76V822H619.4v20.16H585v93.63H560.33Z"/><path d="M735.78,878.53c0,31.68-19,58.94-56,58.94-35.71,0-54.4-26-54.4-58.55,0-33.12,20.64-58.55,56-58.55C714.68,820.37,735.78,843.7,735.78,878.53Zm-85-.1c0,22.22,9.76,39,29.93,39,21.89,0,29.63-18.33,29.63-38.6,0-21.54-8.81-38.45-30-38.45C659.78,840.4,650.8,856.27,650.8,878.43Z"/><path d="M40.34,982H58.23v2.52H50.52V1006H48.05V984.56H40.34Z"/><path d="M96.57,995.27,108.66,1006h-3.72L93.55,995.84V1006H91V982h9.48a6.62,6.62,0,0,1,0,13.23Zm-3-2.51h7a4.1,4.1,0,0,0,0-8.2h-7Z"/><path d="M153.9,982l10.51,24H161.7l-3.25-7.4h-11l-3.25,7.4h-2.71L152,982Zm3.45,14.07-4.39-10-4.42,10Z"/><path d="M214.94,983.89l-14.2,19.62h14.2V1006l-17.71.1v-1.94l14.16-19.59H197.23V982h17.71Z"/><path d="M247.76,982h15.77v2.52H250.27v8.2H260v2.51h-9.68v8.21h13.26V1006H247.76Z"/><path d="M313.36,982h2.51v24h-2l-15-19.19V1006h-2.51V982h2l15,19.19Z"/><path d="M368.28,994a12,12,0,0,1-12,12h-7.63V982h7.63A12,12,0,0,1,368.28,994Zm-2.48,0a9.49,9.49,0,0,0-9.48-9.48H351.2v19h5.12A9.49,9.49,0,0,0,365.8,994Z"/><path d="M424.84,994A11.88,11.88,0,1,1,413,982.08,11.89,11.89,0,0,1,424.84,994Zm-2.44,0a9.42,9.42,0,1,0-9.42,9.44A9.41,9.41,0,0,0,422.4,994Z"/><path d="M516.89,999.39c0,3.65-3.48,6.6-7.73,6.6h-2.05c-4.25,0-7.73-3-7.73-6.6v-.13l0-.94H502l0,1.07c-.07,2.25,2.31,4.09,5.12,4.09h2.05c2.81,0,5.12-1.84,5.12-4.09s-2.31-4.12-5.12-4.12h-.94a10.31,10.31,0,0,1-4.22-.83c-2.65-1.54-3.92-3.42-3.92-5.8,0-3.62,3.48-6.6,7.74-6.6h.6c4.12,0,7.54,2.75,7.74,6.27l.06,1h-2.61l-.07-.9c-.16-2.18-2.41-3.85-5.12-3.85h-.6c-2.82,0-5.09,1.84-5.09,4.08s2.14,4.05,4.82,4.12h1.24v0a11.2,11.2,0,0,1,1.74.11h.1A6.82,6.82,0,0,1,516.89,999.39Z"/><path d="M573.45,994a11.87,11.87,0,1,1-11.85-11.89A11.88,11.88,0,0,1,573.45,994ZM571,994a9.41,9.41,0,1,0-9.41,9.44A9.41,9.41,0,0,0,571,994Z"/><path d="M622.11,1003.51V1006H606.26V982h2.52v21.47Z"/><path d="M671.3,982h2.48v14.54a9.44,9.44,0,0,1-18.83.94h0V982h2.51v14.64a6.94,6.94,0,0,0,13.87,0V982Z"/><path d="M727.59,997.05h2.58a11.84,11.84,0,0,1-10.89,8.94v.5a2.59,2.59,0,0,1,.51,0A2.85,2.85,0,1,1,717,1010h2.14a.92.92,0,0,0,.64.23.91.91,0,0,0,0-1.81,1,1,0,0,0-.71.3v0h-1.91V1006a12,12,0,1,1,13.1-14.67h-2.58a9.55,9.55,0,1,0-.1,5.73Z"/><path d="M786.66,994a11.87,11.87,0,1,1-11.85-11.89A11.88,11.88,0,0,1,786.66,994Zm-2.44,0a9.42,9.42,0,1,0-9.41,9.44A9.41,9.41,0,0,0,784.22,994ZM778.09,979l-.17.27a2.06,2.06,0,0,1-1.71,1.07,2.92,2.92,0,0,1-1.37-.44,2.47,2.47,0,0,0-1.24-.36c-.17,0-.37,0-.6.46l-.41.67-.8-1.27.13-.23a2,2,0,0,1,1.75-1.11,4,4,0,0,1,1.47.4,3.52,3.52,0,0,0,1.07.41c.24,0,.44-.14.67-.54l.4-.57Z"/><path d="M820,982h15.78v2.52H822.56v8.2h9.67v2.51h-9.67v8.21h13.26V1006H820Z"/><path d="M886.15,999.39c0,3.65-3.48,6.6-7.74,6.6h-2c-4.25,0-7.74-3-7.74-6.6v-.13l0-.94h2.61l0,1.07c-.07,2.25,2.31,4.09,5.12,4.09h2c2.82,0,5.13-1.84,5.13-4.09s-2.31-4.12-5.13-4.12h-.93a10.4,10.4,0,0,1-4.23-.83c-2.64-1.54-3.91-3.42-3.91-5.8,0-3.62,3.48-6.6,7.73-6.6h.61c4.12,0,7.53,2.75,7.73,6.27l.07,1h-2.61l-.07-.9c-.17-2.18-2.41-3.85-5.12-3.85h-.61c-2.81,0-5.09,1.84-5.09,4.08s2.15,4.05,4.83,4.12H878v0a11.6,11.6,0,0,1,1.75.11h.1A6.82,6.82,0,0,1,886.15,999.39Z"/><path d="M494.08,293.06l-18.16,42,23.23,54H335.2l78.45-187.24a64.05,64.05,0,1,0-30.23-14l-86,201.23h-1.09v2.55L283.2,422.35H532.91v-.08h16.7ZM424.59,102.61a36.11,36.11,0,1,1-36.1,36.11A36.11,36.11,0,0,1,424.59,102.61Z"/><path d="M544.67,123.75l-36.16.08L707,585.78H617.79l-37.37-89.32H372.34l-38,89.32H282.81a64.13,64.13,0,1,0-.29,33.25h75.8l37.42-89.31H559.12L593.73,619h127.6l36.23.09ZM220.78,638a36.11,36.11,0,1,1,36.11-36.11A36.11,36.11,0,0,1,220.78,638Z"/></svg>