<svg xmlns="http://www.w3.org/2000/svg" viewBox="0 0 2423.14 477.4"><g id="horizontal"><path d="M672.2,253.86l-12.43,36.79H625.92L680,131.39h43.25l56.41,159.26h-36.2l-13.09-36.79ZM723,225.64c-11.31-33.61-18.52-55.09-22.37-69.4h-.22c-3.93,15.7-11.88,40.68-21,69.4Z"/><path d="M933.81,230.91c0-27.17.44-57.64,1.13-75.64h-1.1c-7.48,32.49-23.4,85.55-38.67,135.38H865.84c-11.61-43.57-28.08-104-35.06-135.81h-1.07c1.35,18.68,2,51.45,2,78.77v57H800.34V131.39h51.25C864,173,877.92,225.2,882.71,248.94H883c3.9-20.93,21.39-76.74,34.67-117.55H967V290.65H933.81Z"/><path d="M1034.85,253.86l-12.43,36.79H988.57l54.08-159.26h43.25l56.41,159.26h-36.2L1093,253.86Zm50.76-28.22c-11.31-33.61-18.51-55.09-22.36-69.4H1063c-3.92,15.7-11.88,40.68-20.94,69.4Z"/><path d="M1196.41,226.91v63.74h-33.65V131.39h70c34.72,0,53.41,19.13,53.41,43.72,0,21.37-11.63,32.95-23.14,37.68,7.89,2.92,19.78,11.13,19.78,39.63v7.87c0,10.71.1,22.9,2.29,30.36h-32.63c-2.81-6.93-3.33-18.86-3.33-35.76v-2.32c0-17.42-4.4-25.66-30.06-25.66Zm0-27.41h28.87c18.85,0,26.12-7.17,26.12-20.49,0-13-8.46-20.2-25.3-20.2h-29.69Z"/><path d="M1463.2,210.47c0,44.33-26.62,82.49-78.34,82.49-50,0-76.14-36.32-76.14-81.95,0-46.34,28.9-81.93,78.37-81.93C1433.68,129.08,1463.2,161.72,1463.2,210.47Zm-118.91-.15c0,31.1,13.64,54.61,41.88,54.61,30.62,0,41.47-25.64,41.47-54,0-30.13-12.35-53.8-42-53.8C1356.84,157.11,1344.29,179.32,1344.29,210.32Z"/><path d="M1549.2,290.65V131.39h42.67c19.89,35.76,56.66,100.25,64,117.6h.45c-1.81-16.62-1.77-44.27-1.77-70.4v-47.2h31.21V290.65h-40.49c-17.1-31.12-57.84-105.21-65.73-123.6h-.44c1.15,13.93,1.54,46.64,1.54,75.16v48.44Z"/><path d="M1833.39,222h-76.15v40.45h84l-4.08,28.23H1723.82V131.39h112.92v28.22h-79.5v34.13h76.15Z"/><path d="M1903.92,159.61h-48.38V131.39h131v28.22h-48.2v131h-34.47Z"/><path d="M2051.29,159.61h-48.38V131.39H2134v28.22h-48.21v131h-34.47Z"/><path d="M2296.82,210.47c0,44.33-26.6,82.49-78.34,82.49-50,0-76.13-36.32-76.13-81.95,0-46.34,28.89-81.93,78.37-81.93C2267.3,129.08,2296.82,161.72,2296.82,210.47Zm-118.91-.15c0,31.1,13.65,54.61,41.88,54.61,30.63,0,41.47-25.64,41.47-54,0-30.13-12.34-53.8-42-53.8C2190.47,157.11,2177.91,179.32,2177.91,210.32Z"/><path d="M883.69,320.22h25v3.51H897.93v30h-3.47v-30H883.69Z"/><path d="M962.37,338.73l16.92,15h-5.2l-15.94-14.19v14.19h-3.51v-33.5H967.9a9.26,9.26,0,0,1,0,18.51Zm-4.22-3.52h9.75a5.74,5.74,0,0,0,0-11.48h-9.75Z"/><path d="M1042.6,320.22l14.71,33.5h-3.79L1049,343.37h-15.41L1029,353.72h-3.8l14.72-33.5Zm4.83,19.68-6.14-14-6.19,14Z"/><path d="M1128,322.8l-19.87,27.46H1128v3.46l-24.79.15v-2.72l19.82-27.42h-19.82v-3.51H1128Z"/><path d="M1174,320.22H1196v3.51h-18.56v11.48H1191v3.52h-13.55v11.48H1196v3.51H1174Z"/><path d="M1265.76,320.22h3.52v33.5h-2.81l-21-26.85v26.85H1242v-33.5h2.81l21,26.85Z"/><path d="M1342.62,337a16.74,16.74,0,0,1-16.73,16.77h-10.68v-33.5h10.68A16.74,16.74,0,0,1,1342.62,337Zm-3.47,0a13.28,13.28,0,0,0-13.26-13.26h-7.17v26.57h7.17A13.29,13.29,0,0,0,1339.15,337Z"/><path d="M1421.77,336.9a16.61,16.61,0,1,1-16.59-16.63A16.63,16.63,0,0,1,1421.77,336.9Zm-3.42,0a13.17,13.17,0,1,0-13.17,13.22A13.18,13.18,0,0,0,1418.35,336.9Z"/><path d="M1550.6,344.49c0,5.11-4.88,9.23-10.83,9.23h-2.86c-6,0-10.82-4.12-10.82-9.23v-.18l.05-1.32h3.65l0,1.5c-.1,3.14,3.23,5.72,7.16,5.72h2.86c3.94,0,7.17-2.58,7.17-5.72s-3.23-5.76-7.17-5.76h-1.31c-1.92-.09-4.5-.33-5.9-1.17-3.7-2.16-5.48-4.78-5.48-8.11,0-5.06,4.87-9.23,10.82-9.23h.84c5.77,0,10.55,3.84,10.83,8.76l.09,1.41H1546l-.1-1.27c-.23-3-3.37-5.39-7.17-5.39h-.84c-3.94,0-7.12,2.58-7.12,5.72s3,5.67,6.74,5.76h1.74v.05a19.8,19.8,0,0,1,2.44.14h.14C1546.94,336,1550.6,340,1550.6,344.49Z"/><path d="M1629.75,336.9a16.61,16.61,0,1,1-16.59-16.63A16.63,16.63,0,0,1,1629.75,336.9Zm-3.42,0a13.17,13.17,0,1,0-13.17,13.22A13.19,13.19,0,0,0,1626.33,336.9Z"/><path d="M1697.84,350.26v3.46h-22.16v-33.5h3.51v30Z"/><path d="M1766.68,320.22h3.47v20.34a13.2,13.2,0,0,1-26.33,1.31h0V320.22h3.52V340.7a9.7,9.7,0,0,0,19.39,0V320.22Z"/><path d="M1845.46,341.21h3.61a16.57,16.57,0,0,1-15.23,12.51v.71a2.9,2.9,0,0,1,.7-.05,4,4,0,1,1-3.89,4.92h3a1.24,1.24,0,0,0,.89.33,1.27,1.27,0,1,0,0-2.53,1.35,1.35,0,0,0-1,.42v.05h-2.67v-3.85a16.81,16.81,0,1,1,18.32-20.52h-3.61a13.37,13.37,0,1,0-.14,8Z"/><path d="M1928.13,336.9a16.61,16.61,0,1,1-16.59-16.63A16.63,16.63,0,0,1,1928.13,336.9Zm-3.42,0a13.17,13.17,0,1,0-13.17,13.22A13.19,13.19,0,0,0,1924.71,336.9Zm-8.58-20.9-.23.38a2.88,2.88,0,0,1-2.39,1.5,4,4,0,0,1-1.92-.61,3.46,3.46,0,0,0-1.74-.52c-.23,0-.51.05-.84.66l-.56.94-1.13-1.79.19-.32a2.74,2.74,0,0,1,2.44-1.55,5.72,5.72,0,0,1,2.06.56,4.62,4.62,0,0,0,1.5.57c.33,0,.61-.19.94-.75l.56-.8Z"/><path d="M1974.86,320.22h22.07v3.51h-18.56v11.48h13.54v3.52h-13.54v11.48h18.56v3.51h-22.07Z"/><path d="M2067.36,344.49c0,5.11-4.87,9.23-10.82,9.23h-2.86c-5.95,0-10.83-4.12-10.83-9.23v-.18l.05-1.32h3.66l0,1.5c-.1,3.14,3.23,5.72,7.17,5.72h2.86c3.93,0,7.17-2.58,7.17-5.72s-3.24-5.76-7.17-5.76h-1.32c-1.92-.09-4.49-.33-5.9-1.17-3.7-2.16-5.48-4.78-5.48-8.11,0-5.06,4.87-9.23,10.82-9.23h.85c5.76,0,10.54,3.84,10.82,8.76l.09,1.41h-3.65l-.1-1.27c-.23-3-3.37-5.39-7.16-5.39h-.85c-3.93,0-7.12,2.58-7.12,5.72s3,5.67,6.75,5.76H2056v.05a19.8,19.8,0,0,1,2.44.14h.14C2063.71,336,2067.36,340,2067.36,344.49Z"/><path d="M355.56,184.15l-12.45,28.77L359,250H246.63l53.78-128.36A44,44,0,1,0,264,78.33,43.86,43.86,0,0,0,279.69,112l-59,138H220v1.75l-9,21h171.2v0h11.45ZM307.92,53.58a24.76,24.76,0,1,1-24.75,24.75A24.75,24.75,0,0,1,307.92,53.58Z"/><path d="M390.24,68.07l-24.79.05,136.1,316.7H440.36l-25.61-61.23H272.09l-26,61.23H210.72a44,44,0,1,0-.2,22.8h52l25.66-61.23h112l23.72,61.23h87.48l24.84.06Zm-222,352.52A24.75,24.75,0,1,1,193,395.84,24.75,24.75,0,0,1,168.19,420.59Z"/></g></svg>