<svg xmlns="http://www.w3.org/2000/svg" viewBox="0 0 929.71 1080.29"><defs><style>.cls-1{fill:#fff;}</style></defs><g id="Camada_6" data-name="Camada 6"><path class="cls-1" d="M525.11,430.35l-25.72,59.46,32.91,76.57H300.05L411.17,301.15a90.73,90.73,0,1,0-42.81-19.81l-121.84,285H245V570l-18.59,43.5H580.12v-.11h23.65ZM426.68,160.57a51.15,51.15,0,1,1-51.14,51.15A51.15,51.15,0,0,1,426.68,160.57Z"/><path class="cls-1" d="M596.78,190.52l-51.23.1L826.77,845H700.35L647.42,718.47H352.66L298.9,845H225.84a90.83,90.83,0,1,0-.41,47.11H332.8l53-126.52H617.25l49,126.52H847l51.32.12ZM138,918.91a51.15,51.15,0,1,1,51.14-51.15A51.15,51.15,0,0,1,138,918.91Z"/><path class="cls-1" d="M59.64,978H77.08v2.45H69.57v20.9H67.15V980.4H59.64Z"/><path class="cls-1" d="M114.47,990.85l11.79,10.45h-3.63l-11.1-9.89v9.89h-2.45V978h9.24a6.45,6.45,0,0,1,0,12.9Zm-2.94-2.45h6.79a4,4,0,0,0,0-8h-6.79Z"/><path class="cls-1" d="M170.37,978l10.26,23.35H178l-3.17-7.22H164.07l-3.17,7.22h-2.64L168.51,978Zm3.37,13.72-4.28-9.77-4.31,9.77Z"/><path class="cls-1" d="M229.9,979.75l-13.84,19.13H229.9v2.42l-17.27.1v-1.9l13.81-19.1H212.63V978H229.9Z"/><path class="cls-1" d="M261.91,978h15.38v2.45H264.36v8h9.43v2.45h-9.43v8h12.93v2.45H261.91Z"/><path class="cls-1" d="M325.88,978h2.45v23.35h-2l-14.63-18.71v18.71h-2.45V978h2l14.63,18.71Z"/><path class="cls-1" d="M379.43,989.61a11.66,11.66,0,0,1-11.65,11.69h-7.45V978h7.45A11.66,11.66,0,0,1,379.43,989.61Zm-2.41,0a9.26,9.26,0,0,0-9.24-9.24h-5v18.51h5A9.26,9.26,0,0,0,377,989.61Z"/><path class="cls-1" d="M434.59,989.58A11.58,11.58,0,1,1,423,978,11.58,11.58,0,0,1,434.59,989.58Zm-2.39,0a9.18,9.18,0,1,0-9.17,9.21A9.18,9.18,0,0,0,432.2,989.58Z"/><path class="cls-1" d="M524.36,994.87c0,3.56-3.4,6.43-7.55,6.43h-2c-4.15,0-7.54-2.87-7.54-6.43v-.13l0-.92h2.55l0,1c-.07,2.19,2.25,4,5,4h2c2.75,0,5-1.79,5-4s-2.25-4-5-4h-.91a10.06,10.06,0,0,1-4.12-.82c-2.57-1.5-3.82-3.33-3.82-5.64,0-3.53,3.4-6.44,7.55-6.44h.59c4,0,7.34,2.68,7.54,6.11l.06,1h-2.54l-.07-.88c-.16-2.13-2.35-3.76-5-3.76h-.59c-2.75,0-5,1.8-5,4s2.09,4,4.71,4h1.2v0a13.12,13.12,0,0,1,1.7.09h.1A6.67,6.67,0,0,1,524.36,994.87Z"/><path class="cls-1" d="M579.51,989.58A11.58,11.58,0,1,1,568,978,11.58,11.58,0,0,1,579.51,989.58Zm-2.38,0a9.18,9.18,0,1,0-9.18,9.21A9.19,9.19,0,0,0,577.13,989.58Z"/><path class="cls-1" d="M627,998.88v2.42H611.51V978H614v20.93Z"/><path class="cls-1" d="M674.93,978h2.42v14.17A9.2,9.2,0,0,1,659,993h0V978h2.45v14.27a6.76,6.76,0,0,0,13.52,0V978Z"/><path class="cls-1" d="M729.82,992.58h2.52a11.55,11.55,0,0,1-10.62,8.72v.49a2.43,2.43,0,0,1,.49,0,2.78,2.78,0,1,1-2.71,3.43h2.09a.89.89,0,0,0,.62.22.88.88,0,1,0,0-1.76.91.91,0,0,0-.68.3v0h-1.86v-2.68A11.71,11.71,0,1,1,732.43,987h-2.51a9.32,9.32,0,1,0-.1,5.58Z"/><path class="cls-1" d="M787.43,989.58A11.58,11.58,0,1,1,775.87,978,11.59,11.59,0,0,1,787.43,989.58Zm-2.39,0a9.18,9.18,0,1,0-9.17,9.21A9.18,9.18,0,0,0,785,989.58Zm-6-14.57-.17.27a2,2,0,0,1-1.66,1,2.9,2.9,0,0,1-1.34-.42,2.36,2.36,0,0,0-1.21-.36c-.16,0-.36,0-.59.45l-.39.66-.78-1.24.13-.23a1.9,1.9,0,0,1,1.7-1.08,4,4,0,0,1,1.43.39,3.1,3.1,0,0,0,1,.39c.23,0,.42-.13.65-.52l.39-.55Z"/><path class="cls-1" d="M820,978h15.38v2.45H822.43v8h9.44v2.45h-9.44v8h12.93v2.45H820Z"/><path class="cls-1" d="M884.45,994.87c0,3.56-3.4,6.43-7.55,6.43h-2c-4.15,0-7.54-2.87-7.54-6.43v-.13l0-.92H870l0,1c-.06,2.19,2.26,4,5,4h2c2.74,0,5-1.79,5-4s-2.26-4-5-4H876a10.06,10.06,0,0,1-4.12-.82c-2.58-1.5-3.82-3.33-3.82-5.64,0-3.53,3.4-6.44,7.55-6.44h.58c4,0,7.35,2.68,7.55,6.11l.06,1h-2.54l-.07-.88c-.16-2.13-2.35-3.76-5-3.76h-.58c-2.75,0-5,1.8-5,4s2.09,4,4.71,4h1.2v0a13.12,13.12,0,0,1,1.7.09h.1A6.67,6.67,0,0,1,884.45,994.87Z"/></g></svg>