<svg xmlns="http://www.w3.org/2000/svg" viewBox="0 0 2423.14 476.4"><defs><style>.cls-1{fill:#fff;}</style></defs><g id="Camada_4" data-name="Camada 4"><path class="cls-1" d="M611.77,255.1c0-34.69.56-73.56,1.44-96.54h-1.4c-9.55,41.47-29.87,109.18-49.36,172.77H525C510.2,275.73,489.18,198.6,480.27,158H478.9c1.73,23.85,2.58,65.66,2.58,100.53v72.79H441.43V128.09h65.4c15.84,53.1,33.61,119.71,39.72,150h.33c5-26.71,27.3-97.94,44.25-150h63V331.33H611.77Z"/><path class="cls-1" d="M740.71,284.38l-15.86,46.95H681.64l69-203.24h55.2l72,203.24h-46.2L815,284.38Zm64.79-36c-14.44-42.9-23.63-70.3-28.54-88.56h-.29c-5,20-15.17,51.91-26.73,88.56Z"/><path class="cls-1" d="M946.89,250v81.34H904V128.09h89.3c44.31,0,68.17,24.41,68.17,55.79,0,27.27-14.84,42.05-29.54,48.1,10.07,3.71,25.26,14.19,25.26,50.56v10c0,13.68.12,29.23,2.91,38.75h-41.64c-3.58-8.84-4.25-24.06-4.25-45.63v-3c0-22.22-5.61-32.74-38.36-32.74Zm0-35h36.84c24.06,0,33.35-9.14,33.35-26.14,0-16.54-10.8-25.78-32.3-25.78H946.89Z"/><path class="cls-1" d="M1287.38,229c0,56.57-34,105.27-100,105.27-63.79,0-97.17-46.36-97.17-104.58,0-59.14,36.87-104.56,100-104.56C1249.7,125.14,1287.38,166.79,1287.38,229Zm-151.76-.19c0,39.69,17.41,69.7,53.44,69.7,39.08,0,52.93-32.73,52.93-68.95,0-38.45-15.76-68.66-53.64-68.66C1151.64,160.91,1135.62,189.25,1135.62,228.82Z"/><path class="cls-1" d="M1397.12,331.33V128.09h54.46c25.39,45.63,72.31,127.93,81.65,150.08h.56c-2.3-21.21-2.26-56.5-2.26-89.85V128.09h39.84V331.33H1519.7c-21.84-39.72-73.82-134.27-83.89-157.74h-.56c1.47,17.79,2,59.53,2,95.93v61.81Z"/><path class="cls-1" d="M1759.82,243.68h-97.19V295.3h107.21l-5.2,36H1620V128.09h144.11v36H1662.63v43.55h97.19Z"/><path class="cls-1" d="M1849.83,164.1h-61.76v-36h167.26v36h-61.52V331.33h-44Z"/><path class="cls-1" d="M2037.9,164.1h-61.75v-36h167.26v36h-61.52V331.33h-44Z"/><path class="cls-1" d="M2351.25,229c0,56.57-34,105.27-100,105.27-63.78,0-97.16-46.36-97.16-104.58,0-59.14,36.87-104.56,100-104.56C2313.57,125.14,2351.25,166.79,2351.25,229Zm-151.76-.19c0,39.69,17.42,69.7,53.44,69.7,39.1,0,52.93-32.73,52.93-68.95,0-38.45-15.74-68.66-53.64-68.66C2215.52,160.91,2199.49,189.25,2199.49,228.82Z"/><path class="cls-1" d="M267,158.76l-9.79,22.64,12.52,29.14H181.33l42.3-101a34.53,34.53,0,1,0-16.3-7.54L161,210.54h-.59v1.38l-7.08,16.56H288v0h9ZM229.54,56.05a19.48,19.48,0,1,1-19.48,19.48A19.48,19.48,0,0,1,229.54,56.05Z"/><path class="cls-1" d="M294.29,67.45l-19.5,0L381.85,316.61H333.72l-20.15-48.16H201.35l-20.46,48.16H153.07a34.57,34.57,0,1,0-.15,17.94H193.8L214,286.38h88.1l18.66,48.17h68.82l19.54,0ZM119.63,344.75a19.47,19.47,0,1,1,19.47-19.47A19.47,19.47,0,0,1,119.63,344.75Z"/><path class="cls-1" d="M438.93,392.69h31.94v4.49H457.11v38.28h-4.43V397.18H438.93Z"/><path class="cls-1" d="M539.34,416.32l21.6,19.14H554.3L534,417.34v18.12h-4.48V392.69H546.4a11.82,11.82,0,0,1,0,23.63ZM534,411.83H546.4a7.33,7.33,0,0,0,0-14.65H534Z"/><path class="cls-1" d="M641.74,392.69l18.78,42.77h-4.85l-5.8-13.22H630.19l-5.8,13.22h-4.85l18.79-42.77Zm6.16,25.13-7.84-17.89-7.9,17.89Z"/><path class="cls-1" d="M750.77,396,725.4,431h25.37v4.42l-31.65.18v-3.47l25.31-35H719.12v-4.49h31.65Z"/><path class="cls-1" d="M809.37,392.69h28.18v4.49H813.86v14.65h17.29v4.49H813.86V431h23.69v4.49H809.37Z"/><path class="cls-1" d="M926.54,392.69H931v42.77h-3.59l-26.8-34.27v34.27h-4.49V392.69h3.59L926.54,427Z"/><path class="cls-1" d="M1024.62,414.05a21.38,21.38,0,0,1-21.35,21.41H989.63V392.69h13.64A21.37,21.37,0,0,1,1024.62,414.05Zm-4.42,0a17,17,0,0,0-16.93-16.93h-9.15V431h9.15A17,17,0,0,0,1020.2,414.05Z"/><path class="cls-1" d="M1125.64,414a21.21,21.21,0,1,1-21.18-21.24A21.23,21.23,0,0,1,1125.64,414Zm-4.37,0a16.81,16.81,0,1,0-16.81,16.87A16.82,16.82,0,0,0,1121.27,414Z"/><path class="cls-1" d="M1290.05,423.68c0,6.52-6.22,11.78-13.82,11.78h-3.65c-7.6,0-13.82-5.26-13.82-11.78v-.24l.06-1.68h4.67l-.06,1.92c-.12,4,4.13,7.29,9.15,7.29h3.65c5,0,9.15-3.28,9.15-7.29s-4.13-7.36-9.15-7.36h-1.68c-2.45-.12-5.74-.42-7.53-1.5-4.73-2.75-7-6.1-7-10.34,0-6.46,6.22-11.79,13.82-11.79h1.07c7.36,0,13.46,4.91,13.82,11.19l.12,1.79h-4.67l-.11-1.61c-.3-3.89-4.31-6.88-9.16-6.88h-1.07c-5,0-9.1,3.29-9.1,7.3s3.83,7.23,8.62,7.35h2.21v.06a21.91,21.91,0,0,1,3.11.18h.18C1285.38,412.85,1290.05,418,1290.05,423.68Z"/><path class="cls-1" d="M1391.06,414a21.21,21.21,0,1,1-21.17-21.24A21.22,21.22,0,0,1,1391.06,414Zm-4.36,0a16.81,16.81,0,1,0-16.81,16.87A16.83,16.83,0,0,0,1386.7,414Z"/><path class="cls-1" d="M1478,431v4.42h-28.29V392.69h4.48V431Z"/><path class="cls-1" d="M1565.82,392.69h4.42v26a16.85,16.85,0,0,1-33.61,1.68h-.06V392.69h4.48v26.14a12.39,12.39,0,0,0,24.77.06v-26.2Z"/><path class="cls-1" d="M1666.35,419.49H1671a21.17,21.17,0,0,1-19.44,16v.9a4,4,0,0,1,.9-.06,5.09,5.09,0,1,1-5,6.28h3.83a1.58,1.58,0,0,0,1.14.42,1.62,1.62,0,0,0,0-3.23,1.73,1.73,0,0,0-1.26.54v.06h-3.41v-4.91a21.46,21.46,0,1,1,23.39-26.2h-4.61a17.06,17.06,0,1,0-.18,10.23Z"/><path class="cls-1" d="M1771.85,414a21.2,21.2,0,1,1-21.17-21.24A21.22,21.22,0,0,1,1771.85,414Zm-4.36,0a16.81,16.81,0,1,0-16.81,16.87A16.83,16.83,0,0,0,1767.49,414Zm-11-26.68-.3.48a3.66,3.66,0,0,1-3,1.91,5.29,5.29,0,0,1-2.45-.77,4.39,4.39,0,0,0-2.21-.66c-.3,0-.66.06-1.08.84l-.72,1.19L1745.3,388l.24-.42a3.47,3.47,0,0,1,3.11-2,7.25,7.25,0,0,1,2.63.72,5.83,5.83,0,0,0,1.91.72c.42,0,.78-.24,1.2-1l.72-1Z"/><path class="cls-1" d="M1831.48,392.69h28.17v4.49H1836v14.65h17.29v4.49H1836V431h23.69v4.49h-28.17Z"/><path class="cls-1" d="M1949.54,423.68c0,6.52-6.22,11.78-13.82,11.78h-3.64c-7.6,0-13.82-5.26-13.82-11.78v-.24l.06-1.68H1923l-.06,1.92c-.12,4,4.13,7.29,9.16,7.29h3.64c5,0,9.15-3.28,9.15-7.29s-4.12-7.36-9.15-7.36h-1.67c-2.45-.12-5.74-.42-7.54-1.5-4.72-2.75-7-6.1-7-10.34,0-6.46,6.22-11.79,13.82-11.79h1.08c7.35,0,13.46,4.91,13.81,11.19l.12,1.79h-4.66l-.12-1.61c-.3-3.89-4.31-6.88-9.15-6.88h-1.08c-5,0-9.09,3.29-9.09,7.3s3.83,7.23,8.61,7.35h2.22v.06a22.08,22.08,0,0,1,3.11.18h.18C1944.87,412.85,1949.54,418,1949.54,423.68Z"/></g></svg>