<svg id="Camada_1" data-name="Camada 1" xmlns="http://www.w3.org/2000/svg" viewBox="0 0 1387.5 495.26"><defs><style>.cls-1{fill:#424242;}.cls-2{fill:#0071bc;}.cls-3{font-size:38.17px;}.cls-10,.cls-3{fill:#444;}.cls-4{letter-spacing:-0.01em;}.cls-5{letter-spacing:-0.01em;}.cls-6{letter-spacing:-0.02em;}.cls-7{letter-spacing:-0.03em;}.cls-8{letter-spacing:-0.02em;}.cls-9{letter-spacing:-0.01em;}</style></defs><path class="cls-1" d="M448.56,272.71c-4.56,2.38-13.68,4.76-25.36,4.76-27.08,0-47.45-17.87-47.45-50.79,0-31.42,20.37-52.72,50.16-52.72,12,0,19.52,2.68,22.79,4.47l-3,10.57a43.54,43.54,0,0,0-19.38-4.17c-22.51,0-37.47,15-37.47,41.41,0,24.57,13.53,40.36,36.9,40.36,7.55,0,15.25-1.64,20.24-4.17Z"/><path class="cls-1" d="M471.07,242.32c.29,17.73,11.12,25,23.66,25,9,0,14.39-1.64,19.09-3.73L516,273c-4.42,2.08-12,4.46-22.94,4.46-21.23,0-33.92-14.59-33.92-36.34s12.26-38.87,32.35-38.87c22.51,0,28.5,20.7,28.5,34a51.93,51.93,0,0,1-.43,6.1Zm36.77-9.38c.14-8.34-3.28-21.3-17.39-21.3-12.68,0-18.24,12.22-19.24,21.3Z"/><path class="cls-1" d="M537.47,223.41c0-7.45-.14-13.56-.57-19.51H548l.71,11.91H549a25.22,25.22,0,0,1,22.8-13.55c9.55,0,24.37,6,24.37,30.68v43H583.64V234.43c0-11.62-4.13-21.3-16-21.3-8.26,0-14.68,6.11-16.82,13.41a19.88,19.88,0,0,0-.85,6.1V276H537.47Z"/><path class="cls-1" d="M633.08,183.2v20.7h18v10h-18v38.87c0,8.93,2.42,14,9.41,14a27.06,27.06,0,0,0,7.26-.89l.57,9.83a29.55,29.55,0,0,1-11.11,1.78c-5.84,0-10.55-1.93-13.54-5.51-3.56-3.87-4.84-10.28-4.84-18.76V213.88H610.14v-10h10.69V186.62Z"/><path class="cls-1" d="M667.13,226.39c0-8.49-.14-15.79-.57-22.49h11l.42,14.15h.57c3.14-9.68,10.69-15.79,19.1-15.79a12.93,12.93,0,0,1,3.56.45v12.36a17.87,17.87,0,0,0-4.27-.45c-8.84,0-15.11,7-16.82,16.83a39.11,39.11,0,0,0-.57,6.11V276h-12.4Z"/><path class="cls-1" d="M753.2,276l-1-9.08h-.43a25.31,25.31,0,0,1-21.08,10.72c-14,0-21.09-10.27-21.09-20.7,0-17.43,14.82-27,41.46-26.81v-1.49c0-6-1.57-16.68-15.67-16.68a33.37,33.37,0,0,0-18,5.36l-2.85-8.64c5.7-3.87,14-6.4,22.66-6.4,21.09,0,26.22,15,26.22,29.49v27A105.36,105.36,0,0,0,764.6,276Zm-1.85-36.78c-13.68-.3-29.21,2.23-29.21,16.23,0,8.49,5.41,12.51,11.82,12.51a17.26,17.26,0,0,0,16.68-12.06,14.48,14.48,0,0,0,.71-4.17Z"/><path class="cls-1" d="M785.69,170.24h12.53V276H785.69Z"/><path class="cls-2" d="M820,260.2a42.59,42.59,0,0,0,22.23,6.55c12.68,0,20.09-7,20.09-17.13,0-9.38-5.13-14.74-18.09-20-15.68-5.8-25.37-14.29-25.37-28.44,0-15.64,12.4-27.26,31.07-27.26,9.83,0,16.95,2.38,21.23,4.92l-3.42,10.57a37,37,0,0,0-18.24-4.77c-13.11,0-18.1,8.2-18.1,15,0,9.38,5.84,14,19.1,19.36,16.24,6.55,24.51,14.74,24.51,29.49,0,15.49-11,28.89-33.63,28.89-9.27,0-19.38-2.83-24.51-6.4Z"/><path class="cls-2" d="M956.81,239.34c0,26.66-17.67,38.28-34.34,38.28-18.67,0-33.06-14.3-33.06-37.08,0-24.13,15.11-38.28,34.2-38.28C943.42,202.26,956.81,217.3,956.81,239.34Zm-54.71.75c0,15.79,8.69,27.7,20.94,27.7,12,0,21-11.76,21-28,0-12.21-5.84-27.7-20.66-27.7S902.1,226.39,902.1,240.09Z"/><path class="cls-2" d="M975.9,276v-62.1h-9.69v-10h9.69v-3.43c0-10.13,2.14-19.36,8-25.17a23.46,23.46,0,0,1,16.82-6.7,28,28,0,0,1,10.68,2.08l-1.7,10.13a18.12,18.12,0,0,0-8-1.64c-10.69,0-13.4,9.83-13.4,20.85v3.88H1005v10H988.3V276Z"/><path class="cls-2" d="M1034.89,183.2v20.7h18v10h-18v38.87c0,8.93,2.42,14,9.41,14a27.15,27.15,0,0,0,7.27-.89l.56,9.83a29.55,29.55,0,0,1-11.11,1.78c-5.84,0-10.54-1.93-13.54-5.51-3.56-3.87-4.84-10.28-4.84-18.76V213.88H1012v-10h10.69V186.62Z"/><path class="cls-2" d="M1075.21,203.9l9.12,36.64c2,8,3.85,15.49,5.13,22.93h.43c1.57-7.3,3.85-15,6.13-22.78l11.26-36.79h10.54l10.69,36c2.56,8.64,4.56,16.23,6.12,23.53h.43a224.86,224.86,0,0,1,5.27-23.38l9.83-36.19h12.4L1140.33,276h-11.4l-10.54-34.4c-2.42-8-4.42-15.19-6.13-23.68H1112a221.73,221.73,0,0,1-6.27,23.83L1094.59,276h-11.4l-20.8-72.08Z"/><path class="cls-2" d="M1214.71,276l-1-9.08h-.42a25.35,25.35,0,0,1-21.09,10.72c-14,0-21.09-10.27-21.09-20.7,0-17.43,14.82-27,41.46-26.81v-1.49c0-6-1.56-16.68-15.67-16.68a33.37,33.37,0,0,0-18,5.36l-2.84-8.64c5.69-3.87,14-6.4,22.65-6.4,21.09,0,26.22,15,26.22,29.49v27a105.36,105.36,0,0,0,1.14,17.27Zm-1.85-36.78c-13.68-.3-29.21,2.23-29.21,16.23,0,8.49,5.41,12.51,11.82,12.51a17.26,17.26,0,0,0,16.68-12.06,14.48,14.48,0,0,0,.71-4.17Z"/><path class="cls-2" d="M1247.19,226.39c0-8.49-.14-15.79-.57-22.49h11l.42,14.15h.57c3.14-9.68,10.69-15.79,19.1-15.79a12.93,12.93,0,0,1,3.56.45v12.36a17.9,17.9,0,0,0-4.28-.45c-8.83,0-15.1,7-16.81,16.83a39.11,39.11,0,0,0-.57,6.11V276h-12.4Z"/><path class="cls-2" d="M1301.34,242.32c.29,17.73,11.12,25,23.65,25,9,0,14.4-1.64,19.1-3.73l2.14,9.39c-4.42,2.08-12,4.46-22.94,4.46-21.24,0-33.92-14.59-33.92-36.34s12.26-38.87,32.35-38.87c22.51,0,28.5,20.7,28.5,34a51.93,51.93,0,0,1-.43,6.1Zm36.77-9.38c.14-8.34-3.28-21.3-17.39-21.3-12.68,0-18.24,12.22-19.24,21.3Z"/><path class="cls-2" d="M172.25,109.58c2.88-6.84.86-15.36-4.51-19s-12.05-1.09-14.92,5.76l-27.5,65.42h25Z"/><path class="cls-2" d="M224.67,161.73h25L222.19,96.31c-2.87-6.85-9.55-9.42-14.93-5.76s-7.38,12.19-4.51,19Z"/><circle class="cls-2" cx="178.81" cy="220.91" r="9.66"/><circle class="cls-2" cx="124.31" cy="344.76" r="9.66" transform="translate(-231.02 434.49) rotate(-84.35)"/><path class="cls-2" d="M318.46,183.66l-7.35-5.46a28.91,28.91,0,0,0-14-3.71H77.89c-23.53,0-40.54,28.69-34.12,57.56L74.43,370c4.33,19.46,18.26,32.89,34.13,32.89h157.9c15.86,0,29.8-13.43,34.12-32.89l30.67-137.9C335.45,213.17,329.58,194.41,318.46,183.66ZM144.51,288.55v-.68h.29l23-53.81a17.14,17.14,0,1,1,11,4,17.74,17.74,0,0,1-2.93-.27l-21,50.07h43.85l-6.21-14.46,4.85-11.22,14.85,34.55h-4.46v0H141Zm113.65,60.81H224l-9.26-23.89H171.1l-10,23.89H140.82a17.17,17.17,0,1,1,.07-8.9h13.8l10.15-23.88h55.64l10,23.88h23.87L201.25,216.93l9.67,0,56.93,132.47Z"/><text class="cls-3" transform="translate(577.27 327.14)"><tspan class="cls-4">A</tspan><tspan x="25.01" y="0">ma</tspan><tspan class="cls-5" x="78.68" y="0">r</tspan><tspan x="91.89" y="0">o Net</tspan><tspan class="cls-4" x="183.36" y="0">t</tspan><tspan x="195.72" y="0">o |</tspan><tspan class="cls-6" x="236.37" y="0"> </tspan><tspan class="cls-7" x="244.93" y="0">T</tspan><tspan class="cls-8" x="267.09" y="0">r</tspan><tspan x="280.17" y="0">a</tspan><tspan class="cls-9" x="300.68" y="0">z</tspan><tspan x="319.69" y="0">endo Soluções</tspan></text><rect class="cls-10" x="375.75" y="289.41" width="974.47" height="3.67"/></svg>