<svg id="Camada_1" data-name="Camada 1" xmlns="http://www.w3.org/2000/svg" viewBox="0 0 500 500"><defs><style>.cls-1{fill:#0071bc;}</style></defs><path class="cls-1" d="M226,56.65c3.7-8.8,1.1-19.77-5.81-24.49s-15.51-1.4-19.21,7.4l-35.39,84.22h32.2Z"/><path class="cls-1" d="M293.45,123.78h32.21L290.27,39.56c-3.7-8.8-12.3-12.12-19.22-7.4s-9.51,15.69-5.8,24.49Z"/><circle class="cls-1" cx="234.43" cy="199.96" r="12.43"/><circle class="cls-1" cx="164.27" cy="359.38" r="12.43" transform="translate(-209.55 487.44) rotate(-84.35)"/><path class="cls-1" d="M414.19,152l-9.47-7a37.16,37.16,0,0,0-18-4.77H104.52c-30.3,0-52.19,36.93-43.93,74.1l39.47,177.5c5.57,25.06,23.51,42.34,43.93,42.34H347.25c20.42,0,38.36-17.28,43.93-42.34l39.47-177.5C436.05,190,428.51,165.85,414.19,152ZM190.27,287v-.87h.38l29.6-69.27a22.39,22.39,0,1,1,10.41,4.82l-27,64.45h56.44l-8-18.61,6.25-14.45,19.12,44.48h-5.75v0h-86Zm146.3,78.28H292.65l-11.92-30.75H224.49L211.61,365.3H185.52a22.08,22.08,0,1,1,.1-11.45h17.75l13.07-30.74h71.63l12.86,30.74h30.72l-68.34-159,12.45,0L349,365.33Z"/></svg>