<svg id="Camada_1" data-name="Camada 1" xmlns="http://www.w3.org/2000/svg" viewBox="0 0 500 500"><defs><style>.cls-1{fill:#424242;}.cls-2{fill:#0071bc;}</style></defs><path class="cls-1" d="M136.23,430.46a4.33,4.33,0,0,1,0,.55,1.15,1.15,0,0,1-.11.38.51.51,0,0,1-.17.21.46.46,0,0,1-.23.06h-5.8v18.68a.48.48,0,0,1-.06.24.44.44,0,0,1-.23.15,1.62,1.62,0,0,1-.42.1,3.86,3.86,0,0,1-.66.05,4,4,0,0,1-.65-.05,1.71,1.71,0,0,1-.43-.1.44.44,0,0,1-.23-.15.48.48,0,0,1-.06-.24V431.66h-5.8a.46.46,0,0,1-.23-.06.6.6,0,0,1-.17-.21,2,2,0,0,1-.1-.38,3,3,0,0,1,0-.55,3,3,0,0,1,0-.55,2.32,2.32,0,0,1,.1-.4.52.52,0,0,1,.17-.21.39.39,0,0,1,.23-.07h14.34a.39.39,0,0,1,.23.07.45.45,0,0,1,.17.21,1.28,1.28,0,0,1,.11.4A4.44,4.44,0,0,1,136.23,430.46Z"/><path class="cls-1" d="M147.35,436.36c0,.24,0,.45,0,.61a1.6,1.6,0,0,1-.06.39.51.51,0,0,1-.12.22.26.26,0,0,1-.2.08.88.88,0,0,1-.31-.08l-.41-.15c-.16-.05-.33-.1-.52-.14a3,3,0,0,0-.62-.07,1.92,1.92,0,0,0-.78.17,2.84,2.84,0,0,0-.81.55,6.69,6.69,0,0,0-.88,1c-.31.43-.65.94-1,1.55v9.86a.38.38,0,0,1-.06.22.49.49,0,0,1-.21.16,1.22,1.22,0,0,1-.4.1,5.49,5.49,0,0,1-.65,0,5.31,5.31,0,0,1-.64,0,1.29,1.29,0,0,1-.41-.1.33.33,0,0,1-.2-.16.38.38,0,0,1-.06-.22v-15a.52.52,0,0,1,.05-.23.4.4,0,0,1,.19-.17,1.17,1.17,0,0,1,.37-.1l.59,0,.58,0a.91.91,0,0,1,.35.1.53.53,0,0,1,.19.17.41.41,0,0,1,.05.23v2.18a13.27,13.27,0,0,1,1.11-1.47,6.36,6.36,0,0,1,1-.89,2.8,2.8,0,0,1,.92-.45,3.5,3.5,0,0,1,.91-.12,3.94,3.94,0,0,1,.47,0l.55.09.52.15a1.24,1.24,0,0,1,.33.17.42.42,0,0,1,.12.16,1.24,1.24,0,0,1,.09.53C147.35,435.9,147.35,436.1,147.35,436.36Z"/><path class="cls-1" d="M162.56,450.38a.38.38,0,0,1-.12.3,1.22,1.22,0,0,1-.36.15,3.33,3.33,0,0,1-.65.05,3.86,3.86,0,0,1-.66-.05,1,1,0,0,1-.36-.15.41.41,0,0,1-.11-.3v-1.5a7.14,7.14,0,0,1-2.09,1.63,5.35,5.35,0,0,1-2.45.58,6.3,6.3,0,0,1-2-.31,4.27,4.27,0,0,1-1.56-.89,4,4,0,0,1-1-1.43,4.88,4.88,0,0,1-.36-1.93,4.76,4.76,0,0,1,.49-2.2,4.29,4.29,0,0,1,1.42-1.55,7,7,0,0,1,2.26-.92,13.29,13.29,0,0,1,3-.31h2v-1.16a6,6,0,0,0-.18-1.54,2.55,2.55,0,0,0-.56-1.1,2.39,2.39,0,0,0-1-.67,4.58,4.58,0,0,0-1.53-.22,5.92,5.92,0,0,0-1.75.24,9.76,9.76,0,0,0-1.35.53c-.39.2-.71.37-1,.53a1.23,1.23,0,0,1-.58.25.45.45,0,0,1-.23-.07.67.67,0,0,1-.16-.2,1,1,0,0,1-.11-.34,3.23,3.23,0,0,1,0-.46,2.85,2.85,0,0,1,.06-.66,1,1,0,0,1,.27-.46,3.41,3.41,0,0,1,.74-.5,7.19,7.19,0,0,1,1.21-.54,11.66,11.66,0,0,1,1.5-.4,9,9,0,0,1,1.64-.15,8.44,8.44,0,0,1,2.63.36,4,4,0,0,1,2.72,2.83,9,9,0,0,1,.3,2.45ZM160,443.53H157.7a8.64,8.64,0,0,0-1.88.19,3.82,3.82,0,0,0-1.32.57,2.27,2.27,0,0,0-.77.9,2.73,2.73,0,0,0-.25,1.21,2.48,2.48,0,0,0,.71,1.85,2.73,2.73,0,0,0,2,.69,3.52,3.52,0,0,0,1.92-.55,8.14,8.14,0,0,0,1.86-1.68Z"/><path class="cls-1" d="M178.62,449.61a2.76,2.76,0,0,1-.05.54,2.07,2.07,0,0,1-.11.37.42.42,0,0,1-.17.2.53.53,0,0,1-.24.06h-8.83a.72.72,0,0,1-.55-.24,1.14,1.14,0,0,1-.21-.78v-.57a2.54,2.54,0,0,1,0-.41,2.49,2.49,0,0,1,.09-.37q.07-.18.18-.39a4.94,4.94,0,0,1,.27-.47l6.32-10.29h-6.13a.44.44,0,0,1-.4-.28,1.81,1.81,0,0,1-.16-.89,2.68,2.68,0,0,1,0-.52,1.1,1.1,0,0,1,.1-.37.51.51,0,0,1,.18-.2.45.45,0,0,1,.24-.06h8.22a1,1,0,0,1,.31.05.55.55,0,0,1,.23.17.71.71,0,0,1,.15.3,1.51,1.51,0,0,1,.06.46v.54a2.9,2.9,0,0,1,0,.43,2.79,2.79,0,0,1-.1.39,3.27,3.27,0,0,1-.17.41l-.27.48-6.3,10.29h6.73a.46.46,0,0,1,.23.06.46.46,0,0,1,.17.19,1.26,1.26,0,0,1,.12.36A2.76,2.76,0,0,1,178.62,449.61Z"/><path class="cls-1" d="M196,442.22a1.16,1.16,0,0,1-.31.92,1,1,0,0,1-.71.28h-9.44a9.56,9.56,0,0,0,.24,2.24,4.34,4.34,0,0,0,.8,1.72,3.64,3.64,0,0,0,1.45,1.1,5.71,5.71,0,0,0,2.2.38,9,9,0,0,0,1.82-.17,9.72,9.72,0,0,0,1.38-.4c.39-.14.71-.27,1-.39a1.64,1.64,0,0,1,.56-.17.34.34,0,0,1,.2.06.34.34,0,0,1,.14.17,1.17,1.17,0,0,1,.07.33,3.43,3.43,0,0,1,0,.5c0,.15,0,.27,0,.38a2.09,2.09,0,0,1,0,.28.78.78,0,0,1-.08.23l-.14.19a2.41,2.41,0,0,1-.52.3,8,8,0,0,1-1.12.41,14.09,14.09,0,0,1-1.58.35,10.66,10.66,0,0,1-1.92.16,8.65,8.65,0,0,1-3.1-.51,5.88,5.88,0,0,1-2.24-1.54,6.65,6.65,0,0,1-1.37-2.54,12.68,12.68,0,0,1-.46-3.57,11.69,11.69,0,0,1,.48-3.47,7.47,7.47,0,0,1,1.38-2.61,6,6,0,0,1,2.17-1.65,6.91,6.91,0,0,1,2.85-.57,6.61,6.61,0,0,1,2.88.56,5.58,5.58,0,0,1,1.95,1.52,6.26,6.26,0,0,1,1.12,2.25,10.23,10.23,0,0,1,.36,2.76Zm-2.64-.82a5.2,5.2,0,0,0-.92-3.39,3.43,3.43,0,0,0-2.88-1.24,3.64,3.64,0,0,0-2.95,1.4,4.62,4.62,0,0,0-.77,1.48,6.36,6.36,0,0,0-.3,1.75Z"/><path class="cls-1" d="M214.38,450.36a.38.38,0,0,1-.06.22.39.39,0,0,1-.21.16,1.16,1.16,0,0,1-.4.1,5.27,5.27,0,0,1-.63,0,5.54,5.54,0,0,1-.66,0,1.22,1.22,0,0,1-.4-.1.41.41,0,0,1-.2-.16.32.32,0,0,1-.07-.22v-8.78a8.84,8.84,0,0,0-.19-2.06,4.12,4.12,0,0,0-.56-1.35,2.42,2.42,0,0,0-.94-.86,2.92,2.92,0,0,0-1.35-.3,3.25,3.25,0,0,0-2,.73,10.72,10.72,0,0,0-2.07,2.15v10.47a.38.38,0,0,1-.07.22.39.39,0,0,1-.21.16,1.09,1.09,0,0,1-.39.1,5.54,5.54,0,0,1-.66,0,5.27,5.27,0,0,1-.63,0,1.29,1.29,0,0,1-.41-.1.39.39,0,0,1-.21-.16.48.48,0,0,1-.05-.22v-15a.53.53,0,0,1,0-.23.5.5,0,0,1,.2-.17,1,1,0,0,1,.36-.1l.59,0,.58,0a.92.92,0,0,1,.36.1.43.43,0,0,1,.18.17.41.41,0,0,1,.06.23v2a8.92,8.92,0,0,1,2.41-2.08,5,5,0,0,1,2.43-.65,5.22,5.22,0,0,1,2.42.5,4.36,4.36,0,0,1,1.58,1.36,5.71,5.71,0,0,1,.87,2,12.68,12.68,0,0,1,.26,2.74Z"/><path class="cls-1" d="M233.54,450.36a.41.41,0,0,1,0,.23.38.38,0,0,1-.19.16,1.34,1.34,0,0,1-.36.09,4,4,0,0,1-.54,0,4.06,4.06,0,0,1-.56,0,1.54,1.54,0,0,1-.37-.09.41.41,0,0,1-.2-.16.35.35,0,0,1-.07-.23v-2a9.74,9.74,0,0,1-2.35,2,5.22,5.22,0,0,1-2.66.71,5.32,5.32,0,0,1-2.7-.64,5.14,5.14,0,0,1-1.8-1.73,7.84,7.84,0,0,1-1-2.56,14.91,14.91,0,0,1-.31-3.11,14.39,14.39,0,0,1,.39-3.49,8,8,0,0,1,1.18-2.65,5.23,5.23,0,0,1,1.94-1.69,5.71,5.71,0,0,1,2.67-.59,4.75,4.75,0,0,1,2.3.57,8.34,8.34,0,0,1,2.06,1.69v-8.71A.46.46,0,0,1,231,428a.34.34,0,0,1,.21-.17,2.46,2.46,0,0,1,.41-.1,3.62,3.62,0,0,1,.63,0,4,4,0,0,1,.65,0,2.1,2.1,0,0,1,.4.1.45.45,0,0,1,.21.17.38.38,0,0,1,.07.22Zm-2.64-10.54a10.92,10.92,0,0,0-2.06-2.11,3.52,3.52,0,0,0-2.08-.72,2.9,2.9,0,0,0-1.71.5,3.8,3.8,0,0,0-1.13,1.31,6.22,6.22,0,0,0-.64,1.85,11.32,11.32,0,0,0-.2,2.1,14.55,14.55,0,0,0,.17,2.21,6.42,6.42,0,0,0,.58,1.93,3.58,3.58,0,0,0,1.1,1.35,2.78,2.78,0,0,0,1.72.5,3.43,3.43,0,0,0,1-.15,3.55,3.55,0,0,0,1-.5,7.41,7.41,0,0,0,1.07-.9,12.65,12.65,0,0,0,1.18-1.38Z"/><path class="cls-1" d="M253.82,442.7a11.59,11.59,0,0,1-.46,3.37,7.64,7.64,0,0,1-1.38,2.66,6.32,6.32,0,0,1-2.29,1.74,7.76,7.76,0,0,1-3.19.62,7.93,7.93,0,0,1-3.09-.55,5.66,5.66,0,0,1-2.19-1.6,6.71,6.71,0,0,1-1.3-2.54,12.2,12.2,0,0,1-.43-3.4,12,12,0,0,1,.45-3.37,7.46,7.46,0,0,1,1.37-2.66,6.18,6.18,0,0,1,2.29-1.73,7.74,7.74,0,0,1,3.2-.61,8.07,8.07,0,0,1,3.08.54,5.61,5.61,0,0,1,2.19,1.6,7,7,0,0,1,1.31,2.55A11.78,11.78,0,0,1,253.82,442.7Zm-2.72.18a11.19,11.19,0,0,0-.22-2.29,5.73,5.73,0,0,0-.71-1.9,3.63,3.63,0,0,0-1.35-1.29,4.29,4.29,0,0,0-2.12-.48,4.33,4.33,0,0,0-2,.44,3.71,3.71,0,0,0-1.39,1.22,5.39,5.39,0,0,0-.81,1.87,9.76,9.76,0,0,0-.27,2.37,11.32,11.32,0,0,0,.22,2.31,5.47,5.47,0,0,0,.72,1.89,3.64,3.64,0,0,0,1.36,1.28,4.26,4.26,0,0,0,2.12.48,4.38,4.38,0,0,0,2-.44,3.71,3.71,0,0,0,1.4-1.21,5.4,5.4,0,0,0,.8-1.87A10.33,10.33,0,0,0,251.1,442.88Z"/><path class="cls-1" d="M280.62,444.73a6.44,6.44,0,0,1-.54,2.7,5.72,5.72,0,0,1-1.48,2,6.46,6.46,0,0,1-2.23,1.24,9.07,9.07,0,0,1-2.76.41,9.64,9.64,0,0,1-1.92-.18,9.93,9.93,0,0,1-1.58-.45,7.46,7.46,0,0,1-1.16-.55,3.28,3.28,0,0,1-.65-.48,1.14,1.14,0,0,1-.27-.51,3.08,3.08,0,0,1-.09-.83,5,5,0,0,1,0-.6,1.23,1.23,0,0,1,.1-.39.39.39,0,0,1,.16-.21.38.38,0,0,1,.22-.06,1.24,1.24,0,0,1,.63.28,9.51,9.51,0,0,0,1,.62,9.63,9.63,0,0,0,1.54.62,6.57,6.57,0,0,0,2.08.29,5,5,0,0,0,1.63-.25,3.72,3.72,0,0,0,1.27-.7,3,3,0,0,0,.82-1.13,3.63,3.63,0,0,0,.29-1.51,2.93,2.93,0,0,0-.4-1.57,4,4,0,0,0-1.05-1.14,10,10,0,0,0-1.49-.9l-1.71-.83a18.78,18.78,0,0,1-1.7-.94,7.31,7.31,0,0,1-1.49-1.21,5.93,5.93,0,0,1-1.06-1.64,5.71,5.71,0,0,1-.4-2.26,5.79,5.79,0,0,1,.47-2.41,5,5,0,0,1,1.3-1.77,5.77,5.77,0,0,1,2-1.09,8,8,0,0,1,2.49-.37,8.13,8.13,0,0,1,1.38.12,8.52,8.52,0,0,1,1.3.33,7,7,0,0,1,1.09.47,2.54,2.54,0,0,1,.63.42.76.76,0,0,1,.28.48,2.49,2.49,0,0,1,.05.34c0,.13,0,.3,0,.52a4.22,4.22,0,0,1,0,.53,2,2,0,0,1-.07.39.48.48,0,0,1-.14.23.28.28,0,0,1-.2.08,1.2,1.2,0,0,1-.54-.24c-.25-.15-.56-.33-.92-.52a8.25,8.25,0,0,0-1.28-.53,5.43,5.43,0,0,0-1.67-.24,4.19,4.19,0,0,0-1.49.24,3,3,0,0,0-1.06.64,2.57,2.57,0,0,0-.62.95,3.18,3.18,0,0,0-.2,1.16,3,3,0,0,0,.39,1.55,4.26,4.26,0,0,0,1.06,1.15,9.92,9.92,0,0,0,1.51.92l1.72.84c.58.28,1.16.59,1.72.93a7.32,7.32,0,0,1,1.5,1.2,5.43,5.43,0,0,1,1.07,1.63A5.6,5.6,0,0,1,280.62,444.73Z"/><path class="cls-1" d="M299.65,442.7a11.59,11.59,0,0,1-.46,3.37,7.64,7.64,0,0,1-1.38,2.66,6.32,6.32,0,0,1-2.29,1.74,7.76,7.76,0,0,1-3.19.62,7.93,7.93,0,0,1-3.09-.55,5.66,5.66,0,0,1-2.19-1.6,6.71,6.71,0,0,1-1.3-2.54,12.2,12.2,0,0,1-.43-3.4,12,12,0,0,1,.45-3.37,7.46,7.46,0,0,1,1.37-2.66,6.18,6.18,0,0,1,2.29-1.73,7.74,7.74,0,0,1,3.2-.61,8.07,8.07,0,0,1,3.08.54,5.61,5.61,0,0,1,2.19,1.6,7,7,0,0,1,1.31,2.55A11.78,11.78,0,0,1,299.65,442.7Zm-2.72.18a11.19,11.19,0,0,0-.22-2.29,5.73,5.73,0,0,0-.71-1.9,3.56,3.56,0,0,0-1.35-1.29,4.29,4.29,0,0,0-2.12-.48,4.33,4.33,0,0,0-2,.44,3.71,3.71,0,0,0-1.39,1.22,5.39,5.39,0,0,0-.81,1.87,9.76,9.76,0,0,0-.27,2.37,11.32,11.32,0,0,0,.22,2.31A5.47,5.47,0,0,0,289,447a3.64,3.64,0,0,0,1.36,1.28,4.26,4.26,0,0,0,2.12.48,4.38,4.38,0,0,0,2-.44,3.71,3.71,0,0,0,1.4-1.21,5.4,5.4,0,0,0,.8-1.87A10.33,10.33,0,0,0,296.93,442.88Z"/><path class="cls-1" d="M308.24,450.36a.38.38,0,0,1-.06.22.49.49,0,0,1-.21.16,1.22,1.22,0,0,1-.4.1,5.49,5.49,0,0,1-.65,0,5.31,5.31,0,0,1-.64,0,1.37,1.37,0,0,1-.41-.1.37.37,0,0,1-.2-.16.38.38,0,0,1-.06-.22V428.12a.48.48,0,0,1,.06-.24.42.42,0,0,1,.2-.16,1.37,1.37,0,0,1,.41-.1,3.82,3.82,0,0,1,.64,0,4,4,0,0,1,.65,0,1.22,1.22,0,0,1,.4.1.58.58,0,0,1,.21.16.48.48,0,0,1,.06.24Z"/><path class="cls-1" d="M327.47,450.36a.38.38,0,0,1-.06.22.37.37,0,0,1-.2.16,1.1,1.1,0,0,1-.37.1,4.35,4.35,0,0,1-.57,0,4.73,4.73,0,0,1-.6,0,1,1,0,0,1-.36-.1.32.32,0,0,1-.18-.16.38.38,0,0,1-.05-.22v-2a9.13,9.13,0,0,1-2.42,2.06,5,5,0,0,1-2.42.65,5.35,5.35,0,0,1-2.42-.5,4.24,4.24,0,0,1-1.58-1.35,5.48,5.48,0,0,1-.87-2,12.3,12.3,0,0,1-.26-2.77v-9.09a.41.41,0,0,1,.05-.23.51.51,0,0,1,.22-.17,1.29,1.29,0,0,1,.41-.1l.64,0,.64,0a1.22,1.22,0,0,1,.4.1.67.67,0,0,1,.22.17.41.41,0,0,1,.06.23v8.72a9.9,9.9,0,0,0,.18,2.11,4.19,4.19,0,0,0,.56,1.34,2.63,2.63,0,0,0,.95.87,2.85,2.85,0,0,0,1.34.31,3.29,3.29,0,0,0,2-.73,11.31,11.31,0,0,0,2.08-2.15V435.38a.41.41,0,0,1,.06-.23.54.54,0,0,1,.21-.17,1.37,1.37,0,0,1,.41-.1l.64,0,.64,0a1.22,1.22,0,0,1,.4.1.67.67,0,0,1,.22.17.42.42,0,0,1,.07.23Z"/><path class="cls-1" d="M344.72,448.08c0,.19,0,.35,0,.49a2.43,2.43,0,0,1-.05.35,1.45,1.45,0,0,1-.1.25,1.9,1.9,0,0,1-.25.32,5.81,5.81,0,0,1-.7.53,7.42,7.42,0,0,1-1.26.61,6.78,6.78,0,0,1-1.68.41l.41,1a11.92,11.92,0,0,1,.49,1.24,3.15,3.15,0,0,1,.15.92,2.88,2.88,0,0,1-.22,1.13,2.24,2.24,0,0,1-.64.84,2.94,2.94,0,0,1-1,.53,4.28,4.28,0,0,1-1.29.18,7,7,0,0,1-1-.07c-.34,0-.62-.11-.86-.16a3.62,3.62,0,0,1-.5-.15.46.46,0,0,1-.19-.17.73.73,0,0,1-.08-.25,3.9,3.9,0,0,1,0-.4,1.55,1.55,0,0,1,.1-.69.38.38,0,0,1,.34-.17h2a1.29,1.29,0,0,0,.8-.23.79.79,0,0,0,.28-.67,2,2,0,0,0-.09-.54,6,6,0,0,0-.26-.69l-.75-1.74a5.24,5.24,0,0,1-2.7-1.34,6.19,6.19,0,0,1-1.63-2.67,12.4,12.4,0,0,1-.54-3.86,12.16,12.16,0,0,1,.52-3.8,7.22,7.22,0,0,1,1.41-2.61,5.63,5.63,0,0,1,2.12-1.51,7.16,7.16,0,0,1,2.64-.49,6.45,6.45,0,0,1,1.33.14,6.89,6.89,0,0,1,1.19.34,6.15,6.15,0,0,1,1,.5,3.27,3.27,0,0,1,.61.49,1.15,1.15,0,0,1,.39.59,1.68,1.68,0,0,1,.06.36c0,.13,0,.3,0,.5a1.94,1.94,0,0,1-.14.9.39.39,0,0,1-.35.26.9.9,0,0,1-.55-.27,7.6,7.6,0,0,0-.79-.61,5.87,5.87,0,0,0-1.15-.61,4.32,4.32,0,0,0-1.6-.27,3.26,3.26,0,0,0-2.91,1.52,8.05,8.05,0,0,0-1,4.42,11.22,11.22,0,0,0,.26,2.54,5.43,5.43,0,0,0,.77,1.82,3.25,3.25,0,0,0,1.25,1.09,4.27,4.27,0,0,0,3.29.06,6.3,6.3,0,0,0,1.19-.66,8.94,8.94,0,0,0,.84-.65,1,1,0,0,1,.54-.29.26.26,0,0,1,.19.07.56.56,0,0,1,.14.22,1.93,1.93,0,0,1,.07.4A5,5,0,0,1,344.72,448.08Z"/><path class="cls-1" d="M363.36,442.7a11.58,11.58,0,0,1-.47,3.37,7.46,7.46,0,0,1-1.37,2.66,6.35,6.35,0,0,1-2.3,1.74,7.76,7.76,0,0,1-3.19.62,7.85,7.85,0,0,1-3.08-.55,5.51,5.51,0,0,1-2.19-1.6,6.73,6.73,0,0,1-1.31-2.54A12.2,12.2,0,0,1,349,443a12,12,0,0,1,.45-3.37,7.62,7.62,0,0,1,1.37-2.66,6.35,6.35,0,0,1,2.29-1.73,7.74,7.74,0,0,1,3.2-.61,8,8,0,0,1,3.08.54,5.61,5.61,0,0,1,2.19,1.6,6.87,6.87,0,0,1,1.32,2.55A12.14,12.14,0,0,1,363.36,442.7Zm-1.87-13.8a3.91,3.91,0,0,1-.83,2.7,2.85,2.85,0,0,1-2.24.93,3.09,3.09,0,0,1-1.05-.16,3.93,3.93,0,0,1-.85-.41,5.35,5.35,0,0,1-.7-.53c-.21-.19-.42-.37-.63-.53a3.11,3.11,0,0,0-.61-.41,1.33,1.33,0,0,0-.65-.16.93.93,0,0,0-.9.48,2.78,2.78,0,0,0-.25,1.28.66.66,0,0,1,0,.21.24.24,0,0,1-.14.14.73.73,0,0,1-.3.07l-.5,0a2.63,2.63,0,0,1-.43,0,.55.55,0,0,1-.28-.1.41.41,0,0,1-.15-.21,1.25,1.25,0,0,1-.05-.36,4,4,0,0,1,.8-2.63,2.74,2.74,0,0,1,2.27-1,3,3,0,0,1,1.49.34,7.54,7.54,0,0,1,1.12.75l.94.75a1.45,1.45,0,0,0,1,.35,1,1,0,0,0,.86-.44,2.31,2.31,0,0,0,.3-1.3.36.36,0,0,1,.17-.36,1.8,1.8,0,0,1,.72-.09,1.68,1.68,0,0,1,.78.12C361.43,428.42,361.49,428.61,361.49,428.9Zm-.86,14a12,12,0,0,0-.21-2.29,6,6,0,0,0-.72-1.9,3.49,3.49,0,0,0-1.35-1.29,4.26,4.26,0,0,0-2.12-.48,4.36,4.36,0,0,0-2,.44,3.79,3.79,0,0,0-1.39,1.22,5.79,5.79,0,0,0-.81,1.87,9.76,9.76,0,0,0-.27,2.37,12.08,12.08,0,0,0,.22,2.31,5.9,5.9,0,0,0,.72,1.89A3.64,3.64,0,0,0,354,448.3a4.87,4.87,0,0,0,4.13,0,3.64,3.64,0,0,0,1.4-1.21,5.22,5.22,0,0,0,.8-1.87A9.81,9.81,0,0,0,360.63,442.88Z"/><path class="cls-1" d="M381.55,442.22a1.2,1.2,0,0,1-.31.92,1,1,0,0,1-.72.28h-9.44a9.56,9.56,0,0,0,.24,2.24,4.48,4.48,0,0,0,.8,1.72,3.67,3.67,0,0,0,1.46,1.1,5.69,5.69,0,0,0,2.19.38,9.12,9.12,0,0,0,1.83-.17,10.12,10.12,0,0,0,1.38-.4q.58-.21,1-.39a1.62,1.62,0,0,1,.57-.17.34.34,0,0,1,.2.06.4.4,0,0,1,.14.17,1.68,1.68,0,0,1,.07.33c0,.13,0,.3,0,.5s0,.27,0,.38,0,.2,0,.28a.73.73,0,0,1-.23.42,2.23,2.23,0,0,1-.51.3,8,8,0,0,1-1.12.41,14.09,14.09,0,0,1-1.58.35,10.66,10.66,0,0,1-1.92.16,8.65,8.65,0,0,1-3.1-.51,5.8,5.8,0,0,1-2.24-1.54,6.65,6.65,0,0,1-1.37-2.54,12.33,12.33,0,0,1-.46-3.57,11.69,11.69,0,0,1,.48-3.47,7.62,7.62,0,0,1,1.37-2.61,6,6,0,0,1,2.18-1.65,6.91,6.91,0,0,1,2.85-.57,6.64,6.64,0,0,1,2.88.56,5.58,5.58,0,0,1,1.95,1.52,6.26,6.26,0,0,1,1.12,2.25,10.23,10.23,0,0,1,.36,2.76Zm-2.65-.82A5.08,5.08,0,0,0,378,438a3.4,3.4,0,0,0-2.87-1.24,3.61,3.61,0,0,0-1.72.39,3.67,3.67,0,0,0-1.23,1,4.62,4.62,0,0,0-.77,1.48,6.36,6.36,0,0,0-.31,1.75Z"/><path class="cls-1" d="M396.63,446.28a4.93,4.93,0,0,1-.4,2.05,4.11,4.11,0,0,1-1.16,1.51,5.3,5.3,0,0,1-1.78.94,7.81,7.81,0,0,1-2.28.31,8.54,8.54,0,0,1-1.46-.12,8.92,8.92,0,0,1-1.24-.32,6,6,0,0,1-.93-.4,2.83,2.83,0,0,1-.56-.37.92.92,0,0,1-.25-.47,3,3,0,0,1-.08-.82,4,4,0,0,1,0-.53,2,2,0,0,1,.08-.35.34.34,0,0,1,.13-.19.36.36,0,0,1,.2-.06,1.13,1.13,0,0,1,.52.23c.23.15.51.31.84.49a7.51,7.51,0,0,0,1.19.49,5.07,5.07,0,0,0,1.58.22,4.56,4.56,0,0,0,1.21-.15,2.81,2.81,0,0,0,.94-.44,1.92,1.92,0,0,0,.61-.74,2.47,2.47,0,0,0,.22-1.06,1.85,1.85,0,0,0-.31-1.07,3,3,0,0,0-.82-.76,6.91,6.91,0,0,0-1.15-.6l-1.32-.54a13.36,13.36,0,0,1-1.32-.64A5.2,5.2,0,0,1,388,442a4,4,0,0,1-.82-1.23,4.26,4.26,0,0,1-.31-1.72,4.61,4.61,0,0,1,.32-1.69,3.94,3.94,0,0,1,1-1.41,4.9,4.9,0,0,1,1.64-1,6.57,6.57,0,0,1,2.28-.36,6.38,6.38,0,0,1,1.15.1,6.48,6.48,0,0,1,1,.25,4.62,4.62,0,0,1,.79.32,4.18,4.18,0,0,1,.5.31.91.91,0,0,1,.22.23.78.78,0,0,1,.08.23c0,.08,0,.18.05.3s0,.28,0,.45,0,.36,0,.49a2,2,0,0,1-.08.35.49.49,0,0,1-.14.19.27.27,0,0,1-.17.06.91.91,0,0,1-.42-.19,5.88,5.88,0,0,0-.7-.39,7.13,7.13,0,0,0-1-.39,4.51,4.51,0,0,0-1.33-.18,3.83,3.83,0,0,0-1.18.16,2.23,2.23,0,0,0-.84.44,2,2,0,0,0-.49.7,2.2,2.2,0,0,0-.17.86,1.83,1.83,0,0,0,.32,1.09,3.11,3.11,0,0,0,.83.78,7.4,7.4,0,0,0,1.16.6l1.33.54c.45.19.9.4,1.34.64a4.75,4.75,0,0,1,1.17.85,3.65,3.65,0,0,1,.82,1.2A4,4,0,0,1,396.63,446.28Z"/><path class="cls-1" d="M75.84,413.65c-2,1.05-6,2.11-11.23,2.11-12,0-21-7.92-21-22.49,0-13.91,9-23.34,22.2-23.34,5.3,0,8.64,1.19,10.1,2l-1.33,4.68A19.34,19.34,0,0,0,66,374.75c-10,0-16.59,6.66-16.59,18.33,0,10.88,6,17.86,16.34,17.86a21.2,21.2,0,0,0,9-1.84Z"/><path class="cls-1" d="M85.81,400.2c.12,7.84,4.92,11.07,10.47,11.07a19.22,19.22,0,0,0,8.45-1.65l1,4.16a23.88,23.88,0,0,1-10.16,2c-9.4,0-15-6.46-15-16.09s5.42-17.21,14.32-17.21c10,0,12.61,9.16,12.61,15a21.59,21.59,0,0,1-.19,2.71ZM102.08,396c.07-3.69-1.45-9.43-7.69-9.43-5.62,0-8.08,5.41-8.52,9.43Z"/><path class="cls-1" d="M115.2,391.82c0-3.29-.06-6-.25-8.63h4.92l.31,5.27h.13a11.17,11.17,0,0,1,10.09-6c4.23,0,10.79,2.64,10.79,13.58V415.1h-5.55V396.7c0-5.14-1.83-9.43-7.07-9.43a8,8,0,0,0-7.44,5.94,8.71,8.71,0,0,0-.38,2.7V415.1H115.2Z"/><path class="cls-1" d="M157.53,374v9.17h7.94v4.41h-7.94v17.21c0,4,1.07,6.2,4.16,6.2a11.79,11.79,0,0,0,3.22-.4l.25,4.36a13.1,13.1,0,0,1-4.92.79,7.51,7.51,0,0,1-6-2.44c-1.58-1.72-2.15-4.55-2.15-8.31V387.6h-4.73v-4.41h4.73v-7.65Z"/><path class="cls-1" d="M172.6,393.14c0-3.76-.06-7-.25-9.95h4.86l.19,6.26h.25c1.39-4.29,4.73-7,8.45-7a5.88,5.88,0,0,1,1.58.2v5.47a8.15,8.15,0,0,0-1.9-.2c-3.91,0-6.68,3.1-7.44,7.45a16.68,16.68,0,0,0-.25,2.71v17H172.6Z"/><path class="cls-1" d="M210.7,415.1l-.44-4h-.19a11.22,11.22,0,0,1-9.34,4.74,8.88,8.88,0,0,1-9.33-9.16c0-7.72,6.56-11.94,18.35-11.87v-.66c0-2.64-.69-7.38-6.93-7.38a14.72,14.72,0,0,0-7.95,2.37l-1.26-3.82a18.28,18.28,0,0,1,10-2.84c9.33,0,11.6,6.66,11.6,13.06v11.93a46.77,46.77,0,0,0,.51,7.65Zm-.82-16.29c-6-.13-12.93,1-12.93,7.19,0,3.76,2.4,5.54,5.24,5.54a7.64,7.64,0,0,0,7.38-5.34,6.7,6.7,0,0,0,.31-1.85Z"/><path class="cls-1" d="M225.08,368.29h5.55V415.1h-5.55Z"/><path class="cls-2" d="M240.28,408.11a18.86,18.86,0,0,0,9.84,2.9c5.62,0,8.9-3.1,8.9-7.58,0-4.16-2.27-6.53-8-8.84-6.94-2.57-11.23-6.33-11.23-12.59,0-6.92,5.49-12.07,13.75-12.07a18.65,18.65,0,0,1,9.4,2.18l-1.52,4.68a16.33,16.33,0,0,0-8.07-2.11c-5.8,0-8,3.63-8,6.66,0,4.15,2.59,6.2,8.45,8.57,7.19,2.9,10.85,6.53,10.85,13.06,0,6.85-4.86,12.79-14.89,12.79-4.1,0-8.57-1.26-10.85-2.84Z"/><path class="cls-2" d="M300.84,398.88c0,11.8-7.82,16.94-15.21,16.94-8.26,0-14.63-6.33-14.63-16.41,0-10.69,6.69-17,15.14-17C294.91,382.46,300.84,389.12,300.84,398.88Zm-24.23.33c0,7,3.85,12.26,9.28,12.26s9.27-5.21,9.27-12.39c0-5.41-2.59-12.27-9.15-12.27S276.61,393.14,276.61,399.21Z"/><path class="cls-2" d="M309.29,415.1V387.6H305v-4.41h4.29v-1.52c0-4.48.94-8.57,3.53-11.14a10.37,10.37,0,0,1,7.44-3,12.49,12.49,0,0,1,4.74.92l-.76,4.49a7.93,7.93,0,0,0-3.53-.73c-4.74,0-5.93,4.35-5.93,9.23v1.72h7.38v4.41h-7.38v27.5Z"/><path class="cls-2" d="M335.4,374v9.17h8v4.41h-8v17.21c0,4,1.07,6.2,4.16,6.2a11.67,11.67,0,0,0,3.22-.4L343,415a13.06,13.06,0,0,1-4.92.79,7.54,7.54,0,0,1-6-2.44c-1.58-1.72-2.14-4.55-2.14-8.31V387.6h-4.73v-4.41H330v-7.65Z"/><path class="cls-2" d="M353.25,383.19l4,16.22c.88,3.56,1.7,6.85,2.27,10.15h.19c.69-3.23,1.7-6.66,2.71-10.09l5-16.28h4.67l4.73,15.95c1.14,3.83,2,7.19,2.72,10.42h.18a101.09,101.09,0,0,1,2.34-10.35l4.35-16h5.49l-9.84,31.91H377l-4.67-15.23c-1.07-3.56-1.95-6.73-2.71-10.49h-.12a98.81,98.81,0,0,1-2.78,10.55l-4.92,15.17h-5.05l-9.21-31.91Z"/><path class="cls-2" d="M415,415.1l-.44-4h-.19a11.22,11.22,0,0,1-9.33,4.74,8.89,8.89,0,0,1-9.34-9.16c0-7.72,6.56-11.94,18.36-11.87v-.66c0-2.64-.7-7.38-6.94-7.38a14.75,14.75,0,0,0-7.95,2.37l-1.26-3.82a18.28,18.28,0,0,1,10-2.84c9.34,0,11.61,6.66,11.61,13.06v11.93a46.84,46.84,0,0,0,.5,7.65Zm-.82-16.29c-6.05-.13-12.93,1-12.93,7.19,0,3.76,2.4,5.54,5.24,5.54a7.63,7.63,0,0,0,7.38-5.34,6.35,6.35,0,0,0,.31-1.85Z"/><path class="cls-2" d="M429.38,393.14c0-3.76-.06-7-.25-9.95H434l.19,6.26h.25c1.39-4.29,4.73-7,8.45-7a5.83,5.83,0,0,1,1.58.2v5.47a8.06,8.06,0,0,0-1.89-.2c-3.91,0-6.69,3.1-7.45,7.45a17.89,17.89,0,0,0-.25,2.71v17h-5.49Z"/><path class="cls-2" d="M453.35,400.2c.13,7.84,4.92,11.07,10.48,11.07a19.22,19.22,0,0,0,8.45-1.65l.94,4.16a23.79,23.79,0,0,1-10.15,2c-9.4,0-15-6.46-15-16.09s5.42-17.21,14.31-17.21c10,0,12.62,9.16,12.62,15a23.72,23.72,0,0,1-.19,2.71ZM469.63,396c.06-3.69-1.45-9.43-7.7-9.43-5.61,0-8.07,5.41-8.51,9.43Z"/><path class="cls-2" d="M248.31,41.72c2.88-6.84.86-15.36-4.51-19s-12.05-1.09-14.93,5.75L201.38,93.87h25Z"/><path class="cls-2" d="M300.72,93.87h25L298.25,28.44c-2.88-6.84-9.56-9.42-14.93-5.75s-7.39,12.19-4.51,19Z"/><circle class="cls-2" cx="254.87" cy="153.05" r="9.66"/><circle class="cls-2" cx="200.37" cy="276.9" r="9.66" transform="translate(-94.93 449) rotate(-84.35)"/><path class="cls-2" d="M394.52,115.79l-7.36-5.46a28.85,28.85,0,0,0-14-3.71H154c-23.54,0-40.55,28.7-34.13,57.57l30.67,137.89c4.32,19.47,18.26,32.9,34.12,32.9h157.9c15.87,0,29.8-13.43,34.13-32.9L407.3,164.19C411.5,145.3,405.64,126.55,394.52,115.79ZM220.57,220.68V220h.29l23-53.81a17.14,17.14,0,1,1,11,4,16.63,16.63,0,0,1-2.93-.27L231,220h43.85l-6.22-14.45,4.86-11.23,14.85,34.56h-4.47v0H217.06Zm113.65,60.81H300.1l-9.26-23.88H247.15l-10,23.88H216.88a17.16,17.16,0,1,1,.07-8.89h13.79l10.15-23.89h55.65l10,23.89H330.4L277.31,149.07l9.67,0,56.93,132.46Z"/></svg>